<?xml version="1.0" encoding="utf-8"?>
<!-- Generator: Adobe Illustrator 17.0.0, SVG Export Plug-In . SVG Version: 6.00 Build 0)  -->
<!DOCTYPE svg PUBLIC "-//W3C//DTD SVG 1.1//EN" "http://www.w3.org/Graphics/SVG/1.1/DTD/svg11.dtd">
<svg version="1.1" id="Capa_1" xmlns="http://www.w3.org/2000/svg" xmlns:xlink="http://www.w3.org/1999/xlink" x="0px" y="0px"
	 width="300px" height="300px" viewBox="0 0 300 300" enable-background="new 0 0 300 300" xml:space="preserve">
<g id="AT20x3_1_">
	<g>
		<path fill="#f9bdbc" d="M150.015,6.256c30.281,0.001,60.563-0.015,90.844,0.008c13.787,0.01,26.044,4.518,36.425,13.48
			c11.625,10.036,18.568,22.807,19.185,38.298c1.376,34.521,0.731,69.072,0.358,103.598c-0.279,25.789-0.137,51.575-0.329,77.361
			c-0.167,22.348-14.626,43.039-35.6,50.774c-7.145,2.635-14.499,3.857-22.066,3.87c-18.057,0.033-36.118,0.254-54.17-0.065
			c-31.697-0.559-63.393-0.489-95.089-0.352c-9.296,0.04-18.599,0.484-27.903,0.396c-13.567-0.129-26.12-3.265-37.072-11.845
			c-11.582-9.073-18.579-20.723-21.048-35.174c-0.512-2.996-0.681-6.002-0.681-9.038C2.865,179.357,3.113,121.147,2.693,62.942
			C2.508,37.4,20.238,13.537,46.168,7.73c4.497-1.007,9.061-1.48,13.675-1.479C89.901,6.259,119.958,6.255,150.015,6.256z
			 M144.26,229.744c0,0.006,0,0.012,0,0.019c10.875,0,21.754,0.183,32.625-0.035c30.465-0.612,53.704-14.335,68.659-40.55
			c15.261-26.751,14.312-54.289-1.339-80.593C231.825,87.78,213.169,75.04,188.89,71.476c-25.574-3.754-47.826,3.549-66.863,20.868
			c-1.457,1.325-2.843,1.843-4.799,1.705c-5.943-0.419-11.883-0.168-17.747,0.943c-16.443,3.114-29.83,11.337-40.131,24.481
			c-8.065,10.291-13.274,22.007-14.399,34.994c-2.073,23.925,6.104,44.059,24.375,59.8c11.627,10.017,25.246,15.234,40.626,15.447
			C121.387,229.872,132.824,229.744,144.26,229.744z"/>
		<path fill="#f9bdbc" d="M246.168,149.824c-0.851,25.311-11.264,45.308-32.798,59.046c-22.36,14.266-50.777,13.473-72.851-1.857
			c-8.67-6.021-15.464-13.94-22.952-21.162c-6.052-5.837-11.945-11.841-17.852-17.826c-3.984-4.036-4.937-8.299-2.964-12.501
			c3.146-6.699,11.349-8.004,16.856-2.557c9.167,9.068,18.277,18.194,27.347,27.358c7.18,7.253,14.965,13.48,25.013,16.387
			c13.109,3.793,25.187,1.629,36.609-5.633c10.712-6.811,17.863-16.379,21.157-28.437c4.506-16.495,1.098-31.692-10.3-44.488
			c-13.836-15.533-31.292-19.449-51.087-14.282c-3.28,0.856-6.225,2.536-9.072,4.319c-1.405,0.879-2.642,1.163-4.009,0.147
			c-4.63-3.442-9.942-5.622-15.096-8.074c-2.194-1.044-2.368-1.797-0.487-3.476c22.223-19.836,57.244-20.783,81.069-5.002
			c17.444,11.554,27.652,27.729,30.901,48.312C246.154,143.288,246.012,146.58,246.168,149.824z"/>
		<path fill="#f9bdbc" d="M140.993,218.442c-7.164,0-13.286,0.063-19.405-0.015c-8.715-0.111-17.42,0.465-26.047-1.916
			c-23.427-6.466-40.345-28.962-41.006-53.255c-0.715-26.259,18.731-52.751,48.044-56.915c19.115-2.715,35.636,3.071,49.19,16.957
			c6.654,6.817,13.284,13.657,19.913,20.498c2.827,2.917,3.642,6.468,2.573,10.261c-1.116,3.957-3.835,6.586-7.954,7.379
			c-3.652,0.704-6.905-0.354-9.512-3.018c-7.134-7.288-14.177-14.665-21.334-21.931c-18.729-19.014-51.665-10.518-58.932,15.175
			c-6.056,21.411,8.248,43.196,30.43,45.709c6.107,0.692,11.058,2.039,15.374,6.945
			C127.256,209.919,134.043,213.562,140.993,218.442z"/>
	</g>
</g>
</svg>
