<?xml version="1.0" encoding="utf-8"?>
<!-- Generator: Adobe Illustrator 17.0.0, SVG Export Plug-In . SVG Version: 6.00 Build 0)  -->
<!DOCTYPE svg PUBLIC "-//W3C//DTD SVG 1.1//EN" "http://www.w3.org/Graphics/SVG/1.1/DTD/svg11.dtd">
<svg version="1.1" id="Capa_1" xmlns="http://www.w3.org/2000/svg" xmlns:xlink="http://www.w3.org/1999/xlink" x="0px" y="0px"
	 width="300px" height="300px" viewBox="1376.5 0 300 300" enable-background="new 1376.5 0 300 300" xml:space="preserve">
<g>
	<path fill="#f9bdbc" d="M1380.815,244.952c0-63.393,0-126.787,0-190.18c0.643-1.346,0.544-2.837,0.782-4.256
		c3.534-21.059,20.77-38.294,41.813-41.814c1.419-0.237,2.916-0.109,4.256-0.782c65.796,0,131.592,0,197.388,0
		c1.454,0.564,3.015,0.534,4.522,0.785c21.063,3.52,38.336,20.791,41.82,41.81c0.25,1.511,0.191,3.082,0.786,4.534
		c0,63.301,0,126.602,0,189.903c-0.28,0.1-0.246,0.348-0.266,0.569c-0.216,2.345-0.631,4.657-1.152,6.951
		c-4.491,19.758-21.569,35.67-41.595,38.82c-1.74,0.274-3.531,0.216-5.224,0.789c-65.149,0-130.298,0-195.448,0
		c-0.081-0.295-0.33-0.261-0.551-0.279c-5.226-0.44-10.314-1.56-15.111-3.662c-17.062-7.476-27.514-20.339-31.218-38.643
		C1381.313,247.986,1381.415,246.407,1380.815,244.952z M1522.304,207.768c4.158,0,8.316,0.012,12.474-0.007
		c1.514-0.007,1.901-0.544,1.531-2.002c-0.079-0.312-0.202-0.613-0.311-0.917c-14.543-40.629-29.096-81.255-43.594-121.901
		c-0.541-1.516-1.321-1.953-2.822-1.946c-9.84,0.046-19.68,0.022-29.521,0.025c-1.847,0.001-2.004,0.171-2.071,2.087
		c-0.1,2.861-0.189,5.723-1.14,8.47c-3.303,9.541-6.586,19.089-9.909,28.623c-9.877,28.341-19.771,56.677-29.656,85.016
		c-0.887,2.542-0.535,3.027,2.167,3.027c6.884,0.001,13.767,0,20.651,0.001c2.608,0,2.867-0.188,3.649-2.617
		c2.842-8.82,5.71-17.632,8.501-26.468c0.326-1.03,0.753-1.317,1.807-1.314c14.229,0.038,28.458,0.036,42.687,0.002
		c0.973-0.002,1.404,0.24,1.728,1.204c2.995,8.915,6.071,17.803,9.078,26.714c0.484,1.434,1.268,2.063,2.832,2.03
		C1514.357,207.713,1518.331,207.769,1522.304,207.768z M1621.949,194.273c0-2.864,0.003-5.729-0.003-8.593
		c-0.001-0.414-0.012-0.833-0.071-1.242c-0.079-0.552-0.29-0.783-0.932-0.513c-4.814,2.022-9.928,2.808-15.05,3.504
		c-6.728,0.914-13.397,0.976-20.038-0.943c-9.329-2.696-14.64-8.787-16.319-18.261c-0.212-1.195,0.184-1.264,1.147-1.258
		c5.082,0.035,10.163,0.009,15.245,0.018c8.084,0.014,16.178-0.187,24.25,0.137c5.74,0.23,11.439,0.249,17.15-0.285
		c1.512-0.141,2.026-0.62,2.168-2.125c0.13-1.379,0.294-2.755,0.391-4.137c0.586-8.345,0.439-16.611-2.558-24.591
		c-3.629-9.663-9.453-17.378-19.077-21.784c-7.268-3.327-14.921-4.321-22.83-3.868c-4.671,0.268-9.322,0.752-13.705,2.46
		c-10.435,4.065-18.196,11.269-23.218,21.165c-8.123,16.009-8.86,32.646-2.537,49.357c4.552,12.03,13.204,20.296,25.43,24.597
		c6.972,2.452,14.226,3.035,21.561,2.992c9.116-0.054,18.04-1.195,26.59-4.538c2.091-0.817,2.392-1.264,2.402-3.499
		C1621.959,200.001,1621.949,197.137,1621.949,194.273z"/>
	<path fill="#f9bdbc" d="M1474.96,102.941c1.341,4.69,2.511,9.098,3.863,13.45c3.72,11.968,7.501,23.916,11.304,35.858
		c0.39,1.223,0.23,1.522-1.111,1.514c-9.281-0.058-18.562-0.03-27.843-0.03c-0.412,0-0.825,0-1.246,0
		C1464.902,136.847,1470.64,120.267,1474.96,102.941z"/>
	<path fill="#f9bdbc" d="M1585.563,149.257c-4.938,0-9.876-0.042-14.813,0.029c-1.246,0.018-1.417-0.327-1.193-1.473
		c1.33-6.787,4.307-12.453,11.038-15.182c9.261-3.755,20.3-0.296,23.507,10.312c0.419,1.386,0.486,2.807,0.609,4.231
		c0.075,0.864-0.342,1.26-1.067,1.521c-1.284,0.463-2.625,0.513-3.959,0.52c-4.707,0.024-9.414,0.009-14.121,0.009
		C1585.563,149.236,1585.563,149.246,1585.563,149.257z"/>
</g>
</svg>
