<?xml version="1.0" encoding="utf-8"?>
<!-- Generator: Adobe Illustrator 17.0.0, SVG Export Plug-In . SVG Version: 6.00 Build 0)  -->
<!DOCTYPE svg PUBLIC "-//W3C//DTD SVG 1.1//EN" "http://www.w3.org/Graphics/SVG/1.1/DTD/svg11.dtd">
<svg version="1.1" id="Capa_1" xmlns="http://www.w3.org/2000/svg" xmlns:xlink="http://www.w3.org/1999/xlink" x="0px" y="0px"
	 width="300px" height="300px" viewBox="3467.651 7.919 300 300" enable-background="new 3467.651 7.919 300 300"
	 xml:space="preserve">
<g id="JhVAJF_1_">
	<g>
		<path fill="#f9bdbc" d="M3615.488,10.419c1.508,0,3.016,0,4.523,0c0.323,0.041,0.645,0.117,0.968,0.116
			c4.23-0.012,8.437,0.342,12.641,0.775c10.466,1.077,20.693,3.281,30.664,6.615c23.255,7.776,43.376,20.531,60.314,38.265
			c15.984,16.735,27.392,36.182,34.27,58.275c2.723,8.746,4.605,17.675,5.579,26.788c0.25,2.341,0.471,4.686,0.705,7.029
			c0,6.556,0,13.111,0,19.667c-0.103,0.975-0.23,1.948-0.306,2.925c-0.588,7.591-1.819,15.082-3.67,22.46
			c-7.612,30.348-23.237,55.823-46.809,76.37c-16.016,13.961-34.285,23.903-54.662,29.95c-8.181,2.428-16.51,4.134-24.997,5.056
			c-2.34,0.254-4.684,0.473-7.027,0.708c-6.621,0-13.242,0-19.863,0c-0.191-0.04-0.381-0.105-0.573-0.116
			c-3.172-0.189-6.324-0.549-9.473-0.971c-11.81-1.581-23.263-4.549-34.323-8.972c-24.612-9.844-45.168-25.166-61.61-45.957
			c-13.735-17.369-23.046-36.885-27.982-58.47c-2.203-9.634-3.468-19.395-3.589-29.29c-0.004-0.324-0.077-0.647-0.117-0.97
			c0-1.77,0-3.54,0-5.31c0.04-0.291,0.117-0.581,0.115-0.872c-0.013-2.688,0.194-5.364,0.385-8.044
			c0.428-5.986,1.25-11.918,2.462-17.79c5.636-27.304,17.938-51.203,37.008-71.528c19.164-20.426,42.332-34.314,69.381-41.645
			c11.458-3.106,23.135-4.792,35.019-4.947C3614.843,10.532,3615.165,10.46,3615.488,10.419z M3640.047,66.476
			c-5.581-0.002-13.35,1.246-21.186,3.878c-15.277,5.132-28.286,13.836-39.181,25.593c-21.065,22.733-31.091,49.72-30.474,80.69
			c0.101,5.05,0.492,10.07,1.232,15.064c1.369,9.234,3.85,18.128,8.156,26.452c6.84,13.223,17.061,22.672,31.161,27.735
			c6.021,2.162,12.253,3.265,18.635,3.658c4.565,0.281,9.098,0.183,13.613-0.541c9.086-1.457,17.341-5.004,24.964-10.067
			c11.389-7.564,20.311-17.487,27.534-29.016c2.549-4.068,4.877-8.237,6.08-12.932c0.63-2.46,1.034-4.943,0.343-7.467
			c-0.309-1.128-0.784-2.164-1.805-2.837c-1.211-0.798-2.386-0.482-3.002,0.82c-1.711,3.619-3.656,7.11-5.797,10.49
			c-5.222,8.246-11.272,15.792-18.889,21.97c-10.417,8.45-22.115,13.149-35.766,11.964c-6.53-0.567-12.562-2.558-17.929-6.378
			c-6.564-4.671-10.914-11.045-13.958-18.388c-3.881-9.363-5.298-19.22-5.682-29.257c-0.281-7.349,0.14-14.67,1.385-21.927
			c3.075-17.924,9.979-34.217,20.972-48.724c7.124-9.4,15.494-17.445,26.044-22.957c6.396-3.342,13.119-5.377,20.481-4.749
			c8.408,0.718,14.31,5.565,16.345,13.791c1.767,7.141,1.045,14.173-1.305,21.079c-1.219,3.582-3.034,6.892-4.726,10.258
			c-0.707,1.407-1.366,2.834-1.71,4.384c-0.663,2.989,0.892,5.028,3.957,5.184c1.186,0.06,2.357-0.085,3.513-0.319
			c5.882-1.192,10.5-4.479,14.354-8.902c5.219-5.991,8.098-13.012,8.864-20.915c0.513-5.297,0.049-10.472-1.915-15.452
			c-3.288-8.337-9.417-13.891-17.424-17.52C3659.205,67.639,3651.013,66.463,3640.047,66.476z"/>
	</g>
</g>
</svg>
