<?xml version="1.0" encoding="utf-8"?>
<!-- Generator: Adobe Illustrator 17.0.0, SVG Export Plug-In . SVG Version: 6.00 Build 0)  -->
<!DOCTYPE svg PUBLIC "-//W3C//DTD SVG 1.1//EN" "http://www.w3.org/Graphics/SVG/1.1/DTD/svg11.dtd">
<svg version="1.1" id="Capa_1" xmlns="http://www.w3.org/2000/svg" xmlns:xlink="http://www.w3.org/1999/xlink" x="0px" y="0px"
	 width="300px" height="300px" viewBox="2070.5 0 300 300" enable-background="new 2070.5 0 300 300" xml:space="preserve">
<g id="t7z7EY.tif">
	<g>
		<path fill="#f9bdbc" d="M2368,141.948c0,5.368,0,10.737,0,16.105c-0.135,0.847-0.329,1.69-0.395,2.543
			c-1.547,20.058-6.976,39.006-16.777,56.571c-19.769,35.431-49.371,58.672-88.132,70.382c-9.569,2.891-19.417,4.334-29.287,5.67
			c-8.436,0-16.872,0-25.308,0c-0.751-0.142-1.496-0.337-2.253-0.417c-12.148-1.274-24.041-3.722-35.504-7.989
			c-42.647-15.873-72.9-44.594-88.532-87.522c-13.791-37.87-11.391-75.432,7.159-111.115c21.844-42.02,56.873-67.281,103.255-76.849
			c5.451-1.124,10.97-1.677,16.45-2.546c8.052,0,16.105,0,24.157,0c0.656,0.132,1.306,0.328,1.969,0.386
			c10.156,0.903,20.078,3.003,29.845,5.872c4.88,1.434,9.149,3.916,12.588,7.712c5.542,6.118,5.324,12.572-0.679,18.22
			c-5.949,5.597-13.281,8.677-20.927,11.023c-13.321,4.086-27.192,5.639-40.758,8.619c-24.756,5.438-48.154,14.034-69.14,28.587
			c-24.431,16.942-41.57,38.664-47.145,68.698c-3.625,19.531-2.11,38.141,6.826,55.957c6.522,13.002,15.486,24.182,26.214,33.947
			c30.19,27.477,65.15,33.524,102.955,20.521c26.379-9.073,45.694-27.757,58.903-52.241c13.341-24.727,21.141-51.3,24.315-79.219
			c1.35-11.879,4.02-23.399,9.056-34.311c2.334-5.057,5.938-8.906,10.729-11.639c7.965-4.545,15.168-2.201,18.971,6.09
			c4.138,9.02,6.888,18.458,8.827,28.18C2366.622,129.4,2367.242,135.678,2368,141.948z"/>
		<path fill="#f9bdbc" d="M2247.267,233.077c-30.966-0.301-58.295-10.38-80.342-32.234c-27.309-27.07-37.502-59.83-29.387-97.824
			c0.361-1.691,1.188-2.925,2.536-4c14.165-11.291,30.005-19.47,46.986-25.61c15.581-5.634,31.828-8.412,47.99-11.627
			c13.156-2.617,26.29-5.423,38.581-11.101c2.711-1.252,5.223-2.82,7.585-4.642c5.234-4.038,7.456-9.3,6.598-15.887
			c-0.4-3.07,0.045-3.431,2.727-2.273c22.508,9.716,39.371,25.484,50.641,47.258c1.158,2.237,1.041,3.369-1.681,4.393
			c-12.566,4.728-19.694,14.413-23.589,26.829c-3.14,10.009-4.615,20.341-5.883,30.719c-1.562,12.786-4.621,25.249-8.569,37.493
			c-5.611,17.406-12.995,33.969-23.078,49.314c-2.831,4.308-6.113,6.937-11.356,7.577
			C2260.458,232.263,2253.913,233.087,2247.267,233.077z"/>
	</g>
</g>
</svg>
