<?xml version="1.0" encoding="utf-8"?>
<!-- Generator: Adobe Illustrator 17.0.0, SVG Export Plug-In . SVG Version: 6.00 Build 0)  -->
<!DOCTYPE svg PUBLIC "-//W3C//DTD SVG 1.1//EN" "http://www.w3.org/Graphics/SVG/1.1/DTD/svg11.dtd">
<svg version="1.1" id="Capa_1" xmlns="http://www.w3.org/2000/svg" xmlns:xlink="http://www.w3.org/1999/xlink" x="0px" y="0px"
	 width="300px" height="300px" viewBox="0 0 300 300" enable-background="new 0 0 300 300" xml:space="preserve">
<g>
	<path fill="#FC8583" d="M156.338,297.5c-4.225,0-8.451,0-12.676,0c-9.811-2.665-19.632-5.296-29.432-8.003
		c-19.7-5.442-39.389-10.928-59.083-16.39c-7.767-2.154-12.416-7.105-13.179-15.21c-1.931-20.531-3.747-41.072-5.577-61.612
		c-1.43-16.051-2.794-32.108-4.223-48.159c-1.659-18.629-3.356-37.255-5.037-55.882c-1.276-14.137-2.569-28.273-3.823-42.412
		C22.248,37.89,21.24,25.943,20.197,14c-0.489-5.596,1.827-9.447,7.079-11.5c81.816,0,163.633,0,245.449,0
		c5.25,2.055,7.573,5.902,7.077,11.502c-0.415,4.682-0.784,9.367-1.195,14.049c-1.217,13.857-2.436,27.713-3.672,41.569
		c-1.457,16.338-2.939,32.674-4.396,49.012c-1.414,15.862-2.8,31.726-4.215,47.587c-1.467,16.433-2.963,32.863-4.431,49.296
		c-1.229,13.759-2.302,27.535-3.699,41.277c-0.975,9.599-4.927,14.013-14.154,16.559C214.81,281.417,185.572,289.453,156.338,297.5z
		 M150.171,59.688c-25.061,0-50.123-0.012-75.184,0.01c-5.029,0.004-6.451,1.466-6.047,6.416c0.414,5.067,1.092,10.111,1.602,15.171
		c0.621,6.155,1.438,6.919,7.728,6.92c22.277,0.004,44.554,0,66.832,0.008c1.15,0,2.306,0.023,3.447,0.146
		c0.918,0.099,1.638,0.618,1.838,1.578c0.203,0.977-0.294,1.719-1.12,2.131c-1.458,0.728-2.951,1.391-4.458,2.013
		c-21.209,8.751-42.432,17.466-63.628,26.249c-4.746,1.967-5.761,3.542-5.356,8.621c0.458,5.736,1.126,11.46,1.878,17.166
		c0.443,3.356,2.213,5.056,5.607,5.665c1.591,0.285,3.244,0.308,4.868,0.309c33.511,0.016,67.022,0.012,100.533,0.013
		c5.041,0,5.041,0.004,4.507,4.932c-0.021,0.191-0.051,0.381-0.072,0.572c-1.283,11.925-2.642,23.842-3.788,35.78
		c-0.259,2.702-1.333,4.065-3.874,4.919c-10.918,3.672-21.797,7.463-32.651,11.32c-2.023,0.719-3.817,0.775-5.837,0.057
		c-10.945-3.888-21.904-7.739-32.905-11.465c-2.276-0.771-3.178-2.086-3.384-4.358c-0.502-5.542-1.143-11.071-1.737-16.605
		c-0.56-5.214-2.735-7.284-8.02-7.431c-3.646-0.101-7.297-0.044-10.946-0.031c-7.568,0.027-9.703,2.605-8.817,10.187
		c1.17,10.006,2.292,20.02,3.207,30.052c0.475,5.205,2.929,8.552,7.828,10.246c17.691,6.117,35.374,12.257,53.058,18.396
		c2.901,1.007,5.764,1.162,8.724,0.116c18.1-6.401,36.214-12.765,54.332-19.116c4.261-1.493,6.588-4.497,7.11-8.903
		c0.644-5.431,1.208-10.872,1.782-16.311c2.023-19.179,3.956-38.368,6.086-57.536c1.02-9.182-2.485-13.345-11.79-13.351
		c-15.651-0.011-31.302,0.017-46.952-0.029c-2.012-0.006-4.759,0.594-5.242-2.218c-0.454-2.642,2.274-2.971,4.041-3.699
		c18.907-7.786,37.863-15.453,56.742-23.305c9.86-4.101,7.629-1.235,9.051-11.855c0.777-5.799,1.325-11.629,1.938-17.449
		c0.279-2.644-0.741-4.557-3.46-5.141c-1.201-0.258-2.483-0.187-3.728-0.187C199.334,59.682,174.752,59.684,150.171,59.688z"/>
</g>
</svg>
