<?xml version="1.0" encoding="utf-8"?>
<!-- Generator: Adobe Illustrator 17.0.0, SVG Export Plug-In . SVG Version: 6.00 Build 0)  -->
<!DOCTYPE svg PUBLIC "-//W3C//DTD SVG 1.1//EN" "http://www.w3.org/Graphics/SVG/1.1/DTD/svg11.dtd">
<svg version="1.1" id="Capa_1" xmlns="http://www.w3.org/2000/svg" xmlns:xlink="http://www.w3.org/1999/xlink" x="0px" y="0px"
	 width="300px" height="300px" viewBox="0 0 300 300" enable-background="new 0 0 300 300" xml:space="preserve">
<g>
	<path fill="#FC8583" d="M2.5,158.94c1.082-3.016,0.249-6.214,0.917-9.297c0.464-2.144,1.417-3.135,3.617-2.956
		c1.111,0.09,2.235,0.011,3.353,0.011c64.286,0,128.572,0.018,192.857-0.028c6.726-0.005,13.359-0.835,19.695-3.402
		c2.288-0.927,2.615-1.874,1.596-4.224c-7.812-18.018-4.444-34.667,6.504-50.315c1.035-1.479,2.009-1.804,3.59-0.76
		c10.959,7.237,19.606,16.281,22.876,29.443c0.612,2.463,1.562,3.136,4.163,2.834c7.589-0.882,15.177-0.558,22.644,1.261
		c4.426,1.078,8.253,3.327,11.856,6.055c1.401,1.061,1.636,2.085,0.99,3.72c-6.883,17.413-20.437,26.941-39.278,27.032
		c-4.243,0.021-6.394,1.149-8.187,5.264c-7.334,16.834-17.263,32.027-30.241,45.15c-19.971,20.193-44.055,32.894-71.493,39.596
		c-18.488,4.515-37.273,6.181-56.218,5.172c-19.293-1.027-37.57-5.833-53.407-17.494c-18.364-13.521-28.489-32.206-33.308-54.149
		c-1.467-6.683-1.609-13.495-2.525-20.227C2.5,160.729,2.5,159.835,2.5,158.94z"/>
	<path fill="#FC8583" d="M164.198,46.221c0.05,8.482,0.081,16.963,0.164,25.445c0.019,1.96-0.799,2.854-2.784,2.847
		c-8.485-0.03-16.97-0.043-25.454,0.007c-2.553,0.015-2.852-1.52-2.842-3.515c0.039-8.261,0.039-16.522,0.053-24.784
		C143.622,46.221,153.91,46.221,164.198,46.221z"/>
	<path fill="#FC8583" d="M77.31,108.101c-4.249,0.003-8.498-0.051-12.745,0.026c-2.119,0.038-3.075-0.814-3.065-2.952
		c0.036-7.602,0.026-15.205,0.012-22.808c-0.004-1.976,0.936-2.776,2.892-2.767c8.385,0.04,16.771,0.048,25.156-0.007
		c2.11-0.014,3.037,0.78,3.021,2.949c-0.059,7.602-0.051,15.205-0.009,22.808c0.011,2.021-0.905,2.788-2.852,2.764
		C85.584,108.062,81.447,108.098,77.31,108.101z"/>
	<path fill="#FC8583" d="M113.118,108.109c-4.025,0-8.052-0.075-12.074,0.028c-2.334,0.06-3.499-0.633-3.463-3.211
		c0.104-7.378,0.081-14.758,0.009-22.136c-0.022-2.254,0.775-3.228,3.118-3.206c8.273,0.076,16.547,0.074,24.82-0.001
		c2.334-0.021,3.18,0.971,3.165,3.208c-0.051,7.379-0.069,14.759,0.008,22.137c0.027,2.55-1.172,3.273-3.509,3.211
		C121.17,108.033,117.143,108.109,113.118,108.109z"/>
	<path fill="#FC8583" d="M148.853,79.608c4.025,0,8.052,0.075,12.074-0.028c2.333-0.06,3.5,0.631,3.464,3.21
		c-0.104,7.378-0.081,14.758-0.009,22.136c0.022,2.253-0.773,3.229-3.117,3.207c-8.273-0.076-16.547-0.073-24.82,0.001
		c-2.333,0.021-3.181-0.969-3.166-3.207c0.052-7.379,0.069-14.758-0.008-22.137c-0.027-2.549,1.17-3.274,3.508-3.213
		C140.801,79.684,144.828,79.608,148.853,79.608z"/>
	<path fill="#FC8583" d="M41.327,141.656c-4.025,0-8.052-0.075-12.074,0.028c-2.334,0.06-3.499-0.633-3.463-3.211
		c0.104-7.378,0.081-14.758,0.009-22.136c-0.022-2.254,0.775-3.228,3.118-3.206c8.273,0.076,16.547,0.073,24.82-0.001
		c2.334-0.021,3.18,0.971,3.165,3.208c-0.052,7.379-0.069,14.759,0.008,22.137c0.027,2.55-1.172,3.273-3.509,3.212
		C49.379,141.58,45.352,141.656,41.327,141.656z"/>
	<path fill="#FC8583" d="M77.06,113.155c4.025,0,8.052,0.075,12.074-0.028c2.331-0.06,3.502,0.627,3.466,3.208
		c-0.104,7.378-0.081,14.758-0.009,22.136c0.022,2.252-0.77,3.231-3.116,3.209c-8.273-0.076-16.547-0.073-24.82,0.001
		c-2.331,0.021-3.183-0.966-3.168-3.205c0.052-7.379,0.069-14.759-0.008-22.137c-0.027-2.547,1.167-3.276,3.507-3.214
		C69.008,113.232,73.035,113.155,77.06,113.155z"/>
	<path fill="#FC8583" d="M113.206,141.652c-4.137,0.001-8.275-0.065-12.41,0.027c-2.256,0.05-3.232-0.773-3.207-3.117
		c0.082-7.49,0.068-14.982,0.011-22.472c-0.017-2.169,0.911-2.962,3.021-2.949c8.273,0.052,16.547,0.06,24.82-0.011
		c2.257-0.019,3.268,0.81,3.251,3.12c-0.056,7.49-0.044,14.982-0.011,22.472c0.009,2.137-0.945,2.991-3.065,2.952
		C121.48,141.596,117.342,141.651,113.206,141.652z"/>
	<path fill="#FC8583" d="M148.874,141.655c-4.137-0.001-8.275-0.071-12.41,0.026c-2.317,0.055-3.201-0.932-3.185-3.187
		c0.052-7.379,0.05-14.758,0-22.137c-0.015-2.219,0.793-3.249,3.145-3.228c8.273,0.076,16.547,0.076,24.82,0.001
		c2.324-0.021,3.161,0.912,3.139,3.186c-0.074,7.378-0.093,14.759,0.009,22.136c0.035,2.557-1.089,3.294-3.443,3.232
		C156.926,141.578,152.899,141.656,148.874,141.655z"/>
	<path fill="#FC8583" d="M184.997,113.163c4.126-0.004,8.254,0.063,12.378-0.03c2.28-0.051,3.207,0.856,3.186,3.149
		c-0.068,7.471-0.055,14.943-0.01,22.415c0.013,2.125-0.881,2.988-3.009,2.974c-8.364-0.054-16.728-0.054-25.091,0
		c-2.128,0.014-3.021-0.848-3.007-2.974c0.047-7.583,0.039-15.166,0.009-22.749c-0.008-1.973,0.863-2.82,2.831-2.796
		C176.521,113.202,180.759,113.167,184.997,113.163z"/>
</g>
</svg>
