<?xml version="1.0" encoding="utf-8"?>
<!-- Generator: Adobe Illustrator 17.0.0, SVG Export Plug-In . SVG Version: 6.00 Build 0)  -->
<!DOCTYPE svg PUBLIC "-//W3C//DTD SVG 1.1//EN" "http://www.w3.org/Graphics/SVG/1.1/DTD/svg11.dtd">
<svg version="1.1" id="Capa_1" xmlns="http://www.w3.org/2000/svg" xmlns:xlink="http://www.w3.org/1999/xlink" x="0px" y="0px"
	 width="300px" height="300px" viewBox="0 0 300 300" enable-background="new 0 0 300 300" xml:space="preserve">
<g>
	<path fill="#f9bdbc" d="M142.362,2.977c5.569,0,11.138,0,16.707,0c3.551,0.376,7.108,0.702,10.651,1.137
		c32.07,3.942,59.503,17.552,82.693,39.877c22.834,21.982,37.797,48.274,43.328,79.687c1.062,6.033,1.501,12.136,2.236,18.206
		c0,5.728,0,11.456,0,17.184c-0.111,0.863-0.26,1.723-0.326,2.589c-1.377,18.013-5.538,35.283-13.361,51.648
		c-9.417,19.699-22.785,36.303-39.284,50.432c-20.618,17.657-44.336,28.67-71.272,32.521c-5.026,0.718-10.094,1.152-15.142,1.717
		c-5.569,0-11.138,0-16.707,0c-0.861-0.116-1.719-0.281-2.584-0.342c-21.418-1.5-41.616-7.138-60.355-17.747
		c-15.597-8.83-29.049-20.262-40.728-33.797c-17.882-20.723-29.279-44.49-33.447-71.64c-0.809-5.269-1.131-10.581-1.793-15.86
		c0-5.41,0-10.82,0-16.23c0.148-1.338,0.334-2.674,0.437-4.016c1.369-17.778,5.642-34.781,13.361-50.901
		c9.173-19.157,22.095-35.41,38.107-49.241C75.592,20.317,99.371,8.941,126.511,4.767C131.776,3.957,137.087,3.645,142.362,2.977z
		 M102.211,154.611c12.725,0,25.45-0.036,38.174,0.034c2.186,0.012,2.92-0.774,2.921-2.927c0.002-7.941-1.036-15.752-3.53-23.256
		c-8.127-24.46-26.681-38.918-55.139-34.06c-20.318,3.468-32.805,16.545-38.975,35.752c-4.927,15.338-3.556,30.692,1.656,45.681
		c5.04,14.494,14.943,24.403,29.686,29.084c9.347,2.967,19.016,3.32,28.567,1.613c17.854-3.191,30.299-12.925,35.278-30.965
		c0.715-2.589,0.429-2.981-2.219-3.001c-3.897-0.03-7.795,0.052-11.69-0.034c-1.782-0.04-2.744,0.554-3.265,2.344
		c-1.254,4.316-3.746,7.844-7.259,10.678c-10.587,8.539-28.512,9.223-40.605,1.444c-10.531-6.773-14.162-17.089-14.63-28.961
		c-0.122-3.113,0.208-3.415,3.334-3.418C77.079,154.608,89.645,154.615,102.211,154.611z M163.533,93.681
		c-2.784,0-5.569-0.039-8.351,0.021c-0.976,0.021-2.352-0.526-2.823,0.518c-0.374,0.828,0.773,1.628,1.323,2.378
		c11.952,16.285,23.903,32.573,35.916,48.813c1.13,1.527,1.244,2.652,0.083,4.208c-3.091,4.142-6.032,8.396-9.033,12.605
		c-10.203,14.311-20.408,28.62-30.598,42.941c-0.394,0.554-1.217,1.121-0.833,1.832c0.38,0.703,1.307,0.325,1.989,0.327
		c5.409,0.02,10.819-0.069,16.225,0.043c2.212,0.046,3.654-0.649,4.92-2.547c9.35-14.03,18.803-27.992,28.232-41.97
		c1.877-2.783,2.008-2.792,3.834-0.085c9.469,14.047,18.946,28.089,28.351,42.178c1.144,1.713,2.44,2.457,4.503,2.42
		c5.725-0.101,11.453-0.024,17.18-0.044c0.855-0.003,2.023,0.366,2.481-0.387c0.593-0.975-0.547-1.694-1.067-2.422
		c-13.369-18.696-26.73-37.398-40.194-56.025c-1.382-1.912-1.29-3.145,0.085-4.969c11.877-15.747,23.661-31.563,35.456-47.371
		c0.452-0.606,1.378-1.21,0.996-2.007c-0.389-0.811-1.435-0.439-2.19-0.443c-5.249-0.028-10.502,0.081-15.748-0.058
		c-2.353-0.062-3.775,0.857-5.098,2.74c-8.233,11.71-16.571,23.347-24.881,35.003c-1.586,2.224-1.888,2.205-3.514-0.106
		c-0.229-0.325-0.446-0.658-0.671-0.986c-7.778-11.349-15.579-22.683-23.31-34.064c-1.175-1.73-2.465-2.708-4.674-2.582
		C169.267,93.807,166.397,93.683,163.533,93.681z"/>
	<path fill="#f9bdbc" d="M92.948,140.457c-9.458,0.001-18.917,0.014-28.375-0.006c-3.209-0.007-3.39-0.253-3.009-3.453
		c2.021-17.008,15.2-28.422,32.518-28.164c15.759,0.235,28.995,12.96,30.529,29.25c0.228,2.425-1.247,2.364-2.81,2.366
		C112.182,140.461,102.565,140.456,92.948,140.457z"/>
</g>
</svg>
