<?xml version="1.0" encoding="utf-8"?>
<!-- Generator: Adobe Illustrator 17.0.0, SVG Export Plug-In . SVG Version: 6.00 Build 0)  -->
<!DOCTYPE svg PUBLIC "-//W3C//DTD SVG 1.1//EN" "http://www.w3.org/Graphics/SVG/1.1/DTD/svg11.dtd">
<svg version="1.1" id="Capa_1" xmlns="http://www.w3.org/2000/svg" xmlns:xlink="http://www.w3.org/1999/xlink" x="0px" y="0px"
	 width="300px" height="300px" viewBox="3104.615 7.919 300 300" enable-background="new 3104.615 7.919 300 300"
	 xml:space="preserve">
<g>
	<defs>
		<path id="SVGID_1_" d="M3067.076,247.533c0,27.062-21.938,49-49,49h-194.397c-27.062,0-49-21.938-49-49V53.137
			c0-27.062,21.938-49,49-49h194.397c27.062,0,49,21.938,49,49V247.533z"/>
	</defs>
	<clipPath id="SVGID_2_">
		<use xlink:href="#SVGID_1_"  overflow="visible"/>
	</clipPath>
	<g id="Capa_5" clip-path="url(#SVGID_2_)">
		
			<radialGradient id="SVGID_3_" cx="2876.3206" cy="1264.4606" r="248.7691" gradientTransform="matrix(0.8055 0.5148 0.4116 -0.6177 242.1812 -453.661)" gradientUnits="userSpaceOnUse">
			<stop  offset="0" style="stop-color:#EEF5F3"/>
			<stop  offset="0.5872" style="stop-color:#0461CF"/>
			<stop  offset="1" style="stop-color:#2656B0"/>
		</radialGradient>
		<path fill="url(#SVGID_3_)" d="M3242.531,316.964c0,0-24.519-38.936-31.422-49.313c-6.903-10.377-8.56-7.204-15.098-25.318
			s-16.991-20.965-16.991-20.965s-0.515-11.22-9.232-21.512c-3.178-3.753-8.718-2.676-8.718-2.676s-4.434-6.738-6.175-9.151
			c-1.741-2.413-5.887-7.568-5.887-7.568s-2.662-6.613-5.233-9.832c-2.572-3.218-8.649-7.545-8.649-7.545s-1.952-6.578-3.424-8.807
			c-1.473-2.229-5.437-4.603-5.437-4.603s-2.093-4.3-4.172-5.304c-2.584-1.249-4.881-2.68-4.881-2.68s-5.097-8.684-11.175-12.711
			c-6.077-4.027-16.537-5.65-16.537-5.65s-58.844-45.077-116.406-31.478l17.87,40.177c27.433,4.657,28.826,22.273,28.826,22.273
			s-3.62,4.963-4.96,14.155c-1.341,9.191,0.204,18.462,0.204,18.462s-14.849,16.17-19.81,20.35
			c-11.291,9.514-25.604,16.818-25.604,16.818s-27.387,33.143-40.787,74.958l182.688,75.964l113.727,22.014L3242.531,316.964z"/>
		
			<radialGradient id="SVGID_4_" cx="3100.3347" cy="-41.9252" r="346.8814" gradientTransform="matrix(0.9378 0.2025 0.1968 -0.9115 222.4612 -327.4318)" gradientUnits="userSpaceOnUse">
			<stop  offset="0" style="stop-color:#EAF4CA"/>
			<stop  offset="0.6503" style="stop-color:#F1CADE"/>
			<stop  offset="1" style="stop-color:#4686C9"/>
		</radialGradient>
		<path fill="url(#SVGID_4_)" d="M2900.687,323.302c3.707-5.071,27.287-25.054,35.491-32.804
			c8.204-7.75,12.961-14.658,12.961-14.658s53.425-13.969,105.423,19.903c64.128,41.774,56.457,84.869,56.457,84.869
			L2900.687,323.302z"/>
		
			<linearGradient id="SVGID_5_" gradientUnits="userSpaceOnUse" x1="2900.6462" y1="-79.9352" x2="3014.4263" y2="-37.7716" gradientTransform="matrix(0.9775 0.211 0.211 -0.9775 102.3466 -346.3813)">
			<stop  offset="0" style="stop-color:#1D4386"/>
			<stop  offset="0.6301" style="stop-color:#1D4386;stop-opacity:0.1"/>
			<stop  offset="1" style="stop-color:#2656B0;stop-opacity:0"/>
		</linearGradient>
		<path fill="url(#SVGID_5_)" d="M2920.078,304.937c0,0,17.573-10.313,21.027-14.01c3.454-3.698,10.003-12.916,10.003-12.916
			s53.112-9.005,88.6,11.67c53.662,31.263,71.181,91.539,71.181,91.539s3.876-28.028-20.091-54.158
			c-23.967-26.13-52.757-51.238-105.89-53.541c-28.454-1.234-35.768,2.32-35.768,2.32s-16.154,17.69-18.406,19.628"/>
		
			<linearGradient id="SVGID_6_" gradientUnits="userSpaceOnUse" x1="3121.9304" y1="-70.3657" x2="2983.7668" y2="-4.7696" gradientTransform="matrix(0.9775 0.211 0.211 -0.9775 102.3466 -346.3813)">
			<stop  offset="0" style="stop-color:#1D4386"/>
			<stop  offset="0.6301" style="stop-color:#1D4386;stop-opacity:0.1"/>
			<stop  offset="1" style="stop-color:#2656B0;stop-opacity:0"/>
		</linearGradient>
		<path fill="url(#SVGID_6_)" d="M3090.798,327.061c-18.739-20.431-40.428-40.237-74.396-49.006
			c0.008,0.774-0.188,1.539-0.619,2.199c8.314,2.081,16.505,5.103,23.925,9.426c53.662,31.263,71.181,91.539,71.181,91.539
			S3114.764,353.191,3090.798,327.061z"/>
		<g>
			<path fill="#1D4386" d="M3126.177,149.715c-0.504-0.887-1.07-1.744-1.684-2.554c-0.312-0.401-0.63-0.796-0.98-1.155
				c-0.169-0.186-0.353-0.351-0.529-0.525c-0.188-0.155-0.369-0.322-0.569-0.447c-0.097-0.07-0.194-0.135-0.296-0.182l-0.15-0.079
				l-0.178-0.089l-0.703-0.34l-1.405-0.68l-0.703-0.34c-0.234-0.117-0.469-0.218-0.702-0.348l-1.406-0.765l-0.109-0.059
				l-0.104-0.159c-0.379-0.578-0.787-1.166-1.201-1.736c-0.414-0.574-0.839-1.14-1.275-1.698c-0.437-0.557-0.876-1.111-1.335-1.649
				c-0.454-0.542-0.912-1.077-1.374-1.608c-0.475-0.52-0.944-1.044-1.44-1.539c-0.482-0.51-1.001-0.978-1.508-1.456
				c-0.525-0.455-1.045-0.918-1.597-1.327c-0.27-0.216-0.543-0.423-0.829-0.607l-0.422-0.287l-0.211-0.144l-0.052-0.036
				l-0.006-0.004c0.013,0.008-0.038-0.025,0.027,0.017l-0.014-0.009l-0.029-0.017l-0.117-0.068l-0.938-0.546
				c-0.309-0.171-0.603-0.303-0.904-0.457c-0.291-0.153-0.608-0.293-0.93-0.431c-0.321-0.135-0.631-0.287-0.96-0.409
				c-0.651-0.256-1.304-0.507-1.974-0.727c-0.66-0.237-1.342-0.431-2.016-0.639c-0.68-0.194-1.361-0.384-2.05-0.554
				c-0.687-0.173-1.377-0.337-2.072-0.484c-0.694-0.148-1.387-0.3-2.083-0.433c-0.689-0.136-1.405-0.263-2.067-0.363l-0.37-0.056
				l-0.335-0.245c-1.721-1.258-3.56-2.495-5.386-3.687c-1.83-1.202-3.7-2.347-5.567-3.496c-1.869-1.147-3.759-2.262-5.667-3.344
				c-1.906-1.087-3.832-2.142-5.775-3.164c-0.965-0.523-1.949-1.01-2.923-1.517c-0.971-0.512-1.952-1.004-2.938-1.488
				c-0.982-0.491-1.965-0.979-2.961-1.442c-0.995-0.463-1.978-0.954-2.984-1.394l-3.007-1.346l-3.033-1.286
				c-1.01-0.432-2.032-0.833-3.048-1.251c-1.014-0.423-2.039-0.816-3.068-1.202c-2.046-0.802-4.125-1.511-6.198-2.242
				c-2.094-0.66-4.168-1.396-6.279-2.009c-2.097-0.665-4.225-1.215-6.349-1.792c-1.065-0.272-2.139-0.512-3.209-0.77l-1.607-0.378
				l-1.618-0.326c-1.08-0.21-2.156-0.45-3.24-0.637l-3.259-0.536c-1.083-0.209-2.178-0.328-3.268-0.491
				c-1.092-0.146-2.183-0.331-3.281-0.42l-3.295-0.329c-1.1-0.096-2.203-0.135-3.306-0.206c-2.207-0.16-4.417-0.156-6.636-0.228
				l-0.012-0.186l3.324-0.085c0.554-0.011,1.108-0.037,1.663-0.035l1.663,0.031c1.109,0.028,2.218,0.025,3.326,0.08l3.323,0.204
				c1.109,0.047,2.211,0.191,3.316,0.296c1.103,0.123,2.212,0.197,3.309,0.371l3.298,0.462c1.098,0.163,2.188,0.378,3.282,0.564
				l1.64,0.29l1.63,0.342c1.085,0.234,2.175,0.45,3.257,0.699c2.156,0.531,4.32,1.036,6.452,1.655
				c2.148,0.567,4.259,1.256,6.382,1.905c2.103,0.71,4.214,1.4,6.29,2.184c1.044,0.376,2.086,0.76,3.115,1.174
				c1.031,0.411,2.071,0.798,3.094,1.227l3.07,1.284l3.043,1.344c1.018,0.44,2.013,0.93,3.021,1.392
				c1.008,0.462,2.003,0.95,2.997,1.44c0.997,0.484,1.991,0.976,2.974,1.487c0.986,0.505,1.973,1.01,2.945,1.54
				c1.956,1.041,3.893,2.116,5.811,3.223c1.921,1.102,3.822,2.237,5.702,3.405c1.882,1.164,3.745,2.359,5.581,3.593
				c1.836,1.234,3.655,2.489,5.425,3.821l-0.072-0.031c1.439,0.24,2.859,0.545,4.273,0.885c0.707,0.168,1.41,0.353,2.111,0.548
				c0.702,0.191,1.397,0.404,2.091,0.621c0.69,0.23,1.384,0.447,2.063,0.709c0.685,0.245,1.358,0.522,2.028,0.805
				c0.338,0.135,0.662,0.302,0.993,0.452c0.331,0.151,0.659,0.307,0.979,0.484c0.32,0.174,0.649,0.337,0.962,0.52l0.924,0.567
				c0.316,0.193,0.597,0.418,0.896,0.626c0.301,0.206,0.584,0.431,0.862,0.665c0.572,0.447,1.1,0.941,1.634,1.429
				c0.513,0.508,1.037,1.006,1.519,1.542c0.498,0.522,0.965,1.07,1.437,1.613c0.457,0.555,0.918,1.107,1.353,1.679
				c0.444,0.564,0.868,1.144,1.288,1.726c0.834,1.167,1.634,2.356,2.373,3.586l-0.037-0.038l1.333,0.792
				c0.221,0.134,0.457,0.247,0.684,0.372l0.688,0.366l1.377,0.732l0.689,0.366c0.218,0.127,0.475,0.249,0.675,0.417
				c0.219,0.152,0.405,0.338,0.6,0.513c0.178,0.19,0.367,0.373,0.53,0.576c0.343,0.392,0.646,0.813,0.941,1.236
				c0.58,0.855,1.101,1.743,1.562,2.664L3126.177,149.715z"/>
		</g>
		<g>
			<path fill="#1D4386" d="M3178.918,221.37c-0.051-0.678-0.159-1.355-0.27-2.029c-0.116-0.674-0.261-1.342-0.411-2.01
				c-0.171-0.663-0.326-1.329-0.53-1.983c-0.183-0.659-0.404-1.308-0.626-1.956c-0.21-0.652-0.484-1.282-0.723-1.924
				c-0.259-0.635-0.547-1.258-0.819-1.886l-0.916-1.843l-1.011-1.793c-0.359-0.586-0.737-1.159-1.104-1.739
				c-0.373-0.576-0.799-1.119-1.195-1.679c-0.386-0.568-0.852-1.078-1.28-1.615l-0.636-0.773l-0.366-0.373
				c-0.122-0.125-0.244-0.257-0.368-0.341c-0.248-0.192-0.479-0.396-0.77-0.559c-0.269-0.185-0.564-0.327-0.861-0.467
				c-0.598-0.269-1.229-0.476-1.883-0.596c-0.65-0.133-1.319-0.198-1.988-0.201c-0.66-0.005-1.359,0.039-1.967,0.151l-0.397,0.073
				l-0.233-0.336l-5.854-8.452l-0.366-0.528c-0.105-0.15-0.259-0.333-0.385-0.497l-0.798-1.015l-1.6-2.027
				c-1.06-1.363-2.155-2.666-3.238-3.992l-0.071-0.087l-0.056-0.13c-0.363-0.838-0.752-1.689-1.154-2.522
				c-0.4-0.837-0.822-1.661-1.243-2.484c-0.211-0.412-0.443-0.808-0.663-1.212c-0.217-0.408-0.452-0.8-0.696-1.183
				c-0.247-0.378-0.464-0.795-0.735-1.142l-0.387-0.543l-0.193-0.272l-0.096-0.136l-0.024-0.034l-0.006-0.008l-0.003-0.004
				c-0.028-0.034,0.035,0.041,0.027,0.032l-0.015-0.016l-0.059-0.066l-0.941-1.062c-0.314-0.338-0.636-0.634-0.952-0.955
				c-0.307-0.317-0.656-0.628-1.003-0.94c-0.35-0.307-0.678-0.634-1.04-0.934c-0.705-0.615-1.421-1.219-2.154-1.809
				c-0.731-0.588-1.476-1.174-2.213-1.741l-0.244-0.188l-0.066-0.243c-0.176-0.651-0.367-1.31-0.561-1.963l-0.602-1.956
				c-0.207-0.65-0.416-1.298-0.65-1.935c-0.217-0.648-0.485-1.259-0.73-1.889l-0.437-0.879l-0.055-0.11l-0.014-0.027
				c0.008,0.012-0.022-0.032,0.019,0.026l-0.002-0.003l-0.005-0.007l-0.009-0.013l-0.038-0.053l-0.151-0.212l-0.303-0.423
				c-0.202-0.284-0.429-0.495-0.643-0.751c-0.204-0.252-0.474-0.48-0.714-0.721c-0.242-0.243-0.502-0.469-0.765-0.694
				c-0.258-0.23-0.524-0.452-0.799-0.665c-0.541-0.436-1.095-0.862-1.661-1.267l0.099-0.159c0.622,0.336,1.244,0.674,1.833,1.064
				c0.301,0.187,0.595,0.383,0.883,0.589c0.292,0.201,0.584,0.403,0.861,0.628c0.279,0.225,0.569,0.422,0.838,0.683
				c0.261,0.252,0.574,0.495,0.795,0.763l0.34,0.397l0.17,0.199l0.042,0.049l0.01,0.012l0.006,0.006l0.026,0.036l0.018,0.029
				l0.072,0.116l0.571,0.935l0.477,0.949c0.165,0.317,0.296,0.639,0.438,0.959c0.288,0.64,0.549,1.286,0.807,1.933
				c0.262,0.646,0.496,1.3,0.733,1.953c0.233,0.655,0.461,1.307,0.681,1.974l-0.309-0.431c0.805,0.547,1.578,1.107,2.348,1.686
				c0.77,0.575,1.528,1.169,2.277,1.776c0.38,0.295,0.742,0.62,1.109,0.935c0.366,0.316,0.732,0.628,1.093,0.985
				c0.356,0.346,0.737,0.691,1.072,1.04l0.946,1.058l0.059,0.066l0.015,0.016l0.037,0.045l0.007,0.01l0.028,0.038l0.109,0.152
				l0.219,0.304l0.436,0.607c0.308,0.402,0.514,0.831,0.775,1.244c0.254,0.416,0.495,0.835,0.711,1.261
				c0.221,0.425,0.457,0.846,0.666,1.274l0.625,1.286l0.584,1.3c0.198,0.432,0.373,0.873,0.561,1.309l0.536,1.326l-0.127-0.217
				l1.587,2.058c0.536,0.683,1.05,1.373,1.561,2.063l1.542,2.068l0.773,1.033c0.131,0.179,0.253,0.329,0.391,0.532l0.355,0.54
				l5.674,8.632l-0.63-0.262c0.774-0.123,1.484-0.143,2.228-0.123c0.736,0.021,1.473,0.109,2.197,0.275
				c0.726,0.152,1.436,0.402,2.11,0.724c0.335,0.168,0.667,0.34,0.973,0.558c0.318,0.189,0.613,0.449,0.907,0.698
				c0.158,0.124,0.269,0.252,0.388,0.379l0.357,0.381c0.262,0.316,0.445,0.566,0.669,0.854c0.421,0.563,0.878,1.1,1.254,1.692
				c0.386,0.585,0.801,1.152,1.162,1.751c0.355,0.603,0.721,1.198,1.066,1.806l0.968,1.855l0.867,1.899
				c0.255,0.646,0.526,1.286,0.766,1.936c0.22,0.657,0.476,1.302,0.666,1.968c0.203,0.662,0.404,1.323,0.567,1.995
				c0.184,0.666,0.318,1.343,0.468,2.016c0.129,0.678,0.252,1.355,0.347,2.038c0.09,0.683,0.176,1.365,0.205,2.055L3178.918,221.37z
				"/>
		</g>
		<path fill="none" stroke="#1D4386" stroke-width="0.944" stroke-miterlimit="10" d="M3242.483,316.953
			c0,0-24.495-38.931-31.398-49.308c-6.903-10.377-8.548-7.201-15.087-25.315c-6.539-18.114-16.985-20.964-16.985-20.964"/>
		<g>
			<path fill="#275FAF" d="M2900.631,323.258c0.848-1.122,1.799-2.189,2.782-3.209c0.976-1.029,1.987-2.021,2.992-3.021
				c1.02-0.984,2.03-1.979,3.061-2.951c1.024-0.98,2.06-1.948,3.103-2.907l6.271-5.745c2.101-1.903,4.19-3.818,6.306-5.704
				l6.317-5.685c1.047-0.952,2.092-1.906,3.123-2.871c0.507-0.484,1.046-0.962,1.528-1.452l1.51-1.493
				c1.026-0.984,1.965-2.018,2.931-3.036c0.967-1.013,1.886-2.082,2.834-3.119c0.906-1.072,1.834-2.128,2.703-3.229
				c0.887-1.084,1.739-2.208,2.547-3.327l0.135-0.187l0.205-0.05c2.246-0.543,4.478-0.932,6.739-1.257
				c2.257-0.32,4.519-0.588,6.789-0.787c4.538-0.414,9.097-0.573,13.652-0.546c4.555,0.046,9.111,0.214,13.648,0.645
				c4.535,0.443,9.057,1.031,13.547,1.824l3.359,0.641c1.118,0.222,2.226,0.492,3.34,0.733l1.671,0.367l1.658,0.419
				c1.104,0.286,2.216,0.544,3.313,0.853c2.189,0.637,4.391,1.241,6.549,1.983c2.181,0.675,4.314,1.484,6.458,2.27
				c0.539,0.19,1.069,0.398,1.595,0.62l1.583,0.649l1.584,0.649c0.531,0.211,1.056,0.433,1.571,0.679
				c2.069,0.961,4.166,1.869,6.182,2.936l3.048,1.555l2.986,1.668c0.998,0.551,1.993,1.11,2.953,1.723l2.909,1.796l0.727,0.449
				c0.26,0.164,0.478,0.317,0.719,0.476l1.412,0.946l2.825,1.891c0.95,0.615,1.865,1.298,2.791,1.96l2.773,1.996
				c0.936,0.652,1.815,1.369,2.719,2.06l2.696,2.088c1.774,1.419,3.492,2.907,5.228,4.371l2.52,2.291
				c0.837,0.767,1.692,1.515,2.489,2.323c1.616,1.592,3.26,3.158,4.787,4.833c3.139,3.272,6.054,6.75,8.771,10.365l1.993,2.743
				l1.88,2.818c0.644,0.928,1.199,1.911,1.791,2.871l0.877,1.446l0.817,1.48c2.19,3.936,4.097,8.026,5.596,12.254
				c1.502,4.224,2.653,8.566,3.327,12.977c0.322,2.207,0.523,4.428,0.59,6.65c0.054,2.221,0.005,4.448-0.348,6.646l-0.141-0.025
				c0.271-2.185,0.243-4.408,0.112-6.609c-0.144-2.204-0.42-4.399-0.817-6.574c-0.796-4.349-2.023-8.621-3.613-12.76
				c-1.598-4.137-3.533-8.149-5.751-12.007l-0.828-1.449l-0.887-1.416c-0.599-0.94-1.161-1.901-1.81-2.81l-1.897-2.756l-2.009-2.681
				c-2.748-3.523-5.599-6.978-8.727-10.197c-1.515-1.653-3.147-3.198-4.751-4.768c-0.79-0.797-1.64-1.535-2.471-2.292l-2.501-2.261
				c-1.724-1.447-3.436-2.907-5.176-4.335l-2.656-2.091c-0.89-0.691-1.758-1.412-2.677-2.062l-2.725-1.996
				c-0.911-0.663-1.806-1.342-2.754-1.968l-2.81-1.913l-1.405-0.957c-0.231-0.155-0.476-0.329-0.695-0.469l-0.717-0.45
				c-1.92-1.185-3.796-2.444-5.775-3.535l-2.935-1.694l-2.999-1.583c-1.984-1.086-4.05-2.013-6.088-2.996
				c-1.016-0.499-2.071-0.915-3.104-1.377l-1.558-0.677c-0.517-0.231-1.04-0.45-1.57-0.649c-2.11-0.824-4.213-1.673-6.366-2.389
				c-2.131-0.779-4.309-1.417-6.476-2.091c-4.362-1.254-8.774-2.358-13.246-3.168c-4.468-0.816-8.971-1.463-13.499-1.834
				c-4.525-0.371-9.067-0.557-13.601-0.48c-4.533,0.075-9.06,0.34-13.553,0.848c-4.485,0.504-8.975,1.22-13.312,2.251l0.34-0.237
				c-0.833,1.173-1.679,2.303-2.571,3.412c-0.872,1.121-1.802,2.195-2.711,3.286l-1.415,1.594c-0.467,0.535-0.944,1.062-1.446,1.571
				c-0.99,1.025-1.964,2.075-2.991,3.044l-1.523,1.48c-0.516,0.514-1.044,0.972-1.565,1.461c-1.047,0.962-2.103,1.909-3.161,2.855
				l-6.375,5.635l-6.416,5.585l-6.394,5.605l-3.178,2.821c-1.064,0.936-2.106,1.893-3.158,2.842
				c-1.036,0.963-2.08,1.919-3.087,2.911c-1.017,0.982-2.004,1.979-2.908,3.072L2900.631,323.258z"/>
		</g>
		<g>
			<path fill="#1D4386" d="M3109.061,136.477c0,0-0.81,0.479-2.229,1.319c-1.414,0.84-3.433,2.04-5.856,3.48
				c-1.209,0.72-2.505,1.522-3.879,2.363c-1.373,0.842-2.838,1.706-4.303,2.676c-1.473,0.957-2.948,2.023-4.316,3.246
				c-1.356,1.218-2.671,2.602-3.455,4.224c-0.375,0.801-0.566,1.707-0.251,2.451c0.068,0.176,0.185,0.383,0.283,0.501
				c0.154,0.166,0.301,0.383,0.46,0.507c0.169,0.109,0.291,0.248,0.482,0.343c0.193,0.087,0.363,0.211,0.569,0.271
				c0.794,0.3,1.686,0.385,2.563,0.339c0.878-0.041,1.751-0.163,2.598-0.359c1.7-0.367,3.308-0.91,4.82-1.457
				c1.508-0.561,2.919-1.138,4.21-1.703c1.29-0.566,2.455-1.126,3.494-1.613c1.036-0.492,1.924-0.95,2.664-1.316
				c1.473-0.74,2.305-1.184,2.305-1.184l0.052,0.079c0,0-0.766,0.549-2.164,1.427c-0.697,0.443-1.562,0.95-2.56,1.525
				c-0.997,0.578-2.148,1.184-3.424,1.815c-1.275,0.631-2.676,1.285-4.208,1.875c-1.528,0.598-3.185,1.148-4.975,1.495
				c-0.891,0.183-1.823,0.292-2.78,0.313c-0.952,0.019-1.961-0.077-2.913-0.48c-0.241-0.084-0.457-0.243-0.685-0.363
				c-0.226-0.126-0.427-0.339-0.634-0.51c-0.196-0.182-0.302-0.368-0.459-0.552c-0.186-0.254-0.282-0.467-0.376-0.727
				c-0.17-0.506-0.174-1.046-0.071-1.536c0.102-0.493,0.297-0.947,0.527-1.37c0.459-0.85,1.075-1.579,1.714-2.266
				c0.641-0.686,1.322-1.326,2.014-1.94c1.387-1.226,2.813-2.359,4.208-3.442c1.406-1.068,2.787-2.077,4.149-2.957
				c1.36-0.883,2.688-1.653,3.917-2.356c2.469-1.389,4.585-2.444,6.085-3.143c1.5-0.7,2.378-1.058,2.378-1.058L3109.061,136.477z"/>
		</g>
		<g>
			<path fill="#1D4386" d="M3116.498,146.778c0,0,0.064,0.285,0.128,0.829c0.067,0.543,0.118,1.344,0.12,2.363
				c0.008,1.021-0.081,2.256-0.249,3.667c-0.115,0.7-0.216,1.45-0.37,2.231c-0.183,0.774-0.333,1.6-0.567,2.442
				c-0.461,1.685-1.036,3.491-1.802,5.341c-0.758,1.853-1.73,3.731-2.783,5.637c-0.552,0.939-1.113,1.894-1.68,2.86
				c-0.609,0.942-1.205,1.905-1.806,2.878c-1.284,1.885-2.534,3.861-3.928,5.715l-1.017,1.412c-0.352,0.463-0.719,0.916-1.078,1.373
				c-0.738,0.898-1.435,1.83-2.21,2.678c-0.766,0.857-1.509,1.724-2.288,2.54c-0.787,0.81-1.564,1.61-2.328,2.396
				c-0.799,0.754-1.584,1.495-2.354,2.221c-0.79,0.704-1.581,1.374-2.348,2.027c-0.779,0.641-1.553,1.246-2.302,1.831
				c-0.754,0.578-1.51,1.102-2.22,1.623c-1.443,1.015-2.792,1.909-4.025,2.645c-1.232,0.736-2.32,1.356-3.238,1.828
				c-0.919,0.47-1.651,0.819-2.156,1.046c-0.508,0.221-0.783,0.33-0.783,0.33l-0.04-0.085c0,0,0.26-0.135,0.739-0.403
				c0.479-0.269,1.177-0.67,2.046-1.21c0.866-0.544,1.917-1.204,3.087-2.01c1.166-0.812,2.474-1.736,3.863-2.792
				c0.684-0.541,1.411-1.087,2.135-1.685c0.716-0.608,1.481-1.206,2.237-1.856c0.75-0.657,1.52-1.332,2.307-2.023
				c0.768-0.711,1.552-1.437,2.35-2.176c0.773-0.763,1.559-1.539,2.355-2.325c0.792-0.79,1.536-1.641,2.325-2.465
				c0.802-0.815,1.519-1.707,2.284-2.57l1.144-1.302l1.094-1.356c1.49-1.79,2.825-3.669,4.103-5.561
				c0.597-0.969,1.19-1.931,1.755-2.891c0.547-0.971,1.021-1.965,1.519-2.925c0.492-0.962,0.885-1.951,1.32-2.893
				c0.221-0.47,0.407-0.948,0.585-1.422c0.187-0.47,0.372-0.935,0.555-1.393c0.715-1.838,1.321-3.6,1.799-5.251
				c0.252-0.822,0.428-1.626,0.632-2.383c0.162-0.766,0.316-1.493,0.46-2.176c0.101-0.69,0.224-1.334,0.301-1.933
				c0.06-0.601,0.149-1.152,0.177-1.653c0.089-1.001,0.102-1.794,0.09-2.333c-0.001-0.539-0.032-0.827-0.032-0.827L3116.498,146.778
				z"/>
		</g>
		<g>
			<path fill="#1D4386" d="M3125.295,154.388c0,0-0.235,1.162-0.688,3.185c-0.211,1.015-0.535,2.231-0.893,3.632
				c-0.183,0.699-0.363,1.448-0.583,2.228c-0.23,0.778-0.472,1.595-0.724,2.448c-0.258,0.851-0.507,1.744-0.8,2.657
				c-0.294,0.913-0.619,1.851-0.949,2.815c-0.172,0.48-0.336,0.97-0.521,1.46c-0.193,0.487-0.388,0.979-0.585,1.478
				c-0.399,0.994-0.79,2.016-1.219,3.042c-0.896,2.039-1.755,4.169-2.706,6.302c-0.459,1.073-0.9,2.165-1.415,3.229
				c-0.483,1.08-0.968,2.163-1.453,3.247c-0.522,1.068-1.043,2.136-1.562,3.2c-0.511,1.07-1.105,2.091-1.665,3.12
				c-1.102,2.07-2.366,4.006-3.534,5.914c-0.609,0.938-1.255,1.831-1.867,2.717c-0.308,0.442-0.613,0.879-0.915,1.311
				c-0.325,0.416-0.646,0.826-0.962,1.231c-0.637,0.806-1.257,1.59-1.856,2.349c-0.619,0.744-1.26,1.428-1.851,2.102
				c-0.602,0.666-1.159,1.321-1.725,1.913c-0.574,0.585-1.134,1.125-1.653,1.639c-0.52,0.512-1.006,0.991-1.456,1.434
				c-0.46,0.432-0.906,0.807-1.302,1.151c-1.587,1.373-2.503,2.142-2.503,2.142l-0.065-0.07c0,0,0.836-0.851,2.299-2.34
				c0.361-0.376,0.782-0.77,1.214-1.226c0.42-0.465,0.875-0.969,1.36-1.507c0.487-0.536,0.996-1.113,1.55-1.706
				c0.539-0.606,1.067-1.276,1.639-1.957c0.562-0.689,1.171-1.387,1.756-2.145c0.578-0.763,1.176-1.551,1.79-2.363
				c0.306-0.406,0.617-0.817,0.932-1.233c0.299-0.427,0.602-0.86,0.908-1.297c0.612-0.874,1.238-1.767,1.875-2.675
				c1.198-1.865,2.482-3.766,3.632-5.791c1.227-1.982,2.323-4.078,3.492-6.14c0.534-1.057,1.068-2.113,1.6-3.166
				c0.532-1.053,0.99-2.135,1.468-3.198c0.967-2.122,1.741-4.282,2.496-6.367c0.708-2.102,1.396-4.131,2.012-6.066
				c0.628-1.931,1.265-3.743,1.791-5.436c0.27-0.844,0.529-1.653,0.776-2.423c0.225-0.776,0.467-1.503,0.681-2.191
				c0.442-1.371,0.804-2.575,1.108-3.567c0.611-1.981,0.984-3.107,0.984-3.107L3125.295,154.388z"/>
		</g>
		<g>
			<path fill="#1D4386" d="M3129.393,157.336c-0.372,1.608-0.782,3.207-1.187,4.807c-0.4,1.602-0.847,3.19-1.273,4.785
				c-0.44,1.59-0.863,3.187-1.333,4.768l-1.405,4.748c-0.481,1.579-0.939,3.166-1.456,4.734c-0.498,1.574-1.016,3.142-1.557,4.703
				c-0.538,1.562-1.095,3.117-1.669,4.666c-0.558,1.555-1.148,3.098-1.747,4.638c-0.581,1.546-1.21,3.075-1.816,4.612
				c-0.292,0.772-0.626,1.529-0.951,2.29c-0.324,0.76-0.625,1.53-0.966,2.284l-1.055,2.249c-0.09,0.187-0.173,0.377-0.267,0.561
				l-0.304,0.544l-0.599,1.094c-0.375,0.746-0.862,1.427-1.304,2.122l-1.352,2.083c-0.918,1.379-1.917,2.715-2.874,4.077
				c-1.031,1.305-2.026,2.639-3.095,3.916l-1.607,1.912c-0.545,0.63-1.109,1.245-1.662,1.868c-1.119,1.24-2.263,2.445-3.463,3.63
				l-0.698-0.669c1.138-1.176,2.297-2.311,3.492-3.419c1.189-1.112,2.407-2.194,3.647-3.253c0.631-0.518,1.251-1.047,1.89-1.556
				c0.644-0.503,1.27-1.026,1.93-1.51c0.654-0.491,1.305-0.985,1.982-1.447c0.67-0.471,1.341-0.941,2.037-1.378l1.033-0.668
				l1.064-0.626c0.699-0.432,1.436-0.806,2.169-1.185l0.549-0.285l0.569-0.251l1.141-0.492c0.773-0.309,1.538-0.577,2.308-0.868
				l1.153-0.428l1.172-0.395c0.781-0.264,1.558-0.534,2.356-0.748l1.188-0.341l1.212-0.285c0.809-0.167,1.451-0.388,2.48-0.297
				l-0.02,0.091c-1.038-0.05-1.615,0.233-2.398,0.435l-1.18,0.343l-1.162,0.397c-0.777,0.255-1.536,0.557-2.301,0.843l-1.145,0.433
				l-1.135,0.47c-0.752,0.316-1.524,0.62-2.259,0.946l-1.094,0.521l-0.548,0.258l-0.531,0.292c-0.709,0.387-1.421,0.77-2.1,1.21
				l-1.03,0.638l-1.003,0.682c-0.674,0.445-1.326,0.924-1.976,1.404c-0.659,0.468-1.285,0.979-1.928,1.468
				c-0.647,0.485-1.261,1.011-1.893,1.514c-0.627,0.51-1.236,1.041-1.854,1.56l-1.821,1.599c-0.602,0.539-1.203,1.078-1.792,1.63
				c-0.595,0.546-1.176,1.106-1.762,1.661c-0.582,0.557-1.163,1.122-1.724,1.69l-0.698-0.669c1.182-1.138,2.343-2.329,3.465-3.541
				c0.557-0.611,1.125-1.214,1.674-1.832l1.631-1.87c1.09-1.245,2.11-2.546,3.165-3.821c0.994-1.316,2.029-2.602,2.993-3.947
				l1.417-2.04c0.467-0.688,0.967-1.343,1.357-2.065l0.621-1.065l0.306-0.535c0.096-0.182,0.181-0.37,0.272-0.554l1.075-2.225
				c0.666-1.507,1.33-3.018,1.917-4.559c0.583-1.542,1.184-3.078,1.7-4.645c0.539-1.558,1.068-3.119,1.567-4.691l0.763-2.352
				l0.734-2.361l2.993-9.427l5.879-18.899L3129.393,157.336z"/>
		</g>
		<g>
			<path fill="#1D4386" d="M3144.553,177.111c0,0-0.013,0.4-0.093,1.088c-0.039,0.344-0.091,0.761-0.167,1.235
				c-0.069,0.476-0.164,1.007-0.303,1.586c-0.143,0.576-0.29,1.203-0.49,1.855c-0.189,0.654-0.503,1.308-0.778,1.997
				c-0.282,0.687-0.571,1.395-0.834,2.126c-0.259,0.731-0.472,1.493-0.725,2.243c-0.118,0.379-0.237,0.758-0.355,1.135
				c-0.138,0.37-0.279,0.738-0.428,1.099c-0.284,0.729-0.625,1.421-0.941,2.098c-0.149,0.343-0.337,0.66-0.512,0.975
				c-0.175,0.315-0.346,0.623-0.535,0.912c-0.377,0.577-0.736,1.119-1.113,1.591c-0.362,0.48-0.735,0.894-1.062,1.258
				c-0.345,0.353-0.646,0.656-0.921,0.882c-0.536,0.464-0.891,0.673-0.891,0.673l-0.061-0.073c0,0,0.065-0.072,0.181-0.217
				c0.115-0.145,0.29-0.35,0.486-0.633c0.206-0.274,0.435-0.623,0.708-1.01c0.252-0.405,0.558-0.842,0.85-1.349
				c0.318-0.488,0.614-1.048,0.959-1.619c0.311-0.591,0.677-1.193,1.025-1.836c0.351-0.641,0.721-1.3,1.052-1.995
				c0.172-0.344,0.353-0.688,0.54-1.032c0.176-0.349,0.353-0.7,0.53-1.051c0.172-0.354,0.344-0.708,0.515-1.06
				c0.149-0.361,0.292-0.724,0.423-1.088c0.129-0.364,0.257-0.725,0.362-1.089c0.106-0.363,0.174-0.735,0.256-1.094
				c0.152-0.722,0.308-1.416,0.461-2.07c0.155-0.653,0.342-1.259,0.508-1.822c0.186-0.556,0.326-1.079,0.472-1.538
				c0.14-0.46,0.277-0.857,0.393-1.183c0.231-0.653,0.395-1.018,0.395-1.018L3144.553,177.111z"/>
		</g>
		<g>
			<path fill="#1D4386" d="M3148.032,185.954c0,0-0.097,0.844-0.309,2.313c-0.116,0.733-0.323,1.616-0.545,2.633
				c-0.215,1.021-0.566,2.132-0.902,3.366c-0.363,1.223-0.814,2.53-1.298,3.909c-0.261,0.683-0.55,1.377-0.85,2.083
				c-0.305,0.705-0.586,1.436-0.93,2.156c-0.685,1.442-1.311,2.962-2.014,4.479c-0.342,0.763-0.673,1.537-1.006,2.315
				c-0.35,0.772-0.701,1.546-1.052,2.32c-0.679,1.569-1.437,3.073-2.095,4.599c-0.671,1.518-1.299,3.025-1.772,4.513
				c-0.23,0.744-0.442,1.478-0.573,2.196c-0.065,0.358-0.109,0.713-0.118,1.052c-0.018,0.34,0.007,0.668,0.088,0.939
				c0.08,0.278,0.218,0.465,0.411,0.577c0.191,0.12,0.471,0.161,0.769,0.154c0.603-0.017,1.235-0.218,1.813-0.436
				c1.167-0.456,2.189-1.041,3.092-1.552c0.901-0.521,1.657-1.024,2.288-1.431c1.253-0.824,1.95-1.327,1.95-1.327l0.063,0.071
				c0,0-0.616,0.598-1.781,1.553c-0.581,0.48-1.311,1.032-2.176,1.639c-0.866,0.606-1.88,1.245-3.101,1.796
				c-0.617,0.263-1.279,0.528-2.087,0.598c-0.398,0.031-0.866,0-1.31-0.247c-0.45-0.239-0.757-0.694-0.883-1.116
				c-0.262-0.86-0.161-1.67-0.024-2.454c0.146-0.785,0.367-1.557,0.636-2.32c0.539-1.526,1.21-3.041,1.948-4.551
				c0.373-0.752,0.766-1.502,1.165-2.253c0.417-0.737,0.828-1.483,1.227-2.227c0.4-0.747,0.799-1.495,1.198-2.239
				c0.365-0.76,0.719-1.523,1.063-2.283c0.711-1.51,1.258-3.059,1.801-4.55c0.534-1.494,0.976-2.964,1.468-4.33
				c0.44-1.383,0.929-2.667,1.313-3.873c0.38-1.205,0.776-2.304,1.062-3.286c0.296-0.984,0.555-1.843,0.769-2.55
				c0.373-1.437,0.609-2.254,0.609-2.254L3148.032,185.954z"/>
		</g>
		<g>
			<path fill="#1D4386" d="M3176.51,225.157l0.637,1.087c0.172,0.385,0.328,0.783,0.493,1.178l0.343,1.226
				c0.067,0.417,0.133,0.837,0.183,1.258c0.017,0.421,0.049,0.844,0.052,1.266c-0.018,0.42-0.019,0.844-0.052,1.263
				c-0.072,0.838-0.174,1.672-0.331,2.493c-0.305,1.643-0.705,3.254-1.023,4.867c-0.155,0.807-0.293,1.613-0.414,2.419l-0.13,1.212
				l-0.06,1.213l-0.003,0.071l-0.016,0.051c-0.377,1.199-0.812,2.383-1.172,3.591c-0.337,1.215-0.728,2.416-1.023,3.644
				c-0.308,1.224-0.615,2.451-0.865,3.69c-0.275,1.234-0.499,2.478-0.74,3.719l-0.695,3.732c-0.219,1.246-0.485,2.486-0.722,3.731
				c-0.25,1.244-0.563,2.472-0.85,3.713l-0.966,3.669l-0.979,3.666c-0.171,0.609-0.318,1.223-0.455,1.839l-0.438,1.841l-0.897,3.677
				l-0.922,3.677l-0.944,3.677c-0.324,1.224-0.603,2.456-0.986,3.667c-0.717,2.431-1.446,4.857-2.216,7.267l-0.092-0.026
				c0.535-2.477,1.111-4.938,1.699-7.393c0.152-0.612,0.286-1.23,0.416-1.849l0.408-1.852l0.815-3.703
				c0.264-1.235,0.562-2.465,0.848-3.701l0.885-3.698c0.307-1.229,0.58-2.47,0.944-3.68l1.05-3.646l1.063-3.642l0.99-3.646
				c0.3-1.226,0.63-2.445,0.9-3.68c0.283-1.232,0.569-2.463,0.818-3.703c0.25-1.239,0.531-2.473,0.775-3.715l0.761-3.72
				c0.228-1.247,0.551-2.474,0.824-3.713c0.302-1.232,0.658-2.454,1.001-3.679l-0.019,0.121l0.026-1.273l0.122-1.261l0.19-1.246
				l0.251-1.23c0.358-1.631,0.79-3.229,1.124-4.838l0.235-1.207c0.076-0.403,0.125-0.807,0.19-1.211
				c0.052-0.405,0.074-0.811,0.113-1.218c0.018-0.406,0.008-0.813,0.013-1.221l-0.103-1.218l-0.235-1.204
				c-0.128-0.386-0.245-0.778-0.382-1.168l-0.524-1.142L3176.51,225.157z"/>
		</g>
		<g>
			<path fill="#1D4386" d="M3160.865,200.625c-0.009,0.694-0.056,1.381-0.118,2.066c-0.062,0.685-0.142,1.366-0.234,2.046
				c-0.056,0.34-0.127,0.676-0.189,1.015c-0.061,0.339-0.134,0.676-0.21,1.012c-0.148,0.673-0.349,1.335-0.544,1.996
				c-0.205,0.657-0.435,1.308-0.614,1.97c-0.179,0.663-0.338,1.329-0.469,2.003c-0.137,0.672-0.25,1.35-0.366,2.027
				c-0.113,0.678-0.225,1.356-0.367,2.027l-0.386-0.504l2.991,0.216c0.988,0.157,1.973,0.348,2.951,0.553
				c0.96,0.288,1.916,0.588,2.857,0.914l1.366,0.617c0.447,0.222,0.899,0.428,1.335,0.661l-0.037,0.086
				c-0.49-0.104-0.966-0.236-1.446-0.352l-1.416-0.394c-0.966-0.184-1.917-0.396-2.864-0.618c-0.964-0.146-1.922-0.308-2.877-0.502
				l-2.901-0.371l-0.508-0.065l0.122-0.439c0.184-0.661,0.398-1.314,0.611-1.967c0.209-0.655,0.423-1.308,0.611-1.967
				c0.184-0.66,0.34-1.327,0.476-1.999c0.135-0.672,0.221-1.355,0.331-2.032c0.088-0.68,0.172-1.359,0.308-2.027
				c0.066-0.334,0.135-0.668,0.216-1c0.079-0.332,0.15-0.665,0.237-0.996c0.282-1.342,0.602-2.678,1.04-3.993L3160.865,200.625z"/>
		</g>
		<g>
			<path fill="#1D4386" d="M3191.315,255.453c0,0-0.173,0.544-0.513,1.479c-0.163,0.47-0.329,1.044-0.554,1.689
				c-0.204,0.652-0.421,1.396-0.66,2.202c-0.208,0.816-0.472,1.689-0.689,2.629c-0.115,0.468-0.264,0.943-0.388,1.436
				c-0.12,0.494-0.243,0.999-0.368,1.513c-0.13,0.514-0.217,1.045-0.308,1.583c-0.098,0.537-0.167,1.085-0.2,1.64
				c-0.039,0.555-0.08,1.115-0.092,1.677c0.012,0.563,0.025,1.129,0.038,1.694c0.003,0.564,0.075,1.129,0.114,1.689
				c0.047,0.56,0.062,1.118,0.135,1.669c0.057,0.551,0.113,1.098,0.169,1.638c0.057,0.54,0.162,1.068,0.238,1.59
				c0.094,0.52,0.138,1.036,0.251,1.533c0.103,0.497,0.192,0.986,0.275,1.462c0.072,0.479,0.193,0.935,0.293,1.379
				c0.1,0.445,0.197,0.875,0.289,1.288c0.182,0.828,0.425,1.567,0.582,2.241c0.154,0.676,0.371,1.24,0.509,1.718
				c0.292,0.953,0.446,1.508,0.446,1.508l-0.088,0.036c0,0-0.269-0.507-0.714-1.415c-0.224-0.453-0.496-1.005-0.74-1.662
				c-0.252-0.654-0.562-1.389-0.818-2.214c-0.229-0.831-0.543-1.721-0.735-2.691c-0.208-0.967-0.43-1.989-0.531-3.063
				c-0.055-0.536-0.139-1.077-0.173-1.63c-0.032-0.552-0.064-1.111-0.096-1.675c-0.045-0.563-0.014-1.132-0.007-1.702
				c0.024-0.57,0.017-1.141,0.079-1.71c0.043-0.569,0.087-1.137,0.13-1.703c0.053-0.564,0.105-1.126,0.157-1.684
				c0.022-0.279,0.044-0.557,0.066-0.833c0.034-0.275,0.064-0.549,0.086-0.823c0.063-0.545,0.069-1.093,0.139-1.622
				c0.126-1.062,0.225-2.098,0.448-3.057c0.18-0.968,0.49-1.849,0.728-2.673c0.293-0.808,0.557-1.548,0.841-2.188
				c0.294-0.637,0.544-1.195,0.786-1.63c0.49-0.868,0.792-1.355,0.792-1.355L3191.315,255.453z"/>
		</g>
		<g>
			<path fill="#1D4386" d="M3067.601,286.14c0,0,1.13,0.988,3.077,2.747c0.979,0.875,2.14,1.962,3.487,3.196
				c1.353,1.228,2.844,2.648,4.47,4.199c1.629,1.548,3.398,3.219,5.231,5.026c1.836,1.804,3.73,3.745,5.708,5.735
				c1.968,2,4.019,4.052,6.163,6.076c1.073,1.011,2.155,2.03,3.241,3.052c1.098,1.011,2.2,2.025,3.303,3.04
				c1.116,1,2.232,2.001,3.344,2.997c1.104,1.004,2.203,2.004,3.294,2.996c2.162,2.005,4.339,3.925,6.432,5.796
				c2.104,1.861,4.084,3.717,6.023,5.41c1.935,1.697,3.745,3.324,5.418,4.824c0.838,0.748,1.641,1.465,2.405,2.147
				c0.775,0.669,1.51,1.305,2.201,1.901c1.377,1.199,2.579,2.245,3.568,3.107c1.963,1.742,3.085,2.738,3.085,2.738l-0.061,0.072
				c0,0-1.189-0.919-3.268-2.526c-1.032-0.814-2.287-1.801-3.725-2.934c-0.717-0.57-1.48-1.176-2.284-1.815
				c-0.784-0.662-1.609-1.357-2.469-2.083c-1.719-1.453-3.583-3.028-5.535-4.715c-0.488-0.421-0.983-0.849-1.484-1.281
				c-0.49-0.445-0.985-0.894-1.487-1.349c-0.999-0.912-2.02-1.845-3.058-2.793c-2.063-1.909-4.219-3.857-6.339-5.908
				c-1.063-1.022-2.135-2.052-3.211-3.087c-1.068-1.041-2.141-2.087-3.213-3.133c-1.064-1.053-2.128-2.107-3.188-3.156
				c-1.072-1.037-2.14-2.07-3.199-3.096c-2.131-2.037-4.244-4.027-6.316-5.926c-2.059-1.911-4.074-3.737-5.935-5.514
				c-1.866-1.772-3.594-3.485-5.193-5.06c-1.597-1.577-3.074-3.012-4.357-4.309c-1.286-1.294-2.419-2.411-3.331-3.351
				c-1.833-1.872-2.864-2.958-2.864-2.958L3067.601,286.14z"/>
		</g>
		<g>
			<path fill="#1D4386" d="M3049.869,281.275c0,0,1.827,1.247,4.964,3.51c1.574,1.124,3.454,2.53,5.617,4.134
				c2.163,1.604,4.573,3.453,7.187,5.488c1.304,1.021,2.663,2.084,4.07,3.184c1.401,1.107,2.829,2.275,4.298,3.477
				c2.952,2.385,5.975,5.004,9.106,7.705c3.121,2.714,6.338,5.525,9.589,8.401c1.63,1.434,3.271,2.881,4.895,4.358
				c1.649,1.452,3.269,2.947,4.896,4.435c3.25,2.981,6.413,6.056,9.426,9.18c3.012,3.124,5.849,6.324,8.392,9.586
				c0.655,0.8,1.244,1.643,1.836,2.468c0.609,0.814,1.135,1.674,1.672,2.514c0.56,0.825,1.01,1.707,1.482,2.561
				c0.491,0.851,0.864,1.723,1.285,2.559c1.646,3.367,3.166,6.566,4.569,9.52c0.698,1.479,1.387,2.885,2.005,4.242
				c0.603,1.364,1.176,2.657,1.714,3.872c0.535,1.216,1.037,2.354,1.5,3.406c0.464,1.052,0.899,2.014,1.236,2.907
				c0.703,1.771,1.255,3.163,1.632,4.112c0.342,0.962,0.525,1.475,0.525,1.475l-0.091,0.028c0,0-0.206-0.503-0.592-1.445
				c-0.421-0.93-1.038-2.294-1.822-4.03c-0.78-1.737-1.813-3.812-2.951-6.209c-0.572-1.197-1.18-2.471-1.821-3.814
				c-0.644-1.342-1.362-2.738-2.089-4.203c-1.466-2.925-3.055-6.093-4.696-9.462c-0.425-0.836-0.803-1.711-1.281-2.526
				c-0.464-0.829-0.902-1.683-1.457-2.492c-0.53-0.821-1.048-1.661-1.653-2.462c-0.594-0.807-1.148-1.651-1.793-2.447
				c-2.474-3.253-5.266-6.457-8.218-9.608c-0.722-0.802-1.483-1.576-2.233-2.364c-0.75-0.788-1.506-1.576-2.282-2.348
				c-1.525-1.57-3.088-3.115-4.658-4.657c-1.586-1.524-3.164-3.059-4.775-4.547c-1.609-1.491-3.235-2.951-4.849-4.398
				c-3.263-2.858-6.506-5.639-9.726-8.235c-1.608-1.299-3.19-2.577-4.738-3.828c-1.553-1.244-3.073-2.462-4.552-3.646
				c-2.959-2.369-5.757-4.609-8.339-6.676c-2.594-2.054-4.973-3.936-7.08-5.605c-2.115-1.661-3.958-3.11-5.477-4.302
				c-3.04-2.383-4.778-3.744-4.778-3.744L3049.869,281.275z"/>
		</g>
	</g>
</g>
<g id="_x34_QcrKn_1_">
	<g>
		<path fill="#CCDDF1" d="M3154.649,69.765c0-4.033,0-8.066,0-12.1c0.262-1.215,0.547-2.426,0.783-3.645
			c3.545-18.288,14.012-31.14,30.745-39.01c6.056-2.848,12.558-3.998,19.175-4.59c32.842,0,65.684,0,98.525,0
			c0.659,0.11,1.313,0.266,1.977,0.322c16.358,1.393,29.267,8.888,39.013,22.006c5.514,7.422,8.235,15.926,9.713,24.918
			c0,4.033,0,8.066,0,12.1c-0.112,0.464-0.253,0.923-0.333,1.393c-2.81,16.658-11.252,29.533-25.799,38.258
			c-1.948,1.169-1.397,1.774,0.143,2.682c5.588,3.296,10.384,7.508,14.465,12.565c6.505,8.06,10.041,17.342,11.524,27.495
			c0,3.841,0,7.682,0,11.523c-0.152,0.846-0.293,1.695-0.457,2.538c-4.104,21.113-16.041,35.847-36.614,42.296
			c-20.333,6.374-38.417,1.331-53.72-13.543c-0.784-0.762-1.32-1.896-2.742-2.104c-0.549,1.201-0.341,2.453-0.342,3.66
			c-0.014,18.515,0.329,37.038-0.098,55.543c-0.51,22.078-10.848,38.324-30.693,48.268c-6.431,3.223-13.413,4.491-20.53,5.081
			c-1.152,0-2.305,0-3.457,0c-0.563-0.104-1.122-0.27-1.689-0.304c-15.059-0.912-27.425-7.276-37.208-18.634
			c-7.006-8.134-10.825-17.747-12.382-28.308c0-3.841,0-7.682,0-11.523c2.556-17.536,10.983-31.244,26.378-40.386
			c1.673-0.994,1.13-1.621-0.158-2.367c-3.752-2.171-7.169-4.793-10.27-7.818c-9.291-9.065-14.329-20.196-15.95-32.975
			c0-3.457,0-6.914,0-10.371c2.313-17.732,10.88-31.457,26.231-40.79c2.207-1.342,0.897-1.909-0.362-2.661
			c-8.867-5.297-15.643-12.527-20.336-21.753C3157.321,81.907,3155.78,75.909,3154.649,69.765z M3248.529,157.9
			c0-12.568-0.01-25.137,0.01-37.705c0.003-1.992-0.131-3.635-2.832-3.584c-13.999,0.268-28.018-0.609-41.999,0.46
			c-24.524,1.875-41.944,25.836-36.384,49.85c4.493,19.404,20.923,32.115,41.869,32.272c11.8,0.088,23.602,0.024,35.402,0.015
			c3.717-0.003,3.925-0.196,3.929-3.892C3248.54,182.844,3248.531,170.372,3248.529,157.9z M3248.527,63.59
			c0-12.472-0.047-24.944,0.037-37.416c0.018-2.701-0.929-3.778-3.682-3.76c-12.663,0.085-25.332-0.178-37.99,0.096
			c-21.492,0.465-39.183,17.138-40.463,37.78c-1.514,24.423,16.903,44.221,41.409,44.41c12.279,0.094,24.56,0.027,36.84,0.013
			c3.657-0.004,3.843-0.199,3.847-3.996C3248.54,88.342,3248.531,75.966,3248.527,63.59z M3260.699,63.414
			c0,12.472-0.01,24.943,0.006,37.415c0.005,3.664,0.234,3.882,3.957,3.886c12.184,0.012,24.368,0.036,36.551-0.009
			c7.124-0.026,13.838-1.701,20.167-5.058c15.677-8.313,24.344-26.78,20.687-44.301c-3.755-17.991-19.284-31.934-37.263-32.65
			c-13.314-0.531-26.663-0.212-39.997-0.241c-3.796-0.008-4.098,0.313-4.103,4.12C3260.689,38.855,3260.699,51.135,3260.699,63.414z
			 M3248.526,236.726c0-8.494-0.028-15.408,0.018-22.321c0.013-2.026-0.468-3.33-2.862-3.289c-14.3,0.24-28.621-0.638-42.9,0.451
			c-18.446,1.408-34.815,17.964-36.328,36.395c-2.005,24.41,15.6,44.354,40.059,45.38c19.833,0.833,38.205-14.158,41.355-33.754
			C3249.173,251.471,3248.194,243.29,3248.526,236.726z M3260.754,157.773c-0.042,22.895,18.425,41.489,41.078,41.361
			c22.662-0.128,41.02-18.571,41.022-41.212c0.002-22.633-18.48-41.208-41.017-41.22
			C3279.16,116.689,3260.795,135.049,3260.754,157.773z M3267.936,116.656c-2.097,0-3.611-0.016-5.125,0.006
			c-1.075,0.016-1.891,0.49-1.992,1.626c-0.133,1.501-0.457,3.063,0.227,4.485c0.252,0.523,0.856,0.09,1.181-0.24
			C3264.011,120.718,3265.776,118.884,3267.936,116.656z"/>
	</g>
</g>
</svg>
