<?xml version="1.0" encoding="utf-8"?>
<!-- Generator: Adobe Illustrator 17.0.0, SVG Export Plug-In . SVG Version: 6.00 Build 0)  -->
<!DOCTYPE svg PUBLIC "-//W3C//DTD SVG 1.1//EN" "http://www.w3.org/Graphics/SVG/1.1/DTD/svg11.dtd">
<svg version="1.1" xmlns="http://www.w3.org/2000/svg" xmlns:xlink="http://www.w3.org/1999/xlink" x="0px" y="0px" width="300px"
	 height="300px" viewBox="3104.615 7.919 300 300" enable-background="new 3104.615 7.919 300 300" xml:space="preserve">
<g id="Capa_1">
	<g id="_x34_QcrKn_1_">
		<g>
			<path fill="#f9bdbc" d="M3154.649,69.765c0-4.033,0-8.066,0-12.1c0.262-1.215,0.547-2.426,0.783-3.645
				c3.545-18.288,14.012-31.14,30.745-39.01c6.056-2.848,12.558-3.998,19.175-4.59c32.842,0,65.684,0,98.525,0
				c0.659,0.11,1.313,0.266,1.977,0.322c16.358,1.393,29.267,8.888,39.013,22.006c5.514,7.422,8.235,15.926,9.713,24.918
				c0,4.033,0,8.066,0,12.1c-0.112,0.464-0.253,0.923-0.333,1.393c-2.81,16.658-11.252,29.533-25.799,38.258
				c-1.948,1.169-1.397,1.774,0.143,2.682c5.588,3.296,10.384,7.508,14.465,12.565c6.505,8.06,10.041,17.342,11.524,27.495
				c0,3.841,0,7.682,0,11.523c-0.152,0.846-0.293,1.695-0.457,2.538c-4.104,21.113-16.041,35.847-36.614,42.296
				c-20.333,6.374-38.417,1.331-53.72-13.543c-0.784-0.762-1.32-1.896-2.742-2.104c-0.549,1.201-0.341,2.453-0.342,3.66
				c-0.014,18.515,0.329,37.038-0.098,55.543c-0.51,22.078-10.848,38.324-30.693,48.268c-6.431,3.223-13.413,4.491-20.53,5.081
				c-1.152,0-2.305,0-3.457,0c-0.563-0.104-1.122-0.27-1.689-0.304c-15.059-0.912-27.425-7.276-37.208-18.634
				c-7.006-8.134-10.825-17.747-12.382-28.308c0-3.841,0-7.682,0-11.523c2.556-17.536,10.983-31.244,26.378-40.386
				c1.673-0.994,1.13-1.621-0.158-2.367c-3.752-2.171-7.169-4.793-10.27-7.818c-9.291-9.065-14.329-20.196-15.95-32.975
				c0-3.457,0-6.914,0-10.371c2.313-17.732,10.88-31.457,26.231-40.79c2.207-1.342,0.897-1.909-0.362-2.661
				c-8.867-5.297-15.643-12.527-20.336-21.753C3157.321,81.907,3155.78,75.909,3154.649,69.765z M3248.529,157.9
				c0-12.568-0.01-25.137,0.01-37.705c0.003-1.992-0.131-3.635-2.832-3.584c-13.999,0.268-28.018-0.609-41.999,0.46
				c-24.524,1.875-41.944,25.836-36.384,49.85c4.493,19.404,20.923,32.115,41.869,32.272c11.8,0.088,23.602,0.024,35.402,0.015
				c3.717-0.003,3.925-0.196,3.929-3.892C3248.54,182.844,3248.531,170.372,3248.529,157.9z M3248.527,63.59
				c0-12.472-0.047-24.944,0.037-37.416c0.018-2.701-0.929-3.778-3.682-3.76c-12.663,0.085-25.332-0.178-37.99,0.096
				c-21.492,0.465-39.183,17.138-40.463,37.78c-1.514,24.423,16.903,44.221,41.409,44.41c12.279,0.094,24.56,0.027,36.84,0.013
				c3.657-0.004,3.843-0.199,3.847-3.996C3248.54,88.342,3248.531,75.966,3248.527,63.59z M3260.699,63.414
				c0,12.472-0.01,24.943,0.006,37.415c0.005,3.664,0.234,3.882,3.957,3.886c12.184,0.012,24.368,0.036,36.551-0.009
				c7.124-0.026,13.838-1.701,20.167-5.058c15.677-8.313,24.344-26.78,20.687-44.301c-3.755-17.991-19.284-31.934-37.263-32.65
				c-13.314-0.531-26.663-0.212-39.997-0.241c-3.796-0.008-4.098,0.313-4.103,4.12C3260.689,38.855,3260.699,51.135,3260.699,63.414
				z M3248.526,236.726c0-8.494-0.028-15.408,0.018-22.321c0.013-2.026-0.468-3.33-2.862-3.289c-14.3,0.24-28.621-0.638-42.9,0.451
				c-18.446,1.408-34.815,17.964-36.328,36.395c-2.005,24.41,15.6,44.354,40.059,45.38c19.833,0.833,38.205-14.158,41.355-33.754
				C3249.173,251.471,3248.194,243.29,3248.526,236.726z M3260.754,157.773c-0.042,22.895,18.425,41.489,41.078,41.361
				c22.662-0.128,41.02-18.571,41.022-41.212c0.002-22.633-18.48-41.208-41.017-41.22
				C3279.16,116.689,3260.795,135.049,3260.754,157.773z M3267.936,116.656c-2.097,0-3.611-0.016-5.125,0.006
				c-1.075,0.016-1.891,0.49-1.992,1.626c-0.133,1.501-0.457,3.063,0.227,4.485c0.252,0.523,0.856,0.09,1.181-0.24
				C3264.011,120.718,3265.776,118.884,3267.936,116.656z"/>
		</g>
	</g>
</g>
<g id="Capa_2">
</g>
</svg>
