<?xml version="1.0" encoding="utf-8"?>
<!-- Generator: Adobe Illustrator 17.0.0, SVG Export Plug-In . SVG Version: 6.00 Build 0)  -->
<!DOCTYPE svg PUBLIC "-//W3C//DTD SVG 1.1//EN" "http://www.w3.org/Graphics/SVG/1.1/DTD/svg11.dtd">
<svg version="1.1" id="Capa_1" xmlns="http://www.w3.org/2000/svg" xmlns:xlink="http://www.w3.org/1999/xlink" x="0px" y="0px"
	 width="300px" height="300px" viewBox="0 0 300 300" enable-background="new 0 0 300 300" xml:space="preserve">
<g>
	<path fill="#f9bdbc" d="M151.976,2.652c1.08,0.261,2.191,0.373,3.26,0.698c3.142,0.956,5.87,2.599,8.193,4.909
		c3.395,3.376,6.773,6.767,10.158,10.153c39.35,39.349,78.696,78.702,118.053,118.044c4.237,4.235,6.316,9.29,5.941,15.28
		c-0.259,4.148-1.738,7.867-4.507,10.972c-3.322,3.724-6.984,7.124-10.511,10.652c-39.395,39.411-78.803,78.809-118.198,118.22
		c-3.387,3.388-7.387,5.496-12.174,5.904c-5.26,0.448-9.968-1.026-14.035-4.429c-0.64-0.535-1.241-1.119-1.831-1.709
		c-42.63-42.625-85.257-85.251-127.883-127.88c-4.267-4.268-6.194-9.441-5.701-15.438c0.379-4.614,2.33-8.563,5.601-11.837
		c13.839-13.85,27.686-27.691,41.531-41.536C65.115,79.412,80.358,64.171,95.6,48.93c0.161-0.161,0.332-0.314,0.483-0.484
		c0.292-0.329,0.577-0.385,0.882-0.02c0.081,0.097,0.179,0.179,0.268,0.269c9.456,9.457,18.912,18.913,28.369,28.37
		c1.289,1.289,2.566,2.591,3.874,3.86c0.419,0.406,0.513,0.763,0.296,1.333c-4.243,11.14,0.933,23.622,11.82,28.501
		c0.613,0.275,0.706,0.673,0.706,1.253c-0.01,10.968-0.007,21.935-0.007,32.903c0,15.375-0.004,30.75,0.013,46.125
		c0.001,0.767-0.185,1.183-0.943,1.555c-7.332,3.595-11.73,9.436-12.862,17.535c-1.716,12.28,7.078,23.6,19.44,25.21
		c9.164,1.193,18.064-3.294,22.555-11.343c1.986-3.559,2.961-7.383,2.853-11.431c-0.152-5.651-2.114-10.621-5.971-14.81
		c-1.645-1.787-3.511-3.288-5.654-4.423c-0.712-0.377-0.999-0.828-0.977-1.66c0.063-2.303,0.022-4.609,0.022-6.914
		c0-23.683-0.001-47.366,0.009-71.049c0-0.328-0.209-0.816,0.173-0.954c0.284-0.103,0.509,0.349,0.735,0.576
		c9.71,9.702,19.414,19.41,29.133,29.103c0.426,0.425,0.49,0.779,0.295,1.334c-2.493,7.097-1.824,13.89,2.278,20.204
		c3.611,5.558,8.804,8.894,15.36,9.897c6.481,0.992,12.395-0.535,17.521-4.662c5.113-4.116,7.999-9.49,8.369-16.074
		c0.49-8.732-3.018-15.609-10.242-20.415c-5.74-3.818-12.093-4.516-18.71-2.61c-0.659,0.19-1.053,0.092-1.528-0.384
		c-10.429-10.454-20.869-20.898-31.329-31.322c-0.57-0.568-0.656-1.056-0.441-1.801c1.682-5.834,1.204-11.51-1.664-16.862
		c-3.482-6.498-8.939-10.401-16.213-11.701c-3.453-0.617-6.862-0.317-10.212,0.668c-0.53,0.156-0.877,0.099-1.274-0.299
		c-10.934-10.953-21.876-21.897-32.832-32.828c-0.509-0.508-0.451-0.808,0.025-1.283c8.787-8.765,17.537-17.568,26.35-26.307
		c2.921-2.897,6.49-4.631,10.591-5.208c0.19-0.027,0.375-0.085,0.562-0.129C149.139,2.652,150.557,2.652,151.976,2.652z"/>
</g>
</svg>
