<?xml version="1.0" encoding="utf-8"?>
<!-- Generator: Adobe Illustrator 17.0.0, SVG Export Plug-In . SVG Version: 6.00 Build 0)  -->
<!DOCTYPE svg PUBLIC "-//W3C//DTD SVG 1.1//EN" "http://www.w3.org/Graphics/SVG/1.1/DTD/svg11.dtd">
<svg version="1.1" id="Capa_1" xmlns="http://www.w3.org/2000/svg" xmlns:xlink="http://www.w3.org/1999/xlink" x="0px" y="0px"
	 width="300px" height="300px" viewBox="0 0 300 300" enable-background="new 0 0 300 300" xml:space="preserve">
<g>
	<path fill="#FC8583" d="M297.961,161.062c-0.843,5.685-1.294,11.421-2.398,17.076c-4.621,23.654-14.279,45.003-29.256,63.891
		c-17.562,22.148-39.651,38.056-66.252,47.666c-1.445,0.522-2.897,1.009-4.452,1.129c-4.964,0.383-8.352-2.601-8.362-7.566
		c-0.027-13.981,0.031-27.962,0.015-41.943c-0.006-4.873-0.806-9.631-2.432-14.236c-1.267-3.587-3.114-6.84-5.619-9.716
		c-0.436-0.501-1.328-0.914-1.069-1.639c0.291-0.815,1.282-0.678,2.02-0.758c8.587-0.937,16.977-2.758,25.074-5.786
		c21.739-8.132,33.834-24.172,37.715-46.668c2.128-12.332,2.797-24.732-0.708-36.991c-2.097-7.334-5.554-13.988-10.533-19.775
		c-1.492-1.734-1.976-3.2-1.269-5.545c3.496-11.609,2.358-23.062-1.663-34.357c-0.532-1.495-1.437-1.961-2.929-1.983
		c-7.515-0.11-14.313,2.474-20.975,5.533c-5.034,2.311-9.863,5.018-14.39,8.213c-1.772,1.251-3.438,1.593-5.577,1.016
		c-13.843-3.738-27.982-4.78-42.243-4.057c-8.75,0.443-17.418,1.725-25.886,4.062c-1.938,0.535-3.459,0.29-5.174-0.804
		c-8.897-5.675-18.05-10.842-28.502-13.172c-2.482-0.554-4.985-0.859-7.539-0.775c-1.316,0.043-2.114,0.545-2.58,1.825
		c-4.191,11.514-5.14,23.184-1.614,35.029c0.52,1.748,0.339,2.888-0.866,4.319c-10.789,12.81-14.505,27.755-13.296,44.23
		c0.53,7.219,1.325,14.366,3.346,21.334c6.222,21.459,20.708,34.43,41.788,40.573c6.201,1.807,12.517,3.099,18.949,3.784
		c0.754,0.08,1.76,0.002,2.066,0.735c0.348,0.833-0.657,1.285-1.14,1.828c-3.962,4.444-6.061,9.757-7.092,15.511
		c-0.31,1.732-1.02,2.706-2.657,3.317c-8.925,3.327-17.877,4.486-26.871,0.374c-5.459-2.496-9.674-6.483-12.867-11.523
		c-3.066-4.84-6.507-9.349-11.221-12.692c-4.88-3.46-10.237-5.223-16.291-3.893c-3.092,0.679-3.648,2.247-1.582,4.677
		c0.786,0.924,1.695,1.852,2.74,2.43c6.445,3.567,10.578,9.232,14.191,15.383c1.4,2.383,2.797,4.775,3.769,7.378
		c3.832,10.267,11.6,15.729,22,17.853c8.241,1.683,16.5,1.104,24.737-0.179c2.668-0.416,2.98-0.208,2.995,2.473
		c0.044,7.835-0.101,15.675,0.117,23.505c0.191,6.855-4.673,10.243-11.259,8.066c-17.772-5.873-33.766-15.045-48.028-27.181
		c-14.799-12.593-26.774-27.479-35.696-44.742c-7.571-14.648-12.573-30.165-14.896-46.512c-0.506-3.563-0.894-7.143-1.336-10.715
		c0-7.221,0-14.443,0-21.664c0.418-3.187,0.796-6.379,1.261-9.559C9.171,95.972,23.96,67.148,48.707,43.501
		c21.349-20.4,46.651-33.126,75.684-38.404c4.968-0.903,10.003-1.434,15.008-2.136c7.375,0,14.75,0,22.125,0
		c2.58,0.314,5.164,0.592,7.739,0.947c34.889,4.81,64.594,19.806,88.789,45.456c19.972,21.174,32.484,46.18,37.735,74.796
		c0.925,5.043,1.46,10.157,2.175,15.239C297.961,146.62,297.961,153.841,297.961,161.062z"/>
</g>
</svg>
