<?xml version="1.0" encoding="utf-8"?>
<!-- Generator: Adobe Illustrator 17.0.0, SVG Export Plug-In . SVG Version: 6.00 Build 0)  -->
<!DOCTYPE svg PUBLIC "-//W3C//DTD SVG 1.1//EN" "http://www.w3.org/Graphics/SVG/1.1/DTD/svg11.dtd">
<svg version="1.1" id="Capa_1" xmlns="http://www.w3.org/2000/svg" xmlns:xlink="http://www.w3.org/1999/xlink" x="0px" y="0px"
	 width="300px" height="300px" viewBox="352.5 0 300 300" enable-background="new 352.5 0 300 300" xml:space="preserve">
<g>
	<path fill="#f9bdbc" d="M650,55.447c0,63.154,0,126.308,0,189.462c-0.364,0.39-0.208,0.884-0.247,1.332
		c-0.062,0.697-0.021,1.406-0.116,2.098c-1.088,7.989-3.731,15.422-8.295,22.082c-9.344,13.633-22.26,21.361-38.726,23.092
		c-0.967-0.092-1.899,0.243-2.859,0.235c-64.745,0-129.489,0-194.234,0c-1.045-0.012-2.065-0.34-3.118-0.251
		c-1.02-0.12-2.047-0.199-3.06-0.365c-11.422-1.88-21.238-6.896-29.339-15.176c-9.514-9.725-14.035-21.613-15.007-35.012
		c0-61.938,0-123.876,0-185.814c0.298-2.409,0.48-4.838,0.912-7.223c2.85-15.742,11.07-27.884,24.713-36.241
		c8.328-5.102,17.475-7.418,27.236-7.415c38.448,0.013,76.896,0.005,115.344,0.005c24.603,0,49.206,0.006,73.809-0.007
		c3.188-0.002,6.363,0.16,9.499,0.713c12.744,2.248,23.353,8.282,31.593,18.263c6.94,8.407,11.012,18.044,11.67,29.017
		C649.8,54.648,649.923,55.046,650,55.447z M474.61,79.341c-5.146,0-10.291-0.006-15.437,0.004c-1.36,0.003-1.743,0.332-1.732,1.601
		c0.042,4.597-0.94,8.987-2.486,13.292c-1.832,5.101-3.571,10.236-5.35,15.357c-10.091,29.045-20.182,58.091-30.273,87.136
		c-1.104,3.178-2.228,6.35-3.296,9.54c-0.652,1.947-0.167,2.571,1.883,2.595c0.14,0.002,0.281,0.001,0.421,0.001
		c7.11,0,14.22,0.001,21.331,0c2.13,0,2.546-0.307,3.21-2.361c2.905-8.981,5.807-17.962,8.713-26.943
		c0.411-1.27,0.415-1.277,1.728-1.277c14.361-0.002,28.722-0.002,43.082,0c1.515,0,1.298-0.072,1.755,1.249
		c3.143,9.099,6.277,18.201,9.419,27.3c0.617,1.787,0.967,2.031,2.847,2.031c7.952,0.001,15.904,0,23.857-0.001
		c0.327,0,0.656,0.012,0.982-0.009c1.408-0.091,1.756-0.554,1.408-1.891c-0.118-0.451-0.276-0.893-0.432-1.333
		c-14.016-39.554-28.034-79.108-42.052-118.662c-0.749-2.114-1.52-4.221-2.236-6.347c-0.298-0.885-0.854-1.296-1.764-1.283
		c-0.327,0.005-0.655-0.002-0.982-0.002C484.34,79.34,479.475,79.341,474.61,79.341z M577.842,160.424
		c0-15.618,0.002-31.237-0.002-46.855c0-2.059-0.303-2.364-2.351-2.365c-7.669-0.005-15.338-0.007-23.007,0.001
		c-1.869,0.002-2.132,0.275-2.155,2.091c-0.003,0.234-0.002,0.468-0.002,0.701c0,30.769,0,61.538,0,92.308
		c0,0.421-0.015,0.843,0.009,1.262c0.076,1.291,0.618,1.828,1.929,1.916c0.372,0.025,0.748,0.008,1.122,0.008
		c7.201,0,14.403,0.001,21.604,0c2.598,0,2.852-0.256,2.852-2.913C577.843,191.194,577.843,175.809,577.842,160.424z
		 M579.559,85.303c0.035-1.179-0.058-2.34-0.292-3.491c-0.935-4.599-3.967-9.892-10.831-11.374
		c-2.446-0.528-4.925-0.646-7.372-0.084c-6.015,1.381-10.075,4.919-11.687,10.98c-0.657,2.472-0.632,5.013-0.113,7.507
		c1.169,5.615,4.375,9.489,9.907,11.313c1.938,0.639,3.93,0.784,5.948,0.732c3.125-0.079,5.999-0.972,8.476-2.889
		C577.733,94.794,579.543,90.458,579.559,85.303z"/>
	<path fill="#f9bdbc" d="M401.874,293.749c0.216,0.005,0.389-0.078,0.525-0.251c1.059-0.089,2.079,0.239,3.124,0.251
		C404.307,293.749,403.091,293.749,401.874,293.749z"/>
	<path fill="#f9bdbc" d="M602.616,293.514c0.136,0.151,0.306,0.229,0.509,0.235c-1.123,0-2.245,0-3.368,0
		C600.717,293.757,601.649,293.422,602.616,293.514z"/>
	<path fill="#f9bdbc" d="M474.377,102.03c0.073,0.237,15.815,51.096,15.815,51.096c-0.998,0.27-29.257,0.341-30.998,0.052
		c3.043-8.352,5.291-16.927,7.945-25.378C469.792,119.353,472.64,110.957,474.377,102.03z"/>
</g>
</svg>
