<?xml version="1.0" encoding="utf-8"?>
<!-- Generator: Adobe Illustrator 17.0.0, SVG Export Plug-In . SVG Version: 6.00 Build 0)  -->
<!DOCTYPE svg PUBLIC "-//W3C//DTD SVG 1.1//EN" "http://www.w3.org/Graphics/SVG/1.1/DTD/svg11.dtd">
<svg version="1.1" id="Capa_1" xmlns="http://www.w3.org/2000/svg" xmlns:xlink="http://www.w3.org/1999/xlink" x="0px" y="0px"
	 width="300px" height="300px" viewBox="1029.5 0 300 300" enable-background="new 1029.5 0 300 300" xml:space="preserve">
<g id="PlEM6G_1_">
	<g>
		<path fill="#f9bdbc" d="M1032,251.61c0-67.741,0-135.481,0-203.222c8.895-29.518,26.952-43.145,57.731-43.187
			c59.847-0.081,119.695-0.081,179.542,0c30.793,0.042,48.788,13.623,57.727,43.186c0,67.741,0,135.481,0,203.222
			c-8.935,29.549-26.943,43.142-57.735,43.186c-59.844,0.084-119.689,0.084-179.534,0
			C1058.949,294.753,1040.904,281.131,1032,251.61z M1248.426,140.484c0-22.834-0.097-42.908,0.063-62.98
			c0.044-5.539-1.927-8.119-7.682-7.682c-3.905,0.296-7.86,0.229-11.776,0.018c-4.886-0.263-6.591,1.984-6.459,6.668
			c0.203,7.194,0.016,14.399,0.053,21.599c0.073,14.282-0.183,11.88-11.501,11.948c-27.215,0.163-54.822,21.059-51.852,56.919
			c1.808,21.832,14.792,37.806,36.277,42.159c16.008,3.244,31.636,1.09,47.101-3.644c5.061-1.549,6.988-4.303,6.555-9.539
			C1247.603,176.567,1248.857,157.132,1248.426,140.484z M1112.432,144.259c0,16.143-0.07,32.287,0.02,48.43
			c0.093,16.713-2.354,15.859,15.826,15.804c9.367-0.028,9.98-0.637,9.989-10.11c0.029-33.377,0.085-66.755-0.013-100.131
			c-0.061-20.61,2.376-17.5-18.301-17.951c-5.723-0.125-7.668,2.046-7.6,7.677C1112.579,106.736,1112.439,125.498,1112.432,144.259z
			"/>
		<path fill="#f9bdbc" d="M1222.588,160.021c-0.003,7.414-0.092,14.83,0.034,22.242c0.064,3.769-1.436,5.504-5.282,5.804
			c-10.505,0.819-20.468-0.396-26.633-10.022c-6.853-10.7-7.598-22.407-1.089-33.485c5.978-10.174,15.852-13.701,27.41-13.033
			c4.099,0.237,5.707,2.185,5.613,6.254C1222.468,145.189,1222.591,152.607,1222.588,160.021z"/>
	</g>
</g>
</svg>
