<?xml version="1.0" encoding="utf-8"?>
<!-- Generator: Adobe Illustrator 17.0.0, SVG Export Plug-In . SVG Version: 6.00 Build 0)  -->
<!DOCTYPE svg PUBLIC "-//W3C//DTD SVG 1.1//EN" "http://www.w3.org/Graphics/SVG/1.1/DTD/svg11.dtd">
<svg version="1.1" id="Capa_1" xmlns="http://www.w3.org/2000/svg" xmlns:xlink="http://www.w3.org/1999/xlink" x="0px" y="0px"
	 width="300px" height="300px" viewBox="0 0 300 300" enable-background="new 0 0 300 300" xml:space="preserve">
<g>
	<path fill="#FC8583" d="M2.78,275.908c0-84.125,0-168.251,0-252.376c0.272-0.793,0.55-1.584,0.814-2.38
		C5.708,14.774,9.491,9.689,15.197,6.068c2.18-1.384,4.555-2.332,6.933-3.287c85.341,0,170.681,0,256.022,0
		c0.296,0.136,0.584,0.296,0.89,0.405c4.94,1.756,9.208,4.478,12.519,8.611c3.912,4.884,6.302,10.338,6.302,16.69
		c0.003,80.836,0.03,161.672-0.038,242.508c-0.008,9.015-4.22,16.123-11.383,21.436c-5.121,3.799-10.998,5.378-17.356,5.377
		c-78.546-0.012-157.093-0.008-235.639-0.01c-2.053,0-4.102,0.021-6.154-0.223c-8.341-0.996-14.986-4.856-19.921-11.652
		C5.17,282.893,3.903,279.433,2.78,275.908z M228.336,274.24c8.259,0.015,14.696-0.99,21.443-3.527
		c10.544-3.966,18.384-10.779,22.26-21.613c2.182-6.1,2.52-12.408,1.862-18.806c-0.85-8.266-3.904-15.514-9.758-21.519
		c-4.796-4.92-10.533-8.477-16.566-11.615c-6.723-3.497-13.837-6.129-20.697-9.322c-3.731-1.736-7.364-3.608-10.317-6.619
		c-4.164-4.244-4.971-15.113,3.436-18.992c5.878-2.713,11.677-2.088,17.106,1.333c2.937,1.851,5.033,4.579,6.761,7.56
		c0.554,0.956,1.036,1.252,2.068,0.582c6.35-4.119,12.727-8.195,19.108-12.265c0.736-0.47,0.899-0.912,0.43-1.704
		c-4.47-7.538-10.21-13.831-18.45-17.173c-12.942-5.25-26.088-5.316-39.062-0.107c-8.144,3.27-14.219,9.006-18.06,16.984
		c-2.914,6.054-3.782,12.481-3.364,19.112c0.519,8.241,3.021,15.745,8.477,22.103c3.288,3.831,7.185,6.93,11.472,9.564
		c6.559,4.03,13.708,6.817,20.723,9.893c4.787,2.099,9.666,4.043,13.885,7.239c4.369,3.309,6.378,7.643,5.387,13.101
		c-0.872,4.803-4.001,7.961-8.382,9.59c-9.02,3.353-17.823,2.594-26.106-2.401c-4.534-2.734-7.821-6.761-10.642-11.169
		c-0.616-0.963-1.165-1.071-2.147-0.496c-6.532,3.823-13.086,7.608-19.655,11.367c-1.022,0.585-1.26,1.151-0.661,2.23
		c5.32,9.589,12.925,16.717,22.884,21.304C210.197,272.753,219.103,274.319,228.336,274.24z M162.861,188.501
		c0.006,0,0.012,0,0.018,0c0-16.074,0.002-32.147-0.002-48.221c0-1.914-0.079-1.99-1.968-1.991c-7.85-0.005-15.7-0.005-23.55,0
		c-1.805,0.001-1.885,0.093-1.902,1.91c-0.005,0.514-0.001,1.028-0.001,1.542c0,30.138-0.003,60.276,0.004,90.414
		c0.001,2.959-0.266,5.878-1.091,8.729c-1.416,4.894-4.656,7.748-9.666,8.587c-0.965,0.162-1.947,0.257-2.925,0.308
		c-4.866,0.254-9.134-1.13-12.576-4.694c-2.358-2.441-4.144-5.294-5.77-8.244c-0.534-0.969-1.008-1.118-1.957-0.537
		c-6.616,4.046-13.251,8.062-19.9,12.054c-0.975,0.586-1.105,1.182-0.591,2.171c4.825,9.291,11.746,16.422,21.599,20.246
		c12.18,4.727,24.594,4.788,36.92,0.642c9.035-3.039,15.549-9.122,19.472-17.848c2.664-5.925,3.836-12.211,3.864-18.672
		C162.907,219.434,162.861,203.968,162.861,188.501z"/>
</g>
</svg>
