<?xml version="1.0" encoding="utf-8"?>
<!-- Generator: Adobe Illustrator 17.0.0, SVG Export Plug-In . SVG Version: 6.00 Build 0)  -->
<!DOCTYPE svg PUBLIC "-//W3C//DTD SVG 1.1//EN" "http://www.w3.org/Graphics/SVG/1.1/DTD/svg11.dtd">
<svg version="1.1" id="Capa_1" xmlns="http://www.w3.org/2000/svg" xmlns:xlink="http://www.w3.org/1999/xlink" x="0px" y="0px"
	 width="300px" height="300px" viewBox="0 0 300 300" enable-background="new 0 0 300 300" xml:space="preserve">
<g>
	<path fill="#f9bdbc" d="M83.314,159.607c0-10.549,0-21.098,0-31.648c5.993-39.574,25.136-72.635,50.601-102.635
		C139.738,18.466,145.243,11.31,150,3.63c0.754,0,1.507,0,2.261,0c6.919,10.292,14.618,19.991,22.423,29.615
		c12.348,15.226,22.875,31.579,31.008,49.478c6.577,14.475,10.464,29.682,13.255,45.237c0,10.549,0,21.098,0,31.648
		c-0.172,0.535-0.419,1.058-0.507,1.607c-6.308,39.339-26.214,70.819-55.899,96.621c-2.14,1.86-3.208,3.943-3.437,6.771
		c-0.64,7.874-1.513,15.729-2.253,23.595c-0.352,3.738-1.36,6.4-6.067,6.282c-4.516-0.113-5.139-2.826-5.46-6.258
		c-0.7-7.491-1.651-14.965-2.123-22.469c-0.232-3.694-1.656-6.193-4.437-8.596c-17.287-14.937-31.107-32.576-41.434-53.034
		C90.201,190.005,86.381,174.951,83.314,159.607z M151.505,119.674c-0.298-0.062-0.597-0.123-0.895-0.185
		c-0.504,11.219-0.992,22.439-1.516,33.657c-1.019,21.789-2.067,43.577-3.086,65.366c-0.448,9.58-0.932,19.16-1.244,28.745
		c-0.139,4.287,2.318,7.241,6.22,8.345c2.611,0.739,6.459-4.768,6.464-8.636c0.001-0.376-0.032-0.752-0.049-1.128
		c-1.457-32.499-2.896-64.998-4.381-97.496C152.581,138.783,152.013,129.23,151.505,119.674z"/>
</g>
</svg>
