<?xml version="1.0" encoding="utf-8"?>
<!-- Generator: Adobe Illustrator 17.0.0, SVG Export Plug-In . SVG Version: 6.00 Build 0)  -->
<!DOCTYPE svg PUBLIC "-//W3C//DTD SVG 1.1//EN" "http://www.w3.org/Graphics/SVG/1.1/DTD/svg11.dtd">
<svg version="1.1" id="Capa_1" xmlns="http://www.w3.org/2000/svg" xmlns:xlink="http://www.w3.org/1999/xlink" x="0px" y="0px"
	 width="300px" height="300px" viewBox="0 0 300 300" enable-background="new 0 0 300 300" xml:space="preserve">
<g>
	<path fill="#f9bdbc" d="M153.128,159.563c-9.313,7.658-22.503,4.559-26.917-9.735c0,3.569-0.094,7.141,0.034,10.705
		c0.083,2.294-0.725,3.143-3.07,3.069c-3.823-0.121-3.783,0.004-3.836-3.811c-0.104-7.426,0.316-14.86-0.244-22.278
		c-0.338-4.481-2.434-6.77-6.551-7.328c-4.042-0.547-8.525,1.785-9.849,5.164c-0.938,2.393-1.211,4.908-1.213,7.458
		c-0.006,5.997-0.116,11.998,0.042,17.991c0.077,2.913-1.636,2.732-3.602,2.791c-2.079,0.062-3.377-0.279-3.276-2.848
		c0.162-4.127,0.043-8.265-0.145-12.464c-0.951,4.44-2.368,8.616-6.031,11.568c-3.549,2.86-7.64,4.221-12.198,4.219
		c-8.837-0.004-13.904-3.93-17.983-13.725c0,3.478-0.129,6.963,0.04,10.433c0.139,2.852-1.549,2.796-3.566,2.82
		c-2.068,0.025-3.336-0.286-3.279-2.865c0.144-6.501,0.057-13.007,0.036-19.512c-0.005-1.433-0.047-2.874-0.198-4.298
		c-0.443-4.182-1.664-5.838-4.759-6.614c-3.18-0.798-7.087,0.658-8.993,3.315c-1.667,2.324-1.945,5.009-1.966,7.726
		c-0.049,6.419-0.123,12.842,0.03,19.258c0.064,2.681-1.219,3.023-3.41,3.002c-2.106-0.021-3.542-0.151-3.479-2.919
		c0.154-6.754,0.056-13.514,0.041-20.272c-0.003-1.18-0.013-2.371-0.166-3.539c-0.56-4.293-1.931-6.05-5.076-6.647
		c-3.551-0.675-7.522,1.223-9.188,4.441c-1.363,2.632-1.524,5.522-1.557,8.392c-0.068,5.828-0.151,11.661,0.031,17.483
		c0.091,2.89-1.401,3.018-3.608,3.07c-2.342,0.055-3.308-0.604-3.283-3.122c0.108-10.727,0.044-21.455,0.047-32.183
		c0-1.769-0.34-3.623,2.526-3.563c3.376,0.071,3.4-0.054,3.71,3.438c0.014,0.161,0.106,0.315,0.166,0.485
		c0.744,0.379,1.042-0.307,1.447-0.648c6.509-5.495,14.146-5.074,19.899,1.23c1.1,1.205,1.451,0.41,2.097-0.292
		c2.833-3.08,6.32-4.695,10.544-4.681c7.144,0.023,11.373,3.95,11.878,11.078c0.063,0.892,0.083,1.786,0.136,2.973
		c4.587-10.646,9.361-14.321,18.559-14.011c9.846,0.333,15.382,5.872,17.74,15.203c0-3.763,0.047-7.527-0.019-11.29
		c-0.036-2.057,0.044-3.567,2.876-3.529c2.506,0.034,3.682,0.716,3.34,3.312c-0.042,0.321,0.052,0.66,0.127,1.447
		c4.819-4.757,10.312-6.254,16.572-4.537c6.949,1.905,8.621,7.291,8.697,14.031c6.131-15.334,16.019-18.916,27.244-10.172
		c0.137-0.176,0.399-0.357,0.39-0.525c-0.176-3.46,0.237-3.492,4.155-3.478c1.654,0.006,2.237,0.78,2.211,2.339
		c-0.044,2.618-0.017,5.237,0.003,7.855c0.006,0.8,0.089,1.6,0.341,2.48c2.77-7.946,8.035-12.635,16.514-13.134
		c8.379-0.493,14.484,3.089,18.29,11.072c3.405-7.249,8.862-10.882,16.471-11.095c7.587-0.212,13.327,2.989,17.249,10.139
		c1.376-4.952,4.095-8.035,8.611-9.303c5.326-1.495,10.528-1.164,15.554,1.198c2.98,1.4,4.531,3.915,5.354,6.998
		c0.361,1.351,0.026,2.086-1.444,2.283c-2.486,0.334-4.974,1.114-6.026-2.441c-0.466-1.574-2.101-2.424-3.719-2.786
		c-2.581-0.579-5.199-0.616-7.767,0.104c-2.04,0.572-3.491,1.773-3.504,4.079c-0.013,2.226,1.467,3.313,3.356,3.917
		c2.171,0.694,4.366,1.315,6.567,1.908c4.138,1.115,8.365,1.979,12.168,4.931c0.245-1.97,0.409-3.613,0.659-5.244
		c1.033-6.719,4.175-12.069,10.734-14.531c6.485-2.434,12.852-1.904,18.383,2.689c4.87,4.044,6.251,9.628,6.349,15.664
		c0.029,1.805-1.221,1.923-2.6,1.92c-7.687-0.015-15.374-0.01-23.06-0.002c-3.051,0.003-3.148,0.135-2.568,3.188
		c1.467,7.724,9.455,11.765,16.033,8.123c1.855-1.027,3.043-2.601,3.969-4.465c0.908-1.826,5.87-2.479,7.273-0.998
		c0.761,0.804,0.173,1.597-0.147,2.337c-2.72,6.279-7.609,9.521-14.342,10.006c-7.876,0.567-14.267-2.03-18.554-9.587
		c-2.915,7.587-8.814,9.535-15.743,9.632c-7.034,0.099-12.792-2.106-15.677-9.235c-11.048,13.198-24.157,12.592-33.572-1.489
		c-3.706,7.662-9.938,11.083-18.207,10.69c-8.527-0.405-13.815-5.117-16.445-13.385c-0.746,1.171-0.469,2.189-0.493,3.133
		c-0.094,3.712,0.156,7.439-0.393,11.13c-1.22,8.214-5.081,12.302-13.346,13.557c-6.013,0.913-11.841,0.368-16.521-4.236
		c-1.652-1.625-2.317-3.688-2.464-5.947c-0.038-0.582-0.122-1.208,0.459-1.612c0.989-0.687,5.73,0.708,6.336,1.854
		c2.13,4.032,6.057,5.471,11.746,4.304c4.12-0.845,6.518-3.579,6.919-7.933C153.177,163.22,153.512,161.552,153.128,159.563z
		 M223.507,144.394c0.064-2.372-0.1-4.713-0.858-6.988c-1.534-4.605-5.269-7.357-10.052-7.383c-4.863-0.026-8.593,2.569-10.16,7.209
		c-1.442,4.271-1.423,8.653-0.265,12.949c1.458,5.411,5.384,8.251,10.743,8.131c5.043-0.113,8.718-3.296,10.083-8.654
		C223.441,147.92,223.474,146.161,223.507,144.394z M76.296,130.012c-4.556,0.024-8.321,2.436-9.796,6.628
		c-1.76,5.003-1.82,10.143,0.039,15.109c1.515,4.045,4.63,6.315,9.053,6.552c4.578,0.245,8.176-1.511,10.082-5.718
		c2.477-5.465,2.513-11.146,0.095-16.649C84.01,131.928,80.671,130.034,76.296,130.012z M189.495,144.213
		c0.156-2.629-0.258-5.2-1.273-7.658c-1.746-4.227-5.325-6.573-9.893-6.532c-4.515,0.04-8.135,2.504-9.734,6.767
		c-1.69,4.505-1.6,9.101-0.382,13.696c1.136,4.284,4.888,7.516,8.961,7.8c5.31,0.37,9.213-1.934,11.09-6.601
		C189.222,149.303,189.625,146.811,189.495,144.213z M153.929,144.174c-0.181-2.738-0.307-5.552-1.547-8.102
		c-1.685-3.465-4.265-5.803-8.35-6.041c-4.184-0.244-7.288,1.593-9.042,5.236c-2.709,5.624-2.542,11.534-0.16,17.159
		c1.362,3.216,4.176,5.231,7.957,5.383c3.862,0.155,6.903-1.234,8.968-4.577C153.465,150.463,153.599,147.323,153.929,144.174z
		 M230.884,140.824c-0.458,3.061-0.042,5.6-0.604,8.07c-0.423,1.858,0.493,2.587,2.236,2.091c1.802-0.512,2.507,0.235,3.132,1.858
		c2.287,5.937,12.006,7.731,16.399,3.107c2.346-2.469,1.769-5.684-1.4-6.932c-2.104-0.829-4.347-1.306-6.53-1.935
		C239.529,145.763,234.68,145.034,230.884,140.824z M276.268,140.078c2.617,0,5.233,0.025,7.849-0.007
		c2.653-0.033,3.116-0.695,2.37-3.253c-1.323-4.532-5.401-7.077-10.848-6.771c-4.468,0.252-8.457,3.813-9.208,8.063
		c-0.278,1.57,0.38,1.973,1.734,1.965C270.866,140.06,273.567,140.071,276.268,140.078z"/>
</g>
</svg>
