<?xml version="1.0" encoding="utf-8"?>
<!-- Generator: Adobe Illustrator 17.0.0, SVG Export Plug-In . SVG Version: 6.00 Build 0)  -->
<!DOCTYPE svg PUBLIC "-//W3C//DTD SVG 1.1//EN" "http://www.w3.org/Graphics/SVG/1.1/DTD/svg11.dtd">
<svg version="1.1" id="Capa_1" xmlns="http://www.w3.org/2000/svg" xmlns:xlink="http://www.w3.org/1999/xlink" x="0px" y="0px"
	 width="300px" height="300px" viewBox="2428.5 0.335 300 300" enable-background="new 2428.5 0.335 300 300" xml:space="preserve">
<g id="_x30_8F8wA.tif">
	<g>
		<path fill="#f9bdbc" d="M2435.5,140.5c1.951-1.177,4.12-1.165,6.292-1.165c23.131,0.004,46.262-0.011,69.394,0.01
			c6.4,0.006,7.167,0.781,7.249,7.162c0.047,3.66,0,7.322-0.041,10.982c-0.038,3.413-1.614,5.181-5.211,5.175
			c-24.462-0.045-48.925-0.009-73.387-0.08c-1.433-0.004-2.864-0.706-4.295-1.084C2435.5,154.5,2435.5,147.5,2435.5,140.5z"/>
		<path fill="#f9bdbc" d="M2723.5,161.5c-1.951,1.177-4.12,1.165-6.292,1.165c-23.131-0.004-46.262,0.011-69.394-0.01
			c-6.4-0.006-7.167-0.781-7.25-7.162c-0.047-3.66,0-7.322,0.041-10.982c0.038-3.413,1.614-5.182,5.211-5.175
			c24.462,0.045,48.925,0.01,73.387,0.08c1.433,0.004,2.864,0.706,4.296,1.084C2723.5,147.5,2723.5,154.5,2723.5,161.5z"/>
		<path fill="#f9bdbc" d="M2590.5,24.5c1.023,1.996,1.063,4.152,1.062,6.325c-0.009,16.457,0.021,32.914-0.019,49.371
			c-0.015,6.332-0.927,7.212-7.219,7.286c-3.823,0.045-7.646,0.001-11.469-0.032c-2.829-0.025-5.13-1.113-5.145-4.207
			c-0.094-18.937-0.715-37.878,0.316-56.808c0.035-0.651,0.311-1.29,0.474-1.934C2575.833,24.5,2583.167,24.5,2590.5,24.5z"/>
		<path fill="#f9bdbc" d="M2540.314,150.94c-0.002-11.823,0.105-23.648-0.057-35.47c-0.062-4.541,1.8-6.221,6.256-6.174
			c13.654,0.145,27.313-0.132,40.964,0.11c17.316,0.307,30.914,14.027,31.15,31.402c0.206,15.151-0.058,30.309,0.115,45.461
			c0.055,4.765-1.806,6.697-6.511,6.426c-3.652-0.21-7.326,0.005-10.988-0.054c-5.724-0.092-6.77-1.047-6.801-6.712
			c-0.072-13.322-0.002-26.644-0.042-39.966c-0.036-12.121-3.998-16.02-16.258-16.135c-13.567-0.128-13.567-0.128-13.568,13.463
			c0,13.988,0.028,27.977-0.017,41.965c-0.021,6.398-0.944,7.307-7.158,7.379c-3.829,0.045-7.663-0.091-11.489,0.024
			c-4.06,0.122-5.662-1.769-5.63-5.749C2540.379,174.92,2540.317,162.93,2540.314,150.94z"/>
		<path fill="#f9bdbc" d="M2567.542,245.983c0-8.331,0.104-16.664-0.04-24.992c-0.081-4.709,1.994-6.696,6.633-6.51
			c3.993,0.16,7.996,0.048,11.995,0.064c3.385,0.014,5.378,1.532,5.379,5.097c0.007,17.828,0.006,35.656-0.004,53.484
			c-0.002,3.113-1.658,4.511-4.709,4.494c-4.498-0.024-9.001-0.113-13.495,0.048c-4.085,0.146-5.766-1.785-5.75-5.693
			c0.035-8.664,0.011-17.328,0.011-25.992C2567.563,245.983,2567.549,245.983,2567.542,245.983z"/>
		<path fill="#f9bdbc" d="M2524.788,103.493c-5.036,1.051-8.557-1.168-11.827-4.742c-4.477-4.892-9.283-9.49-14.049-14.109
			c-2.582-2.503-2.58-4.702,0.02-7.171c3.368-3.199,6.626-6.516,9.885-9.828c2.193-2.229,4.246-2.168,6.425,0.032
			c5.722,5.778,11.545,11.456,17.209,17.29c2.388,2.46,3.096,14.102,1.125,16.644C2531.217,104.65,2527.74,103.143,2524.788,103.493
			z"/>
		<path fill="#f9bdbc" d="M2524.986,198.354c3.14,0.525,7.727-1.346,8.78,2.733c1.323,5.125,2.711,11.16-1.238,15.708
			c-5.428,6.248-11.63,11.824-17.492,17.695c-2.026,2.029-4.024,2.039-6.051,0.005c-3.515-3.525-7.035-7.046-10.564-10.557
			c-2.045-2.034-2.004-4.032,0.019-6.049c5.875-5.859,11.76-11.708,17.608-17.593
			C2518.65,197.676,2521.961,198.729,2524.986,198.354z"/>
	</g>
</g>
</svg>
