<?xml version="1.0" encoding="utf-8"?>
<!-- Generator: Adobe Illustrator 17.0.0, SVG Export Plug-In . SVG Version: 6.00 Build 0)  -->
<!DOCTYPE svg PUBLIC "-//W3C//DTD SVG 1.1//EN" "http://www.w3.org/Graphics/SVG/1.1/DTD/svg11.dtd">
<svg version="1.1" id="Capa_1" xmlns="http://www.w3.org/2000/svg" xmlns:xlink="http://www.w3.org/1999/xlink" x="0px" y="0px"
	 width="300px" height="300px" viewBox="0 0 300 300" enable-background="new 0 0 300 300" xml:space="preserve">
<g>
	<path fill="#FC8583" d="M150.666,2.727c0.339,0.355,0.671,0.716,1.018,1.063c7.741,7.743,15.483,15.485,23.224,23.227
		c0.294,0.294,0.587,0.588,0.867,0.894c0.279,0.305,0.301,0.549,0.073,0.925c-0.391,0.646-0.791,1.286-1.198,1.922
		c-2.159,3.369-4.324,6.734-6.481,10.104c-2.3,3.593-4.593,7.189-6.889,10.784c-1.687,2.641-3.375,5.28-5.059,7.922
		c-1.968,3.088-3.931,6.179-5.9,9.266c-0.832,1.305-1.674,2.604-2.51,3.906c-0.632,0.985-1.254,1.976-1.894,2.956
		c-0.569,0.87-0.606,0.902-1.557,0.628c-1.06-0.306-2.147-0.419-3.233-0.544c-0.522-0.06-1.059-0.061-1.583-0.015
		c-1.93,0.167-3.803,0.577-5.572,1.4c-0.79,0.368-1.527,0.824-2.25,1.305c-0.251,0.167-0.497,0.343-0.755,0.499
		c-0.203,0.123-0.433,0.14-0.656,0.064c-0.25-0.084-0.495-0.183-0.738-0.287c-3.369-1.433-6.739-2.865-10.106-4.304
		c-3.436-1.469-6.868-2.948-10.303-4.418c-3.435-1.471-6.873-2.936-10.309-4.405c-2.256-0.965-4.511-1.932-6.767-2.897
		c-0.173-0.074-0.346-0.152-0.523-0.215c-0.233-0.083-0.446-0.031-0.63,0.131c-0.113,0.1-0.227,0.2-0.333,0.306
		c-1.976,1.975-3.951,3.951-5.923,5.931c-0.13,0.13-0.234,0.29-0.328,0.45c-0.027,0.046,0.002,0.165,0.046,0.204
		c0.111,0.098,0.236,0.188,0.371,0.248c0.654,0.293,1.312,0.58,1.971,0.861c2.118,0.904,4.238,1.802,6.356,2.706
		c2.396,1.022,4.791,2.045,7.185,3.07c2.36,1.01,4.717,2.026,7.077,3.035c2.915,1.247,5.831,2.492,8.748,3.736
		c2.257,0.963,4.514,1.924,6.771,2.886c0.625,0.266,1.25,0.532,1.874,0.802c0.138,0.06,0.274,0.128,0.402,0.207
		c0.238,0.147,0.397,0.354,0.388,0.646c-0.009,0.263-0.026,0.528-0.063,0.788c-0.607,4.247,0.337,8.094,2.961,11.51
		c0.253,0.329,0.508,0.657,0.757,0.989c0.178,0.236,0.179,0.492,0.042,0.744c-0.126,0.232-0.26,0.46-0.402,0.682
		c-1.446,2.257-2.899,4.509-4.341,6.768c-1.971,3.086-3.931,6.179-5.901,9.265c-1.463,2.291-2.937,4.574-4.401,6.864
		c-1.464,2.29-2.919,4.586-4.382,6.876c-1.382,2.163-2.772,4.322-4.154,6.484c-1.545,2.417-3.085,4.838-4.629,7.256
		c-0.487,0.764-0.978,1.526-1.467,2.288c-0.958,1.493-1.914,2.988-2.876,4.479c-0.143,0.221-0.303,0.433-0.472,0.634
		c-0.155,0.184-0.374,0.262-0.61,0.228c-0.411-0.06-0.822-0.123-1.226-0.214c-0.556-0.125-1.118-0.175-1.686-0.181
		c-0.604-0.006-1.208-0.011-1.812-0.006c-0.68,0.006-1.359,0.03-2.024,0.199c-0.073,0.019-0.149,0.026-0.223,0.037
		c-0.934,0.144-0.991,0.123-1.51-0.621c-0.518-0.743-1.038-1.485-1.549-2.233c-1.428-2.088-2.846-4.182-4.277-6.268
		c-2.157-3.144-4.322-6.282-6.483-9.423c-0.877-1.275-1.753-2.551-2.626-3.829c-1.533-2.245-3.057-4.495-4.594-6.737
		c-2.199-3.207-4.407-6.407-6.61-9.611c-0.898-1.306-1.796-2.614-2.69-3.923c-1.469-2.151-2.933-4.305-4.403-6.456
		c-0.447-0.654-0.903-1.303-1.364-1.948c-0.108-0.151-0.245-0.283-0.377-0.416c-0.088-0.089-0.325-0.101-0.427-0.029
		c-0.123,0.087-0.254,0.167-0.359,0.272c-1.845,1.839-3.687,3.681-5.529,5.523c-0.027,0.027-0.052,0.055-0.078,0.083
		c-0.378,0.414-0.398,0.604-0.079,1.102c0.264,0.413,0.543,0.818,0.821,1.222c1.58,2.303,3.164,4.605,4.744,6.909
		c2.049,2.989,4.094,5.981,6.143,8.97c1.601,2.335,3.206,4.668,4.807,7.003c2.007,2.927,4.01,5.855,6.016,8.782
		c1.729,2.522,3.458,5.044,5.188,7.565c1.708,2.49,3.419,4.979,5.125,7.471c0.213,0.311,0.417,0.629,0.61,0.953
		c0.153,0.256,0.109,0.507-0.076,0.734c-0.286,0.351-0.569,0.705-0.864,1.049c-0.519,0.603-0.971,1.252-1.367,1.942
		c-0.094,0.164-0.2,0.32-0.304,0.477c-0.159,0.239-0.375,0.37-0.669,0.33c-0.262-0.035-0.525-0.066-0.783-0.12
		c-2.218-0.459-4.434-0.922-6.651-1.383c-1.774-0.369-3.548-0.735-5.321-1.108c-2.992-0.628-5.983-1.261-8.975-1.889
		c-2.844-0.597-5.688-1.195-8.534-1.786c-2.771-0.576-5.546-1.138-8.316-1.718c-3.768-0.789-7.533-1.594-11.3-2.384
		c-2.918-0.612-5.84-1.208-8.759-1.816c-2.845-0.592-5.689-1.191-8.534-1.785c-0.776-0.162-1.554-0.313-2.33-0.473
		c-0.319-0.066-0.608-0.011-0.839,0.219c-0.616,0.611-1.226,1.228-1.83,1.851c-0.169,0.174-0.161,0.44-0.006,0.621
		c0.147,0.172,0.299,0.34,0.459,0.5c2.268,2.271,4.537,4.54,6.806,6.809c0.133,0.133,0.27,0.264,0.409,0.391
		c0.17,0.155,0.366,0.264,0.593,0.315c0.552,0.123,1.103,0.254,1.657,0.37c3.214,0.672,6.428,1.343,9.642,2.011
		c3.879,0.807,7.76,1.607,11.639,2.419c4.137,0.866,8.271,1.747,12.408,2.614c2.992,0.627,5.986,1.241,8.979,1.862
		c3.289,0.683,6.577,1.368,9.865,2.051c1.884,0.392,3.769,0.781,5.653,1.178c0.143,0.03,0.276,0.114,0.41,0.178
		c0.083,0.039,0.103,0.247,0.03,0.298c-0.123,0.085-0.241,0.184-0.375,0.244c-0.898,0.397-1.797,0.789-2.7,1.175
		c-2.88,1.234-5.762,2.461-8.64,3.7c-3.571,1.538-7.137,3.087-10.707,4.627c-1.802,0.777-3.611,1.54-5.414,2.316
		c-1.422,0.611-2.84,1.231-4.259,1.848c-0.208,0.09-0.413,0.187-0.616,0.286c-0.279,0.136-0.326,0.323-0.137,0.533
		c0.101,0.112,0.203,0.224,0.309,0.331c1.895,1.896,3.79,3.791,5.686,5.686c0.133,0.133,0.271,0.263,0.409,0.392
		c0.242,0.226,0.517,0.302,0.832,0.17c0.766-0.32,1.534-0.635,2.297-0.962c2.013-0.861,4.025-1.724,6.036-2.59
		c2.426-1.046,4.85-2.098,7.276-3.144c2.912-1.255,5.825-2.506,8.737-3.761c1.525-0.657,3.048-1.321,4.574-1.976
		c0.346-0.148,0.7-0.28,1.056-0.405c0.234-0.082,0.464-0.029,0.618,0.161c0.283,0.351,0.549,0.717,0.807,1.088
		c0.141,0.202,0.136,0.438,0.011,0.644c-0.409,0.679-0.823,1.355-1.25,2.023c-2.013,3.149-4.033,6.293-6.048,9.441
		c-1.75,2.734-3.496,5.471-5.244,8.207c-1.159,1.813-2.318,3.626-3.476,5.439c-0.122,0.191-0.246,0.381-0.357,0.578
		c-0.239,0.423-0.217,0.69,0.082,1.033c0.099,0.114,0.203,0.223,0.31,0.33c1.815,1.815,3.631,3.631,5.448,5.444
		c0.106,0.106,0.227,0.198,0.343,0.293c0.107,0.088,0.309,0.047,0.402-0.078c0.045-0.06,0.094-0.118,0.135-0.181
		c1.202-1.875,2.405-3.75,3.605-5.626c0.651-1.018,1.294-2.04,1.946-3.057c2.16-3.369,4.324-6.734,6.482-10.104
		c1.608-2.512,3.207-5.029,4.813-7.541c0.183-0.286,0.379-0.564,0.581-0.836c0.149-0.201,0.364-0.261,0.604-0.216
		c0.222,0.042,0.446,0.085,0.662,0.149c0.835,0.247,1.695,0.373,2.551,0.511c0.297,0.048,0.6,0.065,0.902,0.076
		c0.415,0.016,0.83,0.01,1.246,0.017c1.794,0.032,3.53-0.282,5.226-0.852c0.394-0.132,0.789-0.258,1.182-0.393
		c0.372-0.128,0.665-0.012,0.898,0.283c0.164,0.207,0.326,0.416,0.475,0.634c1.026,1.494,2.049,2.989,3.072,4.485
		c2.344,3.428,4.685,6.858,7.03,10.285c1.748,2.555,3.501,5.106,5.251,7.659c1.878,2.74,3.757,5.48,5.635,8.22
		c1.878,2.74,3.754,5.482,5.632,8.222c1.899,2.772,3.799,5.543,5.698,8.314c1.729,2.522,3.459,5.043,5.188,7.565
		c1.9,2.771,3.799,5.543,5.699,8.314c1.729,2.522,3.456,5.045,5.188,7.565c2.117,3.08,4.239,6.156,6.357,9.235
		c1.027,1.493,2.048,2.99,3.07,4.486c1.469,2.151,2.934,4.305,4.403,6.456c0.83,1.216,1.666,2.428,2.499,3.642
		c0.107,0.156,0.213,0.312,0.317,0.469c0.59,0.892,0.588,0.907-0.199,1.706c-0.133,0.134-0.267,0.267-0.401,0.4
		c-4.111,4.111-8.223,8.222-12.332,12.335c-0.346,0.347-0.724,0.668-0.98,1.096c-0.076,0-0.151,0-0.227,0
		c-0.412-0.442-0.811-0.896-1.237-1.323c-29.914-29.918-59.83-59.833-89.746-89.75c-4.91-4.91-9.815-9.826-14.726-14.737
		c-4.59-4.59-9.186-9.175-13.776-13.765c-8.913-8.914-17.823-17.831-26.735-26.746c-0.267-0.267-0.536-0.531-0.806-0.795
		c-0.193-0.189-0.418-0.32-0.687-0.37c0-0.076,0-0.151,0-0.227c0.499-0.29,0.864-0.731,1.264-1.13
		c16.443-16.44,32.884-32.883,49.326-49.325c31.843-31.843,63.685-63.686,95.528-95.528c0.294-0.294,0.594-0.581,0.877-0.885
		c0.178-0.192,0.329-0.411,0.491-0.617C150.363,2.727,150.514,2.727,150.666,2.727z"/>
	<path fill="#FC8583" d="M297.925,150.439c-0.261,0.105-0.513,0.077-0.768-0.033c-1.074-0.463-2.151-0.92-3.227-1.38
		c-2.464-1.053-4.927-2.107-7.391-3.161c-3.297-1.409-6.593-2.818-9.89-4.227c-2.88-1.231-5.762-2.459-8.642-3.691
		c-2.359-1.01-4.716-2.024-7.076-3.035c-2.359-1.01-4.719-2.019-7.079-3.027c-2.811-1.201-5.623-2.399-8.435-3.599
		c-2.916-1.245-5.831-2.489-8.746-3.735c-2.256-0.964-4.511-1.93-6.766-2.895c-2.463-1.055-4.927-2.108-7.388-3.168
		c-0.31-0.133-0.605-0.301-0.903-0.462c-0.114-0.062-0.123-0.339-0.016-0.401c0.227-0.132,0.451-0.274,0.691-0.378
		c1.627-0.706,3.258-1.403,4.887-2.104c2.045-0.88,4.09-1.761,6.135-2.641c2.392-1.029,4.784-2.057,7.175-3.088
		c2.599-1.121,5.197-2.245,7.795-3.366c1.074-0.463,2.15-0.924,3.226-1.382c0.138-0.059,0.284-0.103,0.429-0.141
		c0.194-0.051,0.376-0.001,0.533,0.116c0.121,0.09,0.235,0.19,0.343,0.295c0.271,0.263,0.537,0.531,0.804,0.798
		c14.413,14.413,28.826,28.826,43.241,43.238c0.347,0.347,0.71,0.678,1.065,1.016C297.925,150.137,297.925,150.288,297.925,150.439z
		"/>
	<path fill="#FC8583" d="M200.374,180.021c0.141-0.906,0.242-1.578,0.351-2.249c0.491-3.017,0.989-6.033,1.474-9.051
		c0.431-2.683,0.843-5.368,1.271-8.051c0.304-1.901,0.626-3.798,0.932-5.698c0.371-2.31,0.73-4.622,1.099-6.932
		c0.232-1.453,0.476-2.905,0.712-4.358c0.278-1.713,0.555-3.427,0.829-5.141c0.316-1.975,0.629-3.95,0.944-5.925
		c0.012-0.075,0.029-0.148,0.039-0.223c0.079-0.585,0.35-0.946,0.987-1.056c0.628-0.109,1.251-0.296,1.851-0.515
		c1.797-0.657,3.398-1.631,4.723-3.03c0.337-0.356,0.687-0.701,1.025-1.056c0.272-0.285,0.58-0.318,0.929-0.168
		c0.485,0.209,0.974,0.41,1.46,0.617c3.818,1.632,7.636,3.265,11.455,4.896c3.957,1.691,7.915,3.379,11.871,5.072
		c3.436,1.47,6.868,2.949,10.304,4.417c2.707,1.157,5.42,2.301,8.128,3.457c2.847,1.215,5.691,2.437,8.536,3.656
		c2.394,1.026,4.788,2.051,7.183,3.076c2.915,1.248,5.829,2.498,8.745,3.743c1.18,0.504,2.365,0.997,3.546,1.5
		c0.382,0.163,0.759,0.336,1.135,0.512c0.101,0.047,0.19,0.121,0.283,0.186c0.103,0.071,0.148,0.311,0.075,0.414
		c-0.087,0.122-0.17,0.25-0.273,0.359c-0.233,0.247-0.476,0.485-0.716,0.725c-12.761,12.761-25.522,25.522-38.283,38.283
		c-0.267,0.267-0.538,0.529-0.806,0.796c-0.229,0.228-0.498,0.335-0.821,0.281c-0.298-0.05-0.597-0.094-0.892-0.156
		c-4.026-0.846-8.051-1.698-12.078-2.54c-2.955-0.618-5.914-1.223-8.87-1.838c-2.291-0.476-4.58-0.96-6.871-1.437
		c-3.03-0.631-6.061-1.256-9.091-1.887c-1.589-0.331-3.177-0.666-4.765-1c-0.074-0.015-0.149-0.024-0.223-0.04
		c-1.243-0.274-1.354-0.273-1.6-1.647c-0.437-2.436-1.514-4.572-3.248-6.358c-0.316-0.325-0.639-0.642-0.963-0.959
		C200.503,180.446,200.335,180.165,200.374,180.021z"/>
	<path fill="#FC8583" d="M187.14,203.279c-0.074,0.481-0.162,1.078-0.257,1.674c-0.445,2.795-0.889,5.59-1.337,8.385
		c-0.233,1.453-0.476,2.905-0.712,4.358c-0.278,1.714-0.553,3.428-0.83,5.141c-0.422,2.608-0.849,5.215-1.266,7.823
		c-0.429,2.683-0.845,5.368-1.272,8.052c-0.231,1.454-0.476,2.905-0.712,4.358c-0.278,1.714-0.552,3.428-0.829,5.141
		c-0.422,2.608-0.849,5.215-1.266,7.823c-0.429,2.683-0.842,5.369-1.272,8.052c-0.317,1.975-0.651,3.947-0.975,5.921
		c-0.098,0.596-0.196,1.191-0.286,1.788c-0.064,0.425-0.238,0.788-0.545,1.093c-1.045,1.037-2.085,2.08-3.129,3.118
		c-0.079,0.079-0.18,0.135-0.273,0.199c-0.096,0.066-0.34,0.034-0.424-0.056c-0.077-0.082-0.16-0.162-0.225-0.253
		c-0.331-0.46-0.664-0.918-0.984-1.385c-1.364-1.994-2.722-3.993-4.087-5.987c-2.025-2.96-4.052-5.919-6.079-8.877
		c-1.644-2.398-3.289-4.794-4.936-7.19c-2.181-3.173-4.365-6.345-6.547-9.518c-0.193-0.28-0.38-0.564-0.572-0.844
		c-2.385-3.491-4.77-6.983-7.158-10.473c-1.727-2.524-3.459-5.044-5.188-7.566c-1.9-2.771-3.799-5.543-5.699-8.314
		c-1.729-2.522-3.457-5.046-5.189-7.566c-2.117-3.08-4.24-6.156-6.358-9.236c-1.006-1.462-2.007-2.927-3.007-4.392
		c-1.363-1.995-2.72-3.994-4.086-5.988c-1.621-2.367-3.249-4.73-4.872-7.096c-0.192-0.28-0.374-0.567-0.553-0.856
		c-0.154-0.248-0.145-0.503,0.004-0.749c0.215-0.355,0.426-0.713,0.658-1.056c0.136-0.201,0.359-0.278,0.597-0.255
		c0.224,0.021,0.447,0.067,0.668,0.113c3.583,0.753,7.164,1.513,10.748,2.26c3.067,0.639,6.137,1.259,9.204,1.897
		c2.291,0.476,4.578,0.974,6.868,1.451c4.249,0.886,8.5,1.76,12.749,2.648c4.137,0.866,8.271,1.748,12.408,2.616
		c2.955,0.62,5.913,1.227,8.869,1.841c2.956,0.614,5.912,1.23,8.867,1.848c0.406,0.085,0.811,0.176,1.214,0.279
		c0.272,0.069,0.466,0.247,0.567,0.51c0.108,0.282,0.206,0.568,0.301,0.854c0.591,1.788,1.582,3.343,2.854,4.71
		c0.798,0.858,1.732,1.572,2.75,2.165c0.424,0.247,0.85,0.491,1.268,0.747C187.05,202.635,187.154,202.866,187.14,203.279z"/>
	<path fill="#FC8583" d="M198.916,130.143c-0.011,0.07-0.038,0.257-0.068,0.443c-0.425,2.646-0.847,5.292-1.275,7.937
		c-0.416,2.571-0.843,5.139-1.255,7.711c-0.429,2.683-0.843,5.369-1.269,8.052c-0.225,1.416-0.467,2.83-0.694,4.246
		c-0.448,2.795-0.889,5.59-1.337,8.385c-0.221,1.379-0.45,2.757-0.674,4.135c-0.285,1.751-0.569,3.502-0.853,5.252
		c-0.012,0.075-0.017,0.15-0.03,0.224c-0.144,0.821-0.308,0.989-1.176,1.107c-2.425,0.329-4.534,1.335-6.42,2.882
		c-1.006,0.826-1.834,1.788-2.543,2.866c-0.544,0.828-0.624,0.868-1.571,0.67c-3.547-0.744-7.091-1.496-10.638-2.236
		c-2.993-0.625-5.989-1.236-8.982-1.859c-2.365-0.492-4.727-0.997-7.092-1.49c-2.809-0.585-5.62-1.155-8.428-1.743
		c-3.768-0.79-7.533-1.597-11.301-2.386c-3.067-0.641-6.138-1.261-9.205-1.899c-2.254-0.468-4.506-0.952-6.759-1.425
		c-2.364-0.496-4.73-0.986-7.094-1.483c-0.294-0.062-0.587-0.139-0.873-0.231c-0.229-0.073-0.379-0.247-0.441-0.48
		c-0.067-0.255-0.127-0.513-0.175-0.772c-0.068-0.371-0.125-0.744-0.183-1.117c-0.078-0.501,0.02-0.713,0.445-0.922
		c0.305-0.15,0.614-0.291,0.926-0.426c1.178-0.509,2.359-1.012,3.538-1.52c3.189-1.375,6.378-2.752,9.567-4.126
		c2.254-0.97,4.509-1.937,6.764-2.904c2.914-1.25,5.83-2.496,8.744-3.748c3.191-1.371,6.38-2.745,9.569-4.121
		c3.605-1.556,7.206-3.12,10.812-4.672c3.398-1.462,6.803-2.909,10.201-4.371c2.532-1.089,5.057-2.193,7.587-3.285
		c2.288-0.987,4.579-1.966,6.869-2.948c2.914-1.25,5.829-2.498,8.742-3.751c1.318-0.567,2.63-1.147,3.946-1.716
		c0.207-0.09,0.422-0.163,0.638-0.228c0.189-0.056,0.386-0.031,0.54,0.088c0.388,0.299,0.768,0.611,1.144,0.926
		C198.863,129.421,198.942,129.707,198.916,130.143z"/>
	<path fill="#FC8583" d="M209.803,62.532c-0.03,0.186-0.061,0.372-0.091,0.558c-0.498,3.092-0.993,6.185-1.494,9.277
		c-0.489,3.017-0.99,6.033-1.474,9.05c-0.431,2.682-0.843,5.368-1.27,8.051c-0.231,1.453-0.477,2.905-0.714,4.357
		c-0.346,2.123-0.691,4.246-1.032,6.37c-0.239,1.49-0.471,2.982-0.707,4.472c-0.024,0.149-0.048,0.298-0.082,0.445
		c-0.082,0.351-0.263,0.621-0.622,0.746c-0.214,0.074-0.426,0.154-0.637,0.237c-0.845,0.333-1.657,0.731-2.417,1.231
		c-0.252,0.166-0.505,0.331-0.763,0.488c-0.203,0.123-0.428,0.153-0.654,0.085c-0.216-0.064-0.431-0.139-0.639-0.228
		c-1.666-0.711-3.33-1.429-4.996-2.141c-2.777-1.186-5.556-2.367-8.333-3.553c-2.361-1.008-4.72-2.02-7.079-3.029
		c-2.429-1.04-4.858-2.079-7.287-3.118c-2.325-0.995-4.65-1.991-6.975-2.986c-1.909-0.817-3.818-1.633-5.725-2.452
		c-0.312-0.134-0.62-0.277-0.926-0.424c-0.33-0.158-0.52-0.426-0.588-0.783c-0.042-0.222-0.087-0.444-0.119-0.668
		c-0.264-1.813-0.845-3.515-1.759-5.107c-0.608-1.058-0.642-1.048,0.055-2.141c0.792-1.241,1.57-2.491,2.364-3.731
		c2.137-3.338,4.282-6.672,6.419-10.009c1.69-2.638,3.376-5.279,5.06-7.921c1.968-3.087,3.932-6.178,5.9-9.265
		c0.832-1.305,1.677-2.602,2.509-3.907c1.401-2.196,2.795-4.396,4.196-6.592c0.812-1.273,1.627-2.544,2.448-3.812
		c0.143-0.22,0.305-0.431,0.487-0.619c0.057-0.059,0.215-0.059,0.313-0.032c0.102,0.028,0.197,0.109,0.278,0.186
		c0.247,0.234,0.486,0.475,0.727,0.715c8.169,8.169,16.338,16.338,24.506,24.507c0.267,0.267,0.53,0.538,0.792,0.81
		C209.722,61.859,209.838,62.168,209.803,62.532z"/>
	<path fill="#FC8583" d="M140.328,105.821c0.076,0,0.151-0.001,0.227,0c3.302,0.056,6.219-1.03,8.846-2.98
		c0.975-0.724,1.86-1.539,2.593-2.514c0.227-0.302,0.468-0.592,0.707-0.884c0.271-0.332,0.467-0.381,0.896-0.222
		c0.248,0.092,0.493,0.19,0.736,0.294c2.29,0.98,4.58,1.962,6.87,2.944c2.394,1.026,4.788,2.053,7.182,3.078
		c2.915,1.248,5.829,2.497,8.746,3.742c3.298,1.408,6.598,2.812,9.896,4.219c1.736,0.74,3.472,1.481,5.205,2.228
		c0.241,0.104,0.475,0.232,0.699,0.37c0.206,0.127,0.297,0.335,0.304,0.575c0.003,0.113,0.005,0.229-0.018,0.338
		c-0.143,0.671-0.157,1.348-0.109,2.029c0.024,0.339-0.116,0.587-0.426,0.728c-0.481,0.218-0.963,0.436-1.448,0.645
		c-3.258,1.407-6.515,2.814-9.775,4.215c-2.913,1.252-5.831,2.492-8.745,3.744c-1.908,0.819-3.809,1.652-5.716,2.474
		c-2.357,1.017-4.715,2.031-7.074,3.043c-2.393,1.028-4.788,2.051-7.181,3.08c-3.121,1.342-6.24,2.688-9.36,4.032
		c-2.357,1.015-4.715,2.03-7.073,3.045c-3.086,1.328-6.172,2.656-9.257,3.984c-2.878,1.239-5.756,2.477-8.634,3.715
		c-3.121,1.343-6.241,2.685-9.362,4.027c-1.075,0.462-2.15,0.925-3.228,1.381c-0.171,0.072-0.355,0.123-0.537,0.159
		c-0.055,0.011-0.132-0.053-0.188-0.096c-0.022-0.017-0.033-0.079-0.021-0.106c0.094-0.203,0.179-0.413,0.298-0.601
		c0.563-0.894,1.135-1.783,1.706-2.673c1.467-2.288,2.939-4.573,4.402-6.864c1.3-2.036,2.59-4.079,3.887-6.117
		c0.73-1.146,1.465-2.289,2.199-3.433c1.489-2.319,2.982-4.635,4.466-6.957c1.423-2.226,2.834-4.461,4.257-6.688
		c1.422-2.227,2.856-4.447,4.278-6.674c1.341-2.1,2.672-4.206,4.012-6.306c0.893-1.4,1.787-2.8,2.695-4.191
		c0.535-0.82,0.59-0.834,1.572-0.814c0.264,0.005,0.528,0.019,0.792,0.024c0.226,0.004,0.453,0.001,0.68,0.001
		C140.328,105.816,140.328,105.819,140.328,105.821z"/>
	<path fill="#FC8583" d="M187.515,260.141c0.01-0.135,0.038-0.436,0.087-0.733c0.411-2.532,0.831-5.062,1.238-7.594
		c0.407-2.532,0.8-5.067,1.204-7.6c0.255-1.602,0.523-3.202,0.779-4.803c0.362-2.272,0.714-4.546,1.079-6.818
		c0.311-1.937,0.634-3.872,0.949-5.808c0.273-1.675,0.542-3.351,0.813-5.027c0.428-2.644,0.859-5.287,1.282-7.931
		c0.428-2.682,0.844-5.366,1.271-8.049c0.131-0.819,0.283-1.636,0.425-2.453c0.055-0.317,0.22-0.558,0.509-0.706
		c0.201-0.104,0.403-0.207,0.607-0.304c1.446-0.69,2.734-1.596,3.829-2.771c0.257-0.276,0.524-0.543,0.792-0.809
		c0.201-0.199,0.452-0.275,0.728-0.226c0.446,0.079,0.89,0.167,1.333,0.26c3.397,0.709,6.794,1.421,10.191,2.132
		c2.732,0.572,5.464,1.147,8.197,1.716c4.247,0.884,8.495,1.763,12.743,2.646c1.773,0.368,3.545,0.739,5.316,1.116
		c0.18,0.038,0.362,0.108,0.516,0.206c0.065,0.041,0.093,0.201,0.075,0.295c-0.021,0.102-0.104,0.2-0.18,0.281
		c-0.206,0.221-0.42,0.433-0.634,0.647c-17.292,17.292-34.584,34.584-51.877,51.875c-0.293,0.293-0.6,0.571-0.909,0.847
		c-0.046,0.041-0.137,0.036-0.209,0.041C187.582,260.575,187.495,260.432,187.515,260.141z"/>
	<path fill="#FC8583" d="M212.284,106.092c0.008-0.072,0.018-0.261,0.049-0.446c0.478-2.941,0.965-5.88,1.437-8.822
		c0.424-2.644,0.829-5.291,1.25-7.935c0.303-1.9,0.622-3.797,0.931-5.695c0.279-1.712,0.556-3.425,0.83-5.138
		c0.322-2.011,0.636-4.023,0.962-6.034c0.066-0.408,0.168-0.812,0.263-1.215c0.042-0.176,0.32-0.259,0.467-0.148
		c0.12,0.091,0.243,0.179,0.351,0.282c0.219,0.207,0.431,0.423,0.644,0.637c8.111,8.111,16.223,16.222,24.334,24.334
		c0.267,0.267,0.534,0.533,0.79,0.81c0.304,0.33,0.242,0.569-0.193,0.781c-0.203,0.099-0.41,0.193-0.617,0.283
		c-2.008,0.87-4.015,1.741-6.025,2.606c-2.356,1.015-4.715,2.023-7.072,3.036c-1.802,0.775-3.603,1.552-5.405,2.329
		c-2.044,0.881-4.088,1.761-6.132,2.643c-0.658,0.284-1.315,0.572-1.972,0.856c-0.138,0.06-0.279,0.115-0.42,0.169
		c-0.347,0.133-0.654,0.091-0.939-0.172c-0.416-0.383-0.835-0.765-1.279-1.113c-0.445-0.348-0.923-0.654-1.388-0.975
		c-0.186-0.128-0.384-0.24-0.567-0.372C212.387,106.652,212.299,106.447,212.284,106.092z"/>
</g>
</svg>
