<?xml version="1.0" encoding="utf-8"?>
<!-- Generator: Adobe Illustrator 17.0.0, SVG Export Plug-In . SVG Version: 6.00 Build 0)  -->
<!DOCTYPE svg PUBLIC "-//W3C//DTD SVG 1.1//EN" "http://www.w3.org/Graphics/SVG/1.1/DTD/svg11.dtd">
<svg version="1.1" id="Capa_1" xmlns="http://www.w3.org/2000/svg" xmlns:xlink="http://www.w3.org/1999/xlink" x="0px" y="0px"
	 width="300px" height="300px" viewBox="0 0 300 300" enable-background="new 0 0 300 300" xml:space="preserve">
<g>
	<path fill="#f9bdbc" d="M145.967,298.076c-9.765-3.278-17.851-9.642-26.715-14.573c-5.449-3.031-10.769-6.297-16.127-9.489
		c-0.816-0.486-1.587-1.084-2.279-1.736c-1.325-1.248-1.145-2.549,0.505-3.14c5.884-2.107,11.558-4.643,17.043-7.634
		c1.348-0.735,2.617,0.084,3.775,0.776c7.91,4.722,15.885,9.342,23.678,14.251c3.059,1.927,5.481,2.057,8.698,0.167
		c19.276-11.326,38.689-22.419,58.038-33.62c15.363-8.894,30.689-17.853,46.067-26.72c2.05-1.182,2.618-2.823,2.607-5.009
		c-0.044-8.833-0.016-17.666-0.016-26.499c0-31.396-0.051-62.791,0.073-94.186c0.014-3.46-1.206-5.309-4.162-6.994
		c-22.843-13.021-45.589-26.213-68.361-39.359c-11.802-6.813-23.612-13.614-35.383-20.48c-2.152-1.255-4.065-1.231-6.202,0.008
		c-27.31,15.84-54.638,31.648-81.967,47.453c-7.643,4.42-15.274,8.865-22.98,13.172c-2.132,1.192-2.902,2.749-2.9,5.111
		c0.038,40.517,0.039,81.033,0,121.55c-0.003,2.721,1.068,4.397,3.452,5.732c8.037,4.5,15.971,9.184,23.941,13.803
		c3.753,2.175,7.599,4.051,11.949,4.807c9.418,1.635,17.065-4.622,17.069-14.171c0.018-39.46,0.008-78.921,0.009-118.381
		c0-1.056-0.036-2.115,0.026-3.168c0.18-3.083,1.402-4.407,4.454-4.485c4.03-0.102,8.066-0.11,12.095,0.009
		c3.103,0.091,4.263,1.384,4.304,4.528c0.05,3.936,0.016,7.873,0.016,11.809c0,37.06-0.004,74.12,0.003,111.181
		c0.001,6.925-1.137,13.603-4.694,19.637c-4.975,8.439-12.84,12.22-22.23,13.654c-12.559,1.919-23.391-2.746-33.919-8.589
		c-7.467-4.144-14.724-8.672-22.252-12.697c-7.004-3.744-11.723-9.13-13.797-16.805c0-44.941,0-89.883,0-134.824
		c2.587-8.722,8.887-13.811,16.534-18.157c27.947-15.882,55.659-32.176,83.547-48.162c8.383-4.805,16.292-10.527,25.524-13.769
		c3.457,0,6.914,0,10.371,0c2.072,0.994,4.344,1.449,6.369,2.624c13.114,7.609,26.284,15.123,39.408,22.715
		c21.182,12.252,42.262,24.683,63.557,36.736c7.562,4.28,13.793,9.342,16.272,18.014c0,44.941,0,89.883,0,134.824
		c-1.814,6.429-5.222,11.783-11.053,15.207c-13.728,8.062-27.545,15.974-41.32,23.956c-16.265,9.424-32.443,19.005-48.823,28.225
		c-7.985,4.495-15.387,10.178-24.409,12.701C152.497,298.076,149.232,298.076,145.967,298.076z"/>
	<path fill="#f9bdbc" d="M183.642,212.365c-11.194,0.11-22.374-1.126-33.147-5.192c-14.822-5.593-23.486-17.459-24.092-33.273
		c-0.146-3.822,1.384-5.457,5.254-5.497c3.744-0.039,7.488,0.034,11.232-0.018c2.735-0.038,4.211,1.137,4.744,3.906
		c2.337,12.134,6.8,16.665,18.871,18.826c11.818,2.115,23.666,2.183,35.468-0.293c2.448-0.514,4.853-1.147,7.039-2.439
		c5.578-3.298,8.122-8.729,7.114-15.11c-0.6-3.793-3.187-5.707-6.425-7.105c-7.424-3.207-15.369-4.158-23.258-5.105
		c-12.001-1.441-24-2.57-35.625-6.302c-21.192-6.802-27.875-33.767-12.231-49.658c6.616-6.721,14.738-10.196,23.785-11.93
		c16.64-3.189,33.079-2.621,48.992,3.498c14.503,5.577,20.996,17.18,22.674,31.983c0.349,3.075-1.386,5.003-4.485,5.106
		c-3.931,0.131-7.871,0.08-11.805-0.003c-2.359-0.05-3.887-1.238-4.598-3.608c-0.687-2.289-1.149-4.653-2.252-6.822
		c-2.653-5.216-6.9-8.495-12.476-9.849c-12.139-2.947-24.322-3.173-36.416,0.289c-6.215,1.779-9.677,6.385-9.659,12.389
		c0.014,4.475,1.743,6.833,5.959,8.469c7.422,2.881,15.292,3.653,23.05,4.846c8.814,1.355,17.704,2.212,26.423,4.176
		c6.011,1.354,11.881,3.101,17.304,6.12c8.347,4.647,12.552,11.854,13.119,21.28c1.078,17.947-7.668,30.884-24.626,36.861
		c-4.747,1.673-9.624,2.594-14.516,3.548C194.034,212.438,188.931,212.281,183.642,212.365z"/>
</g>
</svg>
