<?xml version="1.0" encoding="utf-8"?>
<!-- Generator: Adobe Illustrator 17.0.0, SVG Export Plug-In . SVG Version: 6.00 Build 0)  -->
<!DOCTYPE svg PUBLIC "-//W3C//DTD SVG 1.1//EN" "http://www.w3.org/Graphics/SVG/1.1/DTD/svg11.dtd">
<svg version="1.1" id="Capa_1" xmlns="http://www.w3.org/2000/svg" xmlns:xlink="http://www.w3.org/1999/xlink" x="0px" y="0px"
	 width="300px" height="300px" viewBox="698.5 0 300 300" enable-background="new 698.5 0 300 300" xml:space="preserve">
<g>
	<path fill="#f9bdbc" d="M848.621,6.227c31.653,0,63.306-0.001,94.959,0c29.309,0.001,52.418,23.095,52.419,52.386
		c0.001,60.911,0.001,121.823,0,182.734c-0.001,29.27-23.132,52.417-52.413,52.421c-63.231,0.008-126.462,0.004-189.693,0.002
		c-29.607-0.001-52.787-22.917-52.829-52.523c-0.087-60.836-0.083-121.673-0.005-182.51c0.038-29.609,23.21-52.515,52.827-52.511
		C785.464,6.23,817.043,6.227,848.621,6.227z M767.395,144.564c0.003,0,0.005,0,0.008,0c0,20.727,0.024,41.455-0.037,62.182
		c-0.006,2.057,0.64,2.766,2.701,2.742c6.958-0.08,13.917-0.031,20.876,0.008c2.871,0.016,3.237-0.292,3.238-3.143
		c0.005-11.748,0.087-23.497-0.051-35.243c-0.028-2.41,0.767-2.873,2.926-2.762c7.928,0.408,15.855,0.385,23.73-0.812
		c9.707-1.475,18.703-4.633,26.157-11.314c9.758-8.746,13.385-19.979,13.446-32.756c0.091-19.183-10.513-34.22-28.526-40.478
		c-8.767-3.045-17.803-3.822-26.959-3.705c-11.517,0.147-23.031,0.483-34.548,0.713c-2.945,0.059-2.96,0.027-2.96,3.06
		C767.395,103.558,767.395,124.061,767.395,144.564z M873.399,193.648c0,2.917,0.009,5.835-0.002,8.752
		c-0.013,3.396,0.286,3.845,3.524,5.079c12.091,4.608,24.618,5.435,37.319,3.926c7.203-0.856,13.968-3.185,19.825-7.716
		c11.662-9.023,14.531-26.523,6.22-38.433c-3.632-5.205-8.999-8.184-14.437-11.079c-6.613-3.521-13.943-5.388-20.519-8.986
		c-1.518-0.831-3.01-1.69-4.191-2.959c-3.083-3.312-1.937-7.825,2.349-9.312c1.559-0.541,3.175-0.85,4.829-0.921
		c9.708-0.416,19.069,1.008,27.919,5.214c2.757,1.31,3.627,0.724,3.629-2.347c0.004-5.984-0.063-11.969,0.029-17.952
		c0.03-1.945-0.683-2.978-2.496-3.666c-4.739-1.8-9.674-2.545-14.669-2.981c-10.798-0.941-21.5-1.133-31.652,3.698
		c-10.054,4.784-16.07,12.56-17.202,23.653c-1.21,11.855,4.076,20.553,13.889,26.903c5.889,3.811,12.319,6.372,18.786,8.926
		c3.468,1.37,6.998,2.715,9.784,5.343c3.076,2.9,2.413,7.216-1.366,9.091c-2.678,1.329-5.571,1.639-8.505,1.696
		c-10.756,0.208-20.908-2.1-30.374-7.289c-2.174-1.191-2.672-0.867-2.688,1.711C873.379,187.215,873.394,190.432,873.399,193.648z"
		/>
	<path fill="#f9bdbc" d="M794.319,124.442c0-6.286,0.013-12.571-0.012-18.857c-0.004-1.098,0.102-1.888,1.512-1.88
		c6.794,0.039,13.616-0.774,20.367,0.57c6.222,1.239,11.682,3.722,14.953,9.586c6.485,11.626,0.924,25.343-11.707,29.294
		c-7.748,2.424-15.648,2.144-23.578,1.996c-1.592-0.03-1.556-0.967-1.554-2.077c0.014-6.211,0.007-12.422,0.007-18.632
		C794.311,124.442,794.315,124.442,794.319,124.442z"/>
</g>
</svg>
