<?xml version="1.0" encoding="utf-8"?>
<!-- Generator: Adobe Illustrator 17.0.0, SVG Export Plug-In . SVG Version: 6.00 Build 0)  -->
<!DOCTYPE svg PUBLIC "-//W3C//DTD SVG 1.1//EN" "http://www.w3.org/Graphics/SVG/1.1/DTD/svg11.dtd">
<svg version="1.1" id="Capa_1" xmlns="http://www.w3.org/2000/svg" xmlns:xlink="http://www.w3.org/1999/xlink" x="0px" y="0px"
	 width="300px" height="300px" viewBox="0 0 300 300" enable-background="new 0 0 300 300" xml:space="preserve">
<g>
	<path fill="#f9bdbc" d="M145.674,218.504c0-3.373,0.004-6.192-0.006-9.012c-0.001-0.343,0.166-0.801-0.17-0.999
		c-0.394-0.233-0.614,0.237-0.869,0.449c-6.958,5.789-15.013,8.584-24.01,8.787c-5.885,0.133-11.654-0.62-17.211-2.599
		c-3.125-1.113-6.075-2.589-8.181-5.309c-2.568-3.317-2.029-7.426,1.294-9.986c3.187-2.456,6.993-3.295,10.798-4.135
		c2.945-0.65,5.89-1.294,8.772-2.204c2.843-0.898,5.251-2.375,7.053-4.813c1.131-1.531,2.392-2.966,3.584-4.452
		c0.189-0.236,0.494-0.478,0.322-0.83c-0.145-0.298-0.486-0.218-0.752-0.233c-5.067-0.281-9.858-1.612-14.392-3.859
		c-0.749-0.372-1.168-0.258-1.723,0.336c-7.433,7.945-14.614,16.112-21.589,24.461c-2.617,3.133-5.492,5.95-9.193,7.803
		c-6.236,3.122-12.166,2.297-17.787-1.495c-5.141-3.468-8.821-8.299-12.078-13.471c-6.045-9.598-10.36-20.004-14.188-30.629
		c-4.282-11.887-7.835-23.998-10.906-36.247c-3.321-13.247-6.23-26.585-8.097-40.126c-1.122-8.141-0.997-16.297-0.149-24.464
		c0.739-7.118,2.285-14.029,5.095-20.611c5.478-12.831,14.733-21.75,27.884-26.534c10.067-3.663,20.487-4.405,31.091-3.784
		c12.694,0.744,25.002,3.437,36.985,7.519c3.086,1.051,5.293,0.815,8.048-0.869c6.803-4.158,14.394-6.213,22.298-7.074
		c9.848-1.073,19.573-0.241,29.193,2.018c0.66,0.155,1.248,0.045,1.859-0.158c8.063-2.678,16.356-4.195,24.802-4.987
		c4.237-0.397,8.478-0.536,12.725-0.421c14.909,0.405,28.997,3.827,41.851,11.621c7.93,4.808,14.679,10.964,20.34,18.298
		c2.854,3.697,3.978,8.077,4.647,12.598c1.037,7.008,0.637,14.004-0.168,21.002c-1.868,16.232-6.335,31.806-11.883,47.108
		c-4.038,11.138-8.818,21.952-14.265,32.468c-3.928,7.582-8.176,14.984-12.824,22.152c-1.103,1.702-1.042,1.906,0.928,2.623
		c3.993,1.452,8.138,1.619,12.328,1.435c5.85-0.257,11.577-1.355,17.316-2.409c1.757-0.323,3.539-0.398,5.323-0.007
		c4.48,0.982,6.461,4.956,4.475,9.107c-1.5,3.135-4.023,5.383-6.681,7.487c-8.226,6.511-17.64,10.062-28.007,11.314
		c-5.777,0.698-11.542,1.022-17.326,0.205c-1.059-0.149-2.114-0.368-3.145-0.65c-0.806-0.22-1.15-0.047-1.241,0.82
		c-0.324,3.077-0.68,6.151-1.06,9.222c-0.976,7.875-1.947,15.75-2.969,23.619c-0.792,6.099-1.612,12.197-2.747,18.244
		c-1.016,5.414-2.618,10.647-5.465,15.411c-3.456,5.785-8.41,9.867-14.566,12.522c-7.477,3.225-15.235,5.315-23.431,5.128
		c-10.776-0.245-18.776-5.264-24.276-14.495c-3.749-6.292-5.396-13.135-6.045-20.352c-0.803-8.939-1.251-17.886-1.446-26.857
		C145.765,224.777,145.745,221.363,145.674,218.504z M154.053,214.659c0.076,4.523,0.008,10.397,0.186,16.273
		c0.235,7.738,0.605,15.461,1.282,23.174c0.552,6.287,1.942,12.282,5.347,17.714c3.907,6.233,9.397,9.612,16.821,9.732
		c6.921,0.112,13.458-1.6,19.764-4.25c5.674-2.384,9.925-6.332,12.458-12.025c1.775-3.99,2.731-8.203,3.421-12.484
		c1.623-10.071,2.967-20.183,4.151-30.313c1.192-10.199,2.627-20.367,3.074-30.653c0.295-6.797,3.238-12.129,10.011-14.694
		c2.146-0.813,2.144-0.857,0.645-2.683c-3.334-4.061-6.499-8.253-8.655-13.071c-2.439-5.45-5.538-10.54-8.349-15.785
		c-4.412-8.235-8.525-16.602-11.463-25.49c-2.228-6.74-3.923-13.584-3.222-20.787c0.526-5.409,2.453-10.176,6.568-13.866
		c3.508-3.147,7.761-4.711,12.327-5.556c4.924-0.912,9.877-0.81,14.834-0.411c0.9,0.072,1.024-0.165,0.722-0.96
		c-1.81-4.762-3.982-9.353-6.574-13.735c-5.377-9.086-11.905-17.219-19.996-24.063c-6.109-5.167-12.793-9.39-20.169-12.492
		c-12.207-5.133-24.94-7.005-38.103-5.893c-8.088,0.683-15.621,3.15-22.429,7.636c-8.118,5.349-13.869,12.749-18.106,21.367
		c-5.519,11.227-8.227,23.222-9.362,35.615c-0.027,0.299-0.237,0.674,0.079,0.889c0.319,0.217,0.585-0.125,0.853-0.261
		c3.474-1.762,7.018-3.364,10.743-4.527c5.92-1.848,11.929-3.061,18.172-2.191c5.118,0.713,9.563,2.744,13.032,6.72
		c2.662,3.052,4.207,6.625,5.047,10.512c2.372,10.973,3.938,22.025,3.15,33.307c-0.448,6.42-1.71,12.651-3.9,18.703
		c-2.202,6.088-5.285,11.813-7.356,17.956c-0.824,2.444-1.777,4.845-2.477,7.332c-0.381,1.351-0.389,1.341,1.057,1.213
		c0.629-0.056,1.251-0.122,1.896-0.06c9.22,0.882,14.758,9.101,14.734,16.869C154.244,200.048,154.055,206.678,154.053,214.659z
		 M24.05,77.141c0,2.223-0.134,4.455,0.025,6.667c0.497,6.899,1.776,13.692,3.124,20.462c3.855,19.367,8.66,38.488,15.219,57.134
		c3.785,10.761,8.023,21.332,14.107,31.05c2.429,3.88,5.117,7.576,8.797,10.402c2.686,2.063,5.59,3.37,9.071,2.161
		c2.755-0.957,4.85-2.829,6.712-4.974c3.667-4.225,7.245-8.528,10.942-12.726c3.723-4.228,7.54-8.375,11.334-12.54
		c0.462-0.507,0.584-0.816-0.027-1.332c-1.426-1.204-2.697-2.572-3.897-4.007c-6.45-7.717-9.744-16.609-10.059-26.652
		c-0.179-5.708,1.045-11.29,1.365-16.952c0.305-5.393,0.436-10.788,0.261-16.185c-0.152-4.678-0.568-9.352-0.575-14.029
		c-0.009-6.596,0.741-13.146,1.85-19.649c1.596-9.359,4.186-18.422,8.261-27.016c3.199-6.747,7.187-12.979,12.483-18.311
		c0.827-0.833,0.761-1.039-0.356-1.377c-2.279-0.689-4.556-1.388-6.852-2.018c-10.419-2.861-21.027-4.574-31.836-4.626
		c-6.76-0.032-13.465,0.731-19.966,2.802c-6.469,2.061-12.216,5.305-16.963,10.201c-4.477,4.617-7.529,10.103-9.543,16.17
		C24.798,60.022,23.826,68.508,24.05,77.141z M192.031,20.988c0.166,0.476,0.478,0.502,0.714,0.612
		c10.785,5.034,20.166,11.961,28.237,20.713c8.823,9.567,15.681,20.355,20.404,32.479c1.136,2.916,2.267,5.881,2.305,9.076
		c0.065,5.529-0.375,11.03-1.344,16.473c-1.535,8.621-1.834,17.24-0.663,25.948c0.893,6.637,1.752,13.295,1.335,20.041
		c-0.309,4.994-1.208,9.839-2.983,14.519c-0.819,2.158-1.814,4.23-2.972,6.227c-0.434,0.748-0.132,1.796,0.636,2.122
		c0.753,0.32,0.735-0.512,1.047-0.833c0.216-0.223,0.346-0.53,0.514-0.799c5.745-9.209,10.814-18.781,15.382-28.623
		c4.418-9.518,8.307-19.249,11.545-29.227c4.224-13.017,7.554-26.246,8.759-39.928c0.495-5.625,0.645-11.257-0.385-16.853
		c-0.522-2.834-1.324-5.545-3.163-7.87c-6.231-7.878-13.781-14.145-22.789-18.594c-11.348-5.604-23.472-7.682-36.021-7.618
		c-4.804,0.025-9.595,0.418-14.354,1.104C196.171,20.256,194.12,20.639,192.031,20.988z M142.159,126.522
		c0.058-10.124-1.309-18.969-3.379-27.719c-0.612-2.589-1.816-4.899-3.83-6.725c-3.017-2.735-6.757-3.378-10.558-3.18
		c-8.724,0.453-16.601,3.571-23.957,8.176c-1.343,0.841-1.724,1.818-1.598,3.335c0.638,7.717,0.742,15.45,0.382,23.185
		c-0.111,2.375-0.341,4.746-0.569,7.114c-0.308,3.197-0.846,6.383-0.968,9.586c-0.301,7.944,1.781,15.257,6.493,21.704
		c5.619,7.687,13.067,12.224,22.722,12.829c0.862,0.054,1.302-0.153,1.548-1.021c1.916-6.772,4.418-13.334,7.373-19.713
		C140.035,144.989,142.498,135.52,142.159,126.522z M207.684,102.291c0.06,2.099,0.254,4.149,0.625,6.183
		c1.795,9.843,5.991,18.791,10.355,27.67c3.764,7.656,8.412,14.85,11.901,22.653c0.156,0.348,0.246,0.912,0.65,0.919
		c0.529,0.009,0.515-0.623,0.676-0.996c2.065-4.779,2.801-9.828,2.872-14.98c0.082-6.006-0.723-11.955-1.494-17.889
		c-0.984-7.57-0.957-15.098,0.208-22.637c0.708-4.585,1.473-9.164,1.751-13.805c0.051-0.843-0.067-1.368-1.079-1.398
		c-1.107-0.033-2.207-0.226-3.314-0.301c-4.051-0.273-8.101-0.273-12.079,0.639c-3.382,0.776-6.54,2.043-8.638,5.039
		C208.243,96.067,207.75,99.14,207.684,102.291z M119.359,209.346c1.912,0.054,3.808-0.091,5.691-0.395
		c8.316-1.341,14.773-5.636,19.724-12.363c0.904-1.229,1.276-2.555,1.092-4.022c-0.303-2.408-1.333-4.471-3.167-6.09
		c-2.444-2.158-4.774-2.142-7.01,0.21c-1.554,1.635-3.078,3.338-4.35,5.193c-3.832,5.591-9.069,8.969-15.626,10.448
		c-3.403,0.768-6.798,1.581-10.178,2.442c-0.756,0.193-2.034,0.213-2.056,0.982c-0.019,0.65,1.234,0.947,2.004,1.237
		C109.953,208.677,114.61,209.292,119.359,209.346z M273.941,186.135c-0.755,0.115-1.179,0.167-1.599,0.245
		c-7.154,1.337-14.336,2.343-21.645,1.776c-3.953-0.307-7.885-0.939-11.259-3.089c-1.75-1.115-3.22-1.195-4.953-0.441
		c-0.181,0.079-0.372,0.141-0.563,0.192c-2.72,0.733-4.17,2.615-4.734,5.272c-0.156,0.735-0.238,1.488-0.313,2.237
		c-0.387,3.854-0.719,3.966,3.849,4.818c4.044,0.754,8.135,0.622,12.223,0.267c7.869-0.682,15.476-2.236,22.321-6.454
		C269.519,189.573,271.765,188.187,273.941,186.135z"/>
	<path fill="#f9bdbc" d="M126.091,93.458c2.125,0.011,4.176,0.391,6.135,1.231c0.255,0.109,0.51,0.222,0.751,0.356
		c2.892,1.613,3.19,3.837,0.763,6.082c-4.697,4.344-11.044,1.988-13.383-3.113c-0.745-1.625-0.09-3.043,1.556-3.808
		C123.043,93.681,124.313,93.454,126.091,93.458z"/>
	<path fill="#f9bdbc" d="M222.359,91.335c1.289-0.066,2.538,0.116,3.73,0.597c1.422,0.574,1.99,1.666,1.386,3.039
		c-1.195,2.717-3.29,4.504-6.232,4.951c-2.785,0.423-5.144-0.621-6.893-2.867c-1.069-1.374-0.896-2.642,0.572-3.662
		C217.148,91.846,219.705,91.38,222.359,91.335z"/>
</g>
</svg>
