<?xml version="1.0" encoding="utf-8"?>
<!-- Generator: Adobe Illustrator 17.0.0, SVG Export Plug-In . SVG Version: 6.00 Build 0)  -->
<!DOCTYPE svg PUBLIC "-//W3C//DTD SVG 1.1//EN" "http://www.w3.org/Graphics/SVG/1.1/DTD/svg11.dtd">
<svg version="1.1" id="Capa_1" xmlns="http://www.w3.org/2000/svg" xmlns:xlink="http://www.w3.org/1999/xlink" x="0px" y="0px"
	 width="300px" height="300px" viewBox="1724.5 0 300 300" enable-background="new 1724.5 0 300 300" xml:space="preserve">
<g>
	<path fill="#f9bdbc" d="M2022,48.634c0,68.01,0,136.021,0,204.031c-2.194,0.918-1.898,3.152-2.472,4.865
		c-5.478,16.344-16.322,27.478-32.334,33.737c-3.074,1.202-6.639,0.792-9.379,2.984c-69.743,0-139.486,0-209.229,0
		c-0.305-1.712-1.902-1.598-3.007-1.929c-18.818-5.635-30.937-17.91-36.65-36.65c-0.337-1.104-0.218-2.702-1.93-3.007
		c0-68.443,0-136.887,0-205.33c2.171-0.931,1.897-3.157,2.469-4.868c5.385-16.112,15.987-27.183,31.748-33.495
		c2.87-1.149,6.337-0.681,8.668-3.223c69.31,0,138.62,0,207.929,0c0.405,0.414,0.756,1.114,1.222,1.202
		c21.076,3.955,34.225,16.624,40.854,36.711C2020.431,45.299,2019.654,47.711,2022,48.634z M1797.102,144.42
		c0,14.93-0.154,29.863,0.071,44.79c0.099,6.605-2.976,15.281,1.394,19.263c4.267,3.888,12.812,0.84,19.469,1.162
		c0.432,0.021,0.869-0.035,1.298,0.006c3.356,0.326,4.662-1.23,4.609-4.538c-0.11-6.922-0.134-13.85,0.009-20.771
		c0.107-5.151-2.171-11.768,0.895-15.056c3.149-3.376,9.842-0.785,14.974-0.998c13.225-0.55,25.936-2.731,36.166-11.882
		c14.601-13.061,16.964-29.796,11.776-47.501c-5.281-18.021-19.457-26.186-37.088-28.992c-15.935-2.536-31.949-0.646-47.938-0.433
		c-4.573,0.061-5.791,1.383-5.738,5.878C1797.237,105.036,1797.102,124.729,1797.102,144.42z M1933.971,122.99
		c-0.461-2.311-0.958-3.781-1.015-5.268c-0.225-5.944-3.476-7.513-8.947-7c-4.5,0.422-9.076,0.214-13.61,0.049
		c-3.1-0.113-4.131,1.012-3.964,4.146c1.602,30.027,0.644,60.083,0.809,90.127c0.021,3.73,1.362,4.886,4.955,4.745
		c5.828-0.229,11.688-0.329,17.503,0.027c4.355,0.266,5.445-1.314,5.397-5.493c-0.206-18.157,0.062-36.32-0.196-54.476
		c-0.062-4.378,1.683-6.811,5.239-8.648c6.668-3.445,13.883-4.832,21.233-5.075c4.371-0.145,6.202-1.348,5.869-5.967
		c-0.372-5.162-0.438-10.401,0.009-15.551c0.495-5.7-2.181-6.622-6.923-5.883C1950.138,110.312,1941.812,115.384,1933.971,122.99z"
		/>
	<path fill="#f9bdbc" d="M1824.097,123.926c0.003-5.622,0.019-11.244-0.006-16.866c-0.01-2.124,0.223-3.84,3.052-3.777
		c7.538,0.166,15.134-0.593,22.497,1.823c8.58,2.815,13.02,8.57,13.556,17.709c0.498,8.497-3.429,15.328-10.997,18.927
		c-8.127,3.865-16.832,3.281-25.469,3.179c-3.045-0.036-2.614-2.247-2.624-4.13C1824.074,135.17,1824.094,129.548,1824.097,123.926z
		"/>
</g>
</svg>
