<?xml version="1.0" encoding="utf-8"?>
<!-- Generator: Adobe Illustrator 17.0.0, SVG Export Plug-In . SVG Version: 6.00 Build 0)  -->
<!DOCTYPE svg PUBLIC "-//W3C//DTD SVG 1.1//EN" "http://www.w3.org/Graphics/SVG/1.1/DTD/svg11.dtd">
<svg version="1.1" id="Capa_1" xmlns="http://www.w3.org/2000/svg" xmlns:xlink="http://www.w3.org/1999/xlink" x="0px" y="0px"
	 width="300px" height="300px" viewBox="0 0 300 300" enable-background="new 0 0 300 300" xml:space="preserve">
<g>
	<path fill="#FC8583" d="M163.703,237.821c-2.475,0.021-4.952-0.091-7.419-0.207c-3.923-0.185-7.843-0.137-11.759-0.076
		c-3.449,0.054-6.897,0.332-10.349,0.262c-4.514-0.091-8.984-0.557-13.318-1.927c-1.698-0.536-3.326-1.254-4.933-2.01
		c-1.709-0.804-3.524-1.104-5.369-1.32c-2.879-0.337-5.799-0.343-8.62-1.155c-3.366-0.968-5.814-3.047-7.411-6.107
		c-1.607-3.08-2.548-6.395-3.132-9.811c-0.589-3.45-0.956-6.919-1.114-10.42c-0.151-3.346-0.274-6.69-0.291-10.04
		c-0.016-2.984-0.397-5.95-0.573-8.925c-0.242-4.076,0.109-8.069,1.881-11.853c1.599-3.415,3.798-6.403,6.183-9.289
		c1.681-2.034,3.518-3.917,5.445-5.7c3.466-3.206,7.259-5.997,11.302-8.443c4.203-2.542,8.618-4.654,13.245-6.282
		c4.228-1.488,8.576-2.511,13.018-3.196c4.36-0.673,8.738-0.712,13.107-0.539c4.788,0.19,9.503,1.059,14.118,2.382
		c4.394,1.259,8.65,2.888,12.719,4.973c4.872,2.498,9.454,5.444,13.647,8.985c1.931,1.631,3.845,3.279,5.559,5.135
		c3.239,3.508,6.271,7.18,8.346,11.529c1.116,2.339,1.789,4.801,2.039,7.401c0.31,3.23-0.098,6.418-0.301,9.624
		c-0.146,2.313-0.217,4.632-0.201,6.954c0.028,4.016-0.211,8.022-0.584,12.023c-0.348,3.725-0.913,7.406-2.055,10.972
		c-0.898,2.804-1.982,5.519-4.153,7.662c-1.914,1.888-4.235,2.876-6.824,3.343c-2.509,0.453-5.064,0.48-7.588,0.788
		c-1.588,0.194-3.164,0.491-4.609,1.207c-3.893,1.927-7.986,3.139-12.307,3.608C168.842,237.646,166.279,237.818,163.703,237.821z
		 M125.765,215.839c0.013,0.069,0.026,0.138,0.039,0.207c1.59-0.073,3.175,0.047,4.774-0.133c2.887-0.325,5.75-0.81,8.625-1.207
		c2.903-0.402,5.812-0.768,8.746-0.829c3.711-0.077,7.412,0.042,11.092,0.597c3.226,0.487,6.459,0.928,9.692,1.369
		c1.852,0.253,3.714,0.237,5.582,0.117c-0.108-0.094-0.222-0.141-0.339-0.173c-4.024-1.099-8.01-2.319-11.955-3.676
		c-3.454-1.188-6.855-2.566-10.495-3.135c-0.303-0.047-0.452-0.232-0.466-0.526c-0.014-0.309-0.017-0.619-0.017-0.929
		c-0.001-12.031,0-24.062-0.002-36.092c0-1.147-0.008-1.168,1.04-1.236c2.358-0.155,4.634-0.679,6.815-1.571
		c3.158-1.291,5.928-3.099,7.784-6.072c1.163-1.864,1.375-4.298-0.018-6.244c-1.352-1.889-3.222-2.979-5.326-3.765
		c-3.52-1.315-7.212-1.651-10.919-1.781c-2.676-0.094-5.352,0.146-7.988,0.623c-3.033,0.55-6.004,1.338-8.406,3.422
		c-1.248,1.082-2.16,2.398-2.281,4.144c-0.146,2.096,0.81,3.736,2.123,5.213c2.128,2.393,4.835,3.887,7.826,4.927
		c2.008,0.698,4.1,0.966,6.194,1.208c0.492,0.057,0.624,0.209,0.623,0.707c-0.018,8.804-0.014,17.607-0.015,26.411
		c0,3.563-0.017,7.126,0.014,10.688c0.006,0.694-0.265,0.945-0.905,1.06c-1.446,0.258-2.853,0.691-4.244,1.156
		c-4.199,1.405-8.339,2.99-12.62,4.149C129.078,214.915,127.422,215.381,125.765,215.839z"/>
	<path fill="#FC8583" d="M296.463,110.709c-0.207,5.754-1.097,11.371-3.613,16.617c-1.854,3.867-4.583,6.938-8.464,8.908
		c-2.587,1.313-4.86,3.091-7.101,4.91c-5.76,4.676-10.801,10.106-16.078,15.289c-0.731,0.718-1.477,1.437-2.385,1.949
		c-0.443,0.25-0.747,0.244-0.713-0.379c0.081-1.489,0.168-2.977,0.255-4.466c0.012-0.205,0.048-0.41,0.048-0.616
		c0.003-3.352,0.1-6.708-0.165-10.053c-0.447-5.652-1.342-11.228-2.954-16.679c-1.098-3.715-2.471-7.326-4.179-10.795
		c-2.143-4.353-4.727-8.441-7.777-12.229c-1.974-2.452-4.073-4.789-6.355-6.953c-4.047-3.838-8.459-7.202-13.201-10.144
		c-3.006-1.865-6.127-3.51-9.313-5.032c-5.101-2.435-10.392-4.373-15.831-5.909c-2.849-0.805-5.725-1.5-8.643-2.009
		c-0.678-0.118-0.543-0.401-0.213-0.758c1.462-1.581,3.128-2.903,4.992-3.988c4.52-2.631,9.454-4.043,14.56-4.898
		c3.094-0.518,6.214-0.84,9.365-0.847c1.205-0.003,2.416-0.204,3.625-0.125c3.155,0.208,6.316,0.263,9.469,0.57
		c5.51,0.538,10.96,1.416,16.377,2.527c5.891,1.208,11.637,2.9,17.17,5.279c4.61,1.981,8.97,4.401,12.975,7.431
		c5.555,4.203,10.113,9.269,13.404,15.453c2.311,4.342,3.834,8.927,4.552,13.782C296.424,108.589,296.549,109.643,296.463,110.709z"
		/>
	<path fill="#FC8583" d="M77.595,62.506c7.075,0.11,13.903,0.726,20.484,2.959c4.007,1.359,7.736,3.246,10.836,6.208
		c0.372,0.356,0.956,0.816,0.835,1.211c-0.135,0.441-0.888,0.3-1.376,0.393c-3.037,0.577-6.027,1.345-8.988,2.228
		c-3.903,1.163-7.734,2.53-11.477,4.137c-4.338,1.863-8.512,4.046-12.536,6.517c-3.584,2.2-6.966,4.684-10.152,7.418
		c-3.187,2.734-6.107,5.737-8.774,8.999c-3.212,3.93-5.948,8.156-8.197,12.69c-2.912,5.87-4.88,12.065-6.049,18.512
		c-0.541,2.987-0.91,5.993-1.098,9.025c-0.15,2.416-0.364,4.832-0.274,7.25c0.095,2.568,0.091,5.144,0.423,7.701
		c0.036,0.274,0.094,0.602-0.213,0.768c-0.269,0.145-0.487-0.068-0.695-0.21c-0.553-0.378-1.092-0.77-1.567-1.251
		c-1.194-1.212-2.395-2.417-3.608-3.61c-2.501-2.46-4.964-4.962-7.529-7.353c-3.332-3.106-6.75-6.115-10.578-8.623
		c-1.616-1.059-3.407-1.815-4.96-2.986c-2.665-2.009-4.509-4.645-5.888-7.625c-1.38-2.983-2.244-6.136-2.758-9.377
		c-0.273-1.724-0.443-3.462-0.553-5.211c-0.36-5.769,1.265-11.08,3.566-16.254c1.677-3.771,3.945-7.151,6.611-10.293
		c4.102-4.833,9.033-8.612,14.528-11.709c3.965-2.235,8.126-4.025,12.435-5.46c5.528-1.842,11.205-3.085,16.946-4.065
		c3.193-0.545,6.397-1.017,9.617-1.341c2.634-0.264,5.273-0.554,7.929-0.497C75.621,62.678,76.685,62.345,77.595,62.506z"/>
	<path fill="#FC8583" d="M205.272,142.449c-0.138-10.138,8.55-19.29,19.764-18.784c9.604,0.433,18.119,8.429,17.948,19.129
		c-0.164,10.317-8.265,18.579-18.918,18.583C213.518,161.379,205.23,152.932,205.272,142.449z M228.956,138.881
		c2.644-0.001,4.816-2.168,4.823-4.813c0.008-2.693-2.158-4.867-4.847-4.866c-2.712,0.001-4.833,2.132-4.831,4.855
		C224.103,136.786,226.212,138.882,228.956,138.881z"/>
	<path fill="#FC8583" d="M94.264,142.552c0.061,10.226-8.119,18.855-18.804,18.825c-10.635-0.03-18.851-8.258-18.898-18.923
		c-0.045-10.243,8.53-19.379,20.008-18.78C85.909,124.16,94.417,132.106,94.264,142.552z M85.04,134.034
		c0.229-2.584-2.4-4.895-4.763-4.845c-2.687,0.057-4.902,2.185-4.914,4.833c-0.012,2.675,2.178,4.813,4.864,4.872
		C82.804,138.952,85.261,136.545,85.04,134.034z"/>
</g>
</svg>
