<?xml version="1.0" encoding="utf-8"?>
<!-- Generator: Adobe Illustrator 17.0.0, SVG Export Plug-In . SVG Version: 6.00 Build 0)  -->
<!DOCTYPE svg PUBLIC "-//W3C//DTD SVG 1.1//EN" "http://www.w3.org/Graphics/SVG/1.1/DTD/svg11.dtd">
<svg version="1.1" id="Capa_1" xmlns="http://www.w3.org/2000/svg" xmlns:xlink="http://www.w3.org/1999/xlink" x="0px" y="0px"
	 width="300px" height="300px" viewBox="0 0 300 300" enable-background="new 0 0 300 300" xml:space="preserve">
<g>
	<path fill="#f9bdbc" d="M85.346,18.971c4.179,0,8.358,0,12.538,0c2.299,0.584,4.631,1.06,6.89,1.77
		c9.164,2.878,17.351,7.644,25.123,13.185c6.714,4.786,12.975,10.116,18.92,15.824c1.406,1.349,1.494,1.339,2.862,0.006
		c3.551-3.46,7.274-6.726,11.114-9.858c8.186-6.676,16.865-12.574,26.59-16.823c4.259-1.861,8.701-3.111,13.226-4.104
		c4.097,0,8.194,0,12.292,0c2.988,0.735,5.927,1.595,8.637,3.113c6.917,3.875,11.268,9.855,14.032,17.117
		c3.726,9.788,4.121,20.003,3.59,30.282c-0.517,10.007-2.313,19.837-4.695,29.562c-0.387,1.581-0.384,1.597,1.154,2.047
		c5.939,1.74,11.799,3.71,17.535,6.036c9.721,3.943,19.021,8.645,27.19,15.332c5.679,4.649,10.457,10.023,13.332,16.903
		c1.003,2.401,1.499,4.928,2.071,7.441c0,2.213,0,4.425,0,6.637c-0.053,0.197-0.128,0.391-0.157,0.591
		c-0.947,6.439-3.867,11.949-8.012,16.86c-5.607,6.644-12.611,11.512-20.153,15.668c-10.02,5.522-20.679,9.467-31.625,12.69
		c-1.696,0.499-1.706,0.493-1.311,2.162c2.703,11.417,4.721,22.924,4.824,34.706c0.07,7.99-0.572,15.876-3.171,23.492
		c-2.512,7.361-6.513,13.636-13.241,17.905c-3.235,2.053-6.793,3.2-10.493,4.005c-3.688,0-7.375,0-11.062,0
		c-3.006-0.615-6.002-1.267-8.914-2.259c-8.57-2.92-16.288-7.432-23.633-12.638c-6.962-4.935-13.434-10.46-19.558-16.394
		c-0.767-0.743-1.222-0.753-1.992-0.002c-1.991,1.943-4.048,3.823-6.131,5.668c-8.241,7.297-17.004,13.868-26.792,18.977
		c-6.06,3.163-12.43,5.46-19.18,6.648c-3.688,0-7.375,0-11.062,0c-0.436-0.107-0.869-0.226-1.308-0.32
		c-4.4-0.941-8.381-2.776-11.88-5.615c-5.368-4.356-8.637-10.09-10.751-16.554c-3.003-9.186-3.324-18.668-2.82-28.191
		c0.53-10.002,2.32-19.829,4.73-29.541c0.29-1.169,0.076-1.682-1.121-2.015c-5.723-1.592-11.341-3.51-16.857-5.717
		c-10.196-4.08-19.941-8.972-28.444-16.046c-5.383-4.478-9.889-9.658-12.692-16.178c-1.059-2.465-1.601-5.065-2.196-7.656
		c0-2.294,0-4.589,0-6.883c0.071-0.277,0.162-0.55,0.209-0.831c1.021-6.199,3.839-11.531,7.837-16.299
		c4.99-5.951,11.121-10.494,17.765-14.399c10.741-6.313,22.321-10.605,34.207-14.154c1.652-0.493,1.644-0.485,1.229-2.205
		c-3.17-13.147-5.283-26.422-4.759-40.007c0.278-7.211,1.393-14.27,4.191-20.972c3.232-7.742,8.317-13.76,16.196-17.137
		C81.475,20.006,83.449,19.617,85.346,18.971z M150.429,197.499c8.355-0.011,16.704-0.257,25.043-0.814
		c1.106-0.074,1.783-0.465,2.391-1.368c9.464-14.057,17.875-28.719,25.362-43.918c0.429-0.871,0.396-1.578-0.038-2.416
		c-1.886-3.636-3.675-7.322-5.59-10.943c-6.001-11.343-12.576-22.343-19.771-32.972c-0.554-0.818-1.155-1.218-2.171-1.303
		c-6.452-0.536-12.921-0.737-19.387-0.862c-10.486-0.202-20.966,0.099-31.43,0.88c-0.952,0.071-1.568,0.386-2.107,1.183
		c-9.579,14.179-18.086,28.973-25.593,44.348c-0.382,0.782-0.204,1.388,0.137,2.077c3.125,6.316,6.379,12.564,9.833,18.707
		c4.86,8.646,10.055,17.086,15.598,25.311c0.45,0.668,0.902,1.181,1.821,1.242C133.152,197.227,141.787,197.504,150.429,197.499z
		 M72.16,62.513c0.13,11.492,1.833,22.27,4.423,32.925c0.494,2.033,0.503,2.031,2.549,1.577c11.89-2.638,23.923-4.351,36.034-5.551
		c0.761-0.075,1.28-0.327,1.724-0.959c1.437-2.043,2.9-4.07,4.403-6.066c5.991-7.955,12.22-15.716,19.015-23.005
		c0.721-0.774,0.664-1.256-0.077-1.893c-0.869-0.746-1.682-1.559-2.524-2.338c-7.112-6.582-14.604-12.676-22.967-17.618
		c-6.637-3.922-13.543-7.201-21.368-7.908c-5.969-0.539-11.106,1.131-14.919,5.999c-1.764,2.252-2.931,4.82-3.828,7.519
		C72.701,50.984,72.308,56.983,72.16,62.513z M91.528,268.809c1.143-0.084,2.293-0.111,3.426-0.263
		c6.026-0.805,11.508-3.169,16.785-6.038c10.669-5.8,19.918-13.477,28.647-21.833c0.756-0.724,0.398-1.135-0.121-1.702
		c-8.203-8.95-15.759-18.425-22.807-28.304c-0.809-1.133-1.676-1.724-3.071-1.849c-8.282-0.74-16.518-1.86-24.699-3.347
		c-3.786-0.688-7.554-1.48-11.321-2.264c-0.941-0.196-1.479-0.028-1.627,1.024c-0.119,0.848-0.393,1.673-0.582,2.511
		c-2.867,12.753-4.868,25.589-3.533,38.721c0.491,4.834,1.497,9.547,3.74,13.918C79.534,265.557,84.452,268.898,91.528,268.809z
		 M82.163,150.402c0.015-0.565-0.204-0.919-0.369-1.292c-1.14-2.585-2.304-5.159-3.412-7.758
		c-3.742-8.781-7.108-17.704-9.985-26.807c-0.241-0.762-0.439-1.353-1.502-1.04c-10.473,3.09-20.689,6.815-30.244,12.173
		c-5.997,3.362-11.622,7.226-16.045,12.592c-2.484,3.013-4.384,6.326-4.795,10.315c-0.501,4.866,1.272,9.005,4.165,12.748
		c4.156,5.377,9.56,9.273,15.362,12.65c9.724,5.66,20.185,9.548,30.938,12.712c1.685,0.496,1.706,0.487,2.235-1.18
		c3.714-11.682,8.194-23.065,13.295-34.208C81.959,150.974,82.076,150.625,82.163,150.402z M284.741,150.235
		c0.048-4.255-1.659-7.743-4.064-10.952c-3.673-4.901-8.461-8.534-13.613-11.706c-10.265-6.321-21.442-10.508-32.949-13.898
		c-1.585-0.467-1.602-0.467-2.118,1.158c-3.476,10.939-7.575,21.643-12.375,32.064c-1.062,2.305-1.153,4.145-0.056,6.504
		c4.907,10.553,9.032,21.425,12.541,32.524c0.27,0.854,0.606,1.218,1.579,0.931c11.786-3.464,23.236-7.726,33.726-14.246
		c5.072-3.153,9.751-6.79,13.354-11.632C283.16,157.765,284.826,154.255,284.741,150.235z M228.249,65.643
		c0.184-3.647-0.007-7.286-0.404-10.908c-0.516-4.703-1.493-9.3-3.631-13.575c-3.54-7.077-9.653-10.32-17.523-9.449
		c-5.124,0.566-9.895,2.21-14.492,4.43c-12.137,5.861-22.34,14.366-32.063,23.526c-0.693,0.653-0.543,1.109,0.032,1.731
		c8.465,9.156,16.154,18.94,23.411,29.069c0.442,0.616,0.927,0.924,1.702,0.996c6.89,0.641,13.75,1.522,20.584,2.606
		c5.42,0.86,10.811,1.877,16.163,3.088c1.045,0.236,1.569-0.024,1.717-1.074c0.04-0.282,0.141-0.555,0.207-0.834
		C226.26,85.508,227.984,75.683,228.249,65.643z M209.274,268.762c6.719,0.17,11.678-3.172,14.86-9.398
		c0.841-1.645,1.529-3.35,2.039-5.129c1.895-6.609,2.269-13.36,2.028-20.191c-0.353-10.034-2.071-19.851-4.404-29.587
		c-0.297-1.241-0.787-1.443-1.95-1.174c-4.827,1.117-9.699,2.018-14.586,2.829c-7.271,1.205-14.582,2.116-21.915,2.851
		c-0.851,0.085-1.403,0.452-1.896,1.142c-7.191,10.078-14.87,19.767-23.256,28.882c-0.721,0.783-0.586,1.214,0.11,1.883
		c2.897,2.781,5.874,5.472,8.95,8.051c7.43,6.233,15.268,11.861,24.14,15.899C198.308,267.057,203.378,268.753,209.274,268.762z
		 M136.042,210.278c-0.492,0-0.983-0.008-1.475,0.003c-0.277,0.006-0.644-0.117-0.799,0.156c-0.2,0.352,0.166,0.597,0.352,0.841
		c0.87,1.139,1.758,2.265,2.645,3.391c3.982,5.053,8.099,9.992,12.441,14.741c0.988,1.08,1.093,1.08,2.095-0.022
		c1.295-1.425,2.571-2.867,3.837-4.316c3.882-4.444,7.576-9.042,11.172-13.719c0.206-0.267,0.643-0.552,0.392-0.937
		c-0.181-0.277-0.613-0.141-0.933-0.13c-1.678,0.057-3.354,0.176-5.032,0.191C152.505,210.55,144.272,210.691,136.042,210.278z
		 M194.56,105.636c-0.034,0.009-0.31-0.005-0.396,0.117c-0.206,0.29,0.073,0.533,0.216,0.765c1.313,2.126,2.655,4.233,3.948,6.371
		c4.092,6.766,7.982,13.646,11.673,20.639c0.164,0.31,0.22,0.786,0.641,0.83c0.337,0.035,0.394-0.368,0.5-0.62
		c3.099-7.366,5.835-14.866,8.315-22.461c0.329-1.007-0.01-1.394-1.006-1.577c-3.181-0.584-6.345-1.26-9.524-1.856
		C204.216,106.961,199.476,106.27,194.56,105.636z M105.802,105.65c-0.08,0.016-0.16,0.036-0.241,0.047
		c-7.88,1.01-15.703,2.348-23.473,4.01c-1.131,0.242-1.364,0.668-1.003,1.764c2.436,7.392,5.101,14.697,8.098,21.88
		c0.152,0.364,0.197,0.953,0.619,0.98c0.525,0.033,0.583-0.607,0.78-0.979c3.017-5.677,6.113-11.31,9.428-16.821
		c1.984-3.298,4.003-6.575,6.001-9.864c0.163-0.269,0.478-0.509,0.332-0.872C106.254,105.574,106.005,105.622,105.802,105.65z
		 M193.954,194.694c0.472,0,0.797,0.034,1.113-0.005c7.923-0.991,15.78-2.361,23.587-4.033c1.056-0.226,1.031-0.783,0.765-1.608
		c-2.405-7.444-5.109-14.776-8.118-21.996c-0.149-0.357-0.19-0.924-0.659-0.947c-0.483-0.025-0.538,0.555-0.717,0.892
		c-2.783,5.243-5.615,10.459-8.661,15.555C198.875,186.552,196.458,190.538,193.954,194.694z M105.357,194.69
		c0.335-0.039,0.77,0.169,0.923-0.181c0.187-0.429-0.246-0.743-0.454-1.073c-5.415-8.599-10.51-17.382-15.215-26.39
		c-0.183-0.35-0.263-0.917-0.694-0.94c-0.562-0.03-0.588,0.608-0.746,0.988c-2.984,7.189-5.698,14.478-8.087,21.889
		c-0.375,1.162-0.007,1.536,1.06,1.734c3.26,0.607,6.504,1.299,9.766,1.895C96.38,193.43,100.873,194.112,105.357,194.69z
		 M150.233,89.686c5.244,0.161,10.438,0.323,15.633,0.475c0.309,0.009,0.726,0.18,0.897-0.17c0.167-0.341-0.215-0.583-0.401-0.829
		c-4.835-6.41-9.973-12.569-15.377-18.507c-0.539-0.593-0.883-0.658-1.456-0.028c-5.43,5.971-10.566,12.184-15.476,18.587
		c-0.17,0.222-0.466,0.449-0.354,0.738c0.156,0.402,0.57,0.221,0.872,0.212C139.807,90.011,145.042,89.846,150.233,89.686z"/>
	<path fill="#f9bdbc" d="M150.404,123.841c14.617,0.043,26.253,11.843,26.215,26.583c-0.038,14.494-11.929,26.228-26.528,26.177
		c-14.618-0.051-26.263-11.928-26.217-26.739C123.918,135.468,135.816,123.799,150.404,123.841z"/>
</g>
</svg>
