<?xml version="1.0" encoding="utf-8"?>
<!-- Generator: Adobe Illustrator 17.0.0, SVG Export Plug-In . SVG Version: 6.00 Build 0)  -->
<!DOCTYPE svg PUBLIC "-//W3C//DTD SVG 1.1//EN" "http://www.w3.org/Graphics/SVG/1.1/DTD/svg11.dtd">
<svg version="1.1" id="Capa_1" xmlns="http://www.w3.org/2000/svg" xmlns:xlink="http://www.w3.org/1999/xlink" x="0px" y="0px"
	 width="300px" height="300px" viewBox="0 0 300 300" enable-background="new 0 0 300 300" xml:space="preserve">
<g>
	<path fill="#FC8583" d="M3.238,298.237c0-97.289,0.014-194.578-0.072-291.868C3.164,3.712,3.712,3.164,6.37,3.166
		c97.289,0.085,194.578,0.072,291.867,0.072c0.073,1.838,0.21,3.677,0.21,5.515c0.01,94.233,0.009,188.465,0.008,282.698
		c0,1.228-0.068,2.459-0.017,3.685c0.097,2.33-0.974,3.404-3.303,3.302c-1.103-0.048-2.211,0.017-3.316,0.017
		c-94.478,0.001-188.957,0.002-283.435-0.008C6.669,298.447,4.953,298.311,3.238,298.237z M74.274,185.591c-0.011,0-0.022,0-0.033,0
		c0,12.162-0.012,24.323,0.006,36.485c0.007,4.843,0.257,5.115,4.923,5.118c22.112,0.016,44.224,0.015,66.336,0.001
		c4.746-0.003,5.001-0.262,5.005-5.02c0.016-17.198-0.012-34.396,0.016-51.594c0.019-11.649,8.343-20.016,19.903-20.059
		c5.774-0.021,11.547,0.013,17.321-0.009c11.343-0.043,21.213-3.685,28.898-12.255c10.662-11.889,13.544-25.485,7.387-40.289
		c-6.135-14.753-17.816-22.792-33.633-23.589c-19.998-1.008-36.193,13.338-39.429,33.851c-1.596,10.118-5.963,18.971-12.978,26.355
		c-15.736,16.566-37.753,20.708-59.458,11.438c-3.78-1.614-4.236-1.374-4.249,2.712C74.248,161.023,74.274,173.307,74.274,185.591z"
		/>
</g>
</svg>
