<?xml version="1.0" encoding="utf-8"?>
<!-- Generator: Adobe Illustrator 17.0.0, SVG Export Plug-In . SVG Version: 6.00 Build 0)  -->
<!DOCTYPE svg PUBLIC "-//W3C//DTD SVG 1.1//EN" "http://www.w3.org/Graphics/SVG/1.1/DTD/svg11.dtd">
<svg version="1.1" id="Capa_1" xmlns="http://www.w3.org/2000/svg" xmlns:xlink="http://www.w3.org/1999/xlink" x="0px" y="0px"
	 width="300px" height="300px" viewBox="0 0 300 300" enable-background="new 0 0 300 300" xml:space="preserve">
<g>
	<path fill="#FC8583" d="M148.273,40.152c6.302,1.267,12.646,2.369,18.617,4.905c4.266,1.812,8.261,4.057,11.786,7.09
		c9.822,8.451,12.427,19.35,10.121,31.562c-3.538,18.735-14.6,32.552-29.94,43.022c-14.111,9.63-30.083,14.176-47.073,15.112
		c-8.503,0.468-17.038,0.772-25.161-2.587c-5.287-2.186-10.068-5.086-13.385-9.935c-0.453-0.662-0.978-1.323-1.227-2.066
		c-0.626-1.865-2.41-4.1-0.107-5.603c2.069-1.351,3.138,1.208,4.398,2.34c5.315,4.774,11.726,7.08,18.633,7.154
		c28.495,0.304,52.394-9.739,70.167-32.546c4.499-5.773,7.49-12.371,7.397-20.031c-0.104-8.608-4.21-14.167-12.44-16.97
		c-12.374-4.215-24.936-3.864-37.487-1.459c-27.147,5.202-50.842,17.938-72.73,34.298c-7.208,5.387-13.601,11.747-18.276,19.573
		c-8.94,14.966-7.457,28.199,4.602,40.869c7.657,8.046,16.957,14.135,25.483,21.148c2.84,2.336,5.602,4.777,8.271,7.305
		c1.333,1.262,2.433,1.762,4.215,0.766c8.437-4.715,16.945-9.302,25.405-13.976c1.964-1.085,3.024-3.12,4.505-4.708
		c4.435-4.754,9.228-9.013,15.243-11.677c1.361-0.603,2.772-1.17,4.218-1.487c8.007-1.753,12.746,1.667,13.636,9.795
		c0.137,1.254,0.207,2.538,0.106,3.792c-0.186,2.301,0.436,3.162,3.058,3.152c5.179-0.019,7.098,2.869,5.76,7.924
		c-2.59,9.78-5.558,19.469-7.058,29.509c-0.201,1.345-0.572,2.709,0.316,4.339c1.756-1.185,2.342-3.094,3.122-4.715
		c8.287-17.214,15.926-34.724,23.479-52.268c1.082-2.513,1.645-5.263,2.3-7.94c0.521-2.127,1.727-3.431,3.817-3.998
		c3.571-0.97,7.168-1.713,10.881-1.009c4.693,0.89,5.661,2.486,3.945,7.002c-2.562,6.743-3.337,13.585-1.782,20.668
		c0.645,2.939,1.154,6.848,3.611,7.736c1.622,0.586,2.903-3.773,4.263-5.947c2.012-3.217,3.839-6.554,5.636-9.899
		c3.978-7.407,7.829-14.879,9.449-23.243c0.539-2.784,2.279-4.077,4.964-4.479c3.305-0.494,6.603-1.09,9.952-0.562
		c4.111,0.648,5.168,2.192,3.891,6.168c-1.557,4.848-2.695,9.679-2.691,14.855c0.004,6.49,2.273,12.117,5.3,17.629
		c1.286,2.341,2.84,1.28,4.387,0.638c11.272-4.672,22.967-5.867,34.848-3.434c12.472,2.554,22.716,8.874,27.743,21.012
		c5.024,12.131,1.283,23.493-10.426,28.653c-1.327,0.585-3.042,1.549-4.053-0.097c-1.098-1.788,0.739-2.669,1.933-3.425
		c10.519-6.658,9.174-18.44,1.814-26.024c-3.776-3.891-8.262-6.611-13.458-8.076c-11.424-3.221-22.887-3.513-34.392-0.322
		c-2.616,0.726-3.497,1.891-2.648,4.735c3.075,10.298,0.463,17.752-8.239,24.546c-4.608,3.597-9.823,6.012-15.37,7.654
		c-5.992,1.773-10.443-1.545-10.395-7.8c0.062-7.931,4.04-14.261,8.957-20.065c1.929-2.277,4.127-4.331,6.255-6.434
		c0.975-0.964,1.664-1.885,0.908-3.312c-3.182-6.009-5.236-12.431-6.694-19.608c-3.355,4.002-4.664,8.496-7.238,12.249
		c-2.989,4.358-5.552,9.007-8.456,13.426c-1.059,1.611-1.204,2.908-0.528,4.764c3.037,8.348,4.125,16.868-1.926,24.276
		c-7.23,8.851-17.215,12.565-28.423,12.343c-6.208-0.123-8.337-4.797-4.625-9.802c4.792-6.46,10.105-12.533,15.197-18.771
		c0.437-0.535,0.875-1.072,1.35-1.572c2.85-3.001,3.442-5.958,1.03-9.782c-3.33-5.278-4.71-11.41-6.12-18.12
		c-2.266,3.021-3.102,6.022-4.239,8.804c-6.108,14.946-13.61,29.19-21.452,43.27c-1.589,2.853-3.682,5.286-6.079,7.464
		c-5.2,4.726-11.298,3.018-13.387-3.742c-1.205-3.9-1.155-7.938-1.106-12.323c-1.334,0.703-1.496,1.839-1.918,2.77
		c-2.186,4.824-4.632,9.506-7.172,14.158c-3.917,7.175-15.347,8.097-19.854-0.114c-5.539-10.09-7.462-20.676-5.26-31.993
		c0.696-3.576,1.367-7.157,2.148-11.247c-5.044,2.197-9.231,4.96-13.482,7.58c-1.47,0.906-0.449,2.293-0.104,3.438
		c4.652,15.441,2.836,30.043-5.846,43.66c-10.259,16.09-30.108,24.41-48.537,20.345c-6.405-1.413-9.547-6.411-11.081-12.112
		c-3.14-11.666,0.326-21.82,8.461-30.446c9.613-10.192,21.441-17.31,33.711-23.755c4.764-2.502,4.83-2.611,0.408-5.855
		c-10.203-7.484-21.016-14.129-30.703-22.321c-9.884-8.359-18.499-17.645-22.208-30.502c0-3.685,0-7.369,0-11.054
		c3.955-14.694,12.523-26.552,23.418-36.718c21.304-19.88,46.708-32.73,74.04-42.092c7.844-2.687,15.989-4.096,24.135-5.475
		C132.613,40.152,140.443,40.152,148.273,40.152z M69.347,208.068c0.202-2.117-0.516-4.572-0.941-7.062
		c-0.321-1.882-1.125-2.182-2.836-1.181c-8.87,5.192-17.369,10.917-24.788,18.05c-5.172,4.973-8.911,10.906-9.218,18.369
		c-0.267,6.486,3.251,9.25,9.644,7.814C56.819,240.553,69.321,224.763,69.347,208.068z M105.39,203.412
		c0.179,3.104-0.145,5.779,0.777,8.33c0.525,1.454,0.512,3.45,2.577,3.654c1.871,0.185,2.416-1.581,3.07-2.844
		c5.724-11.046,9.879-22.734,13.79-34.502c1.151-3.462,2.46-6.954,2.596-10.688c0.121-3.33-0.803-3.911-3.912-2.577
		c-2.61,1.12-4.716,2.919-6.408,5.11C110.154,179.9,105.626,191.105,105.39,203.412z M223.172,191.483
		c-0.022-1.105,0.293-2.639-0.725-3.149c-1.253-0.628-1.856,0.962-2.59,1.717c-3.665,3.769-5.999,8.316-7.51,13.31
		c-0.225,0.744-0.688,1.632-0.042,2.275c0.819,0.816,1.739,0.136,2.513-0.259C220.466,202.49,223.202,197.819,223.172,191.483z"/>
</g>
</svg>
