<?xml version="1.0" encoding="utf-8"?>
<!-- Generator: Adobe Illustrator 17.0.0, SVG Export Plug-In . SVG Version: 6.00 Build 0)  -->
<!DOCTYPE svg PUBLIC "-//W3C//DTD SVG 1.1//EN" "http://www.w3.org/Graphics/SVG/1.1/DTD/svg11.dtd">
<svg version="1.1" id="Capa_1" xmlns="http://www.w3.org/2000/svg" xmlns:xlink="http://www.w3.org/1999/xlink" x="0px" y="0px"
	 width="300px" height="300px" viewBox="0 0 300 300" enable-background="new 0 0 300 300" xml:space="preserve">
<g>
	<path fill="#FC8583" d="M22.522,224.038c0-49.263,0-98.525,0-147.788c0.131-0.058,0.269-0.105,0.393-0.176
		c5.529-3.188,11.059-6.376,16.585-9.569c5.963-3.445,11.921-6.9,17.886-10.343c6.941-4.006,13.891-7.999,20.832-12.006
		c7.668-4.426,15.329-8.864,22.997-13.289c5.965-3.442,11.939-6.867,17.905-10.309c8.209-4.736,16.418-9.474,24.618-14.227
		c2.095-1.215,4.235-2.356,6.262-3.687c0.192,0,0.384,0,0.576,0c1.692,1.142,3.509,2.073,5.273,3.092
		c7.416,4.283,14.831,8.569,22.25,12.845c6.381,3.678,12.772,7.339,19.152,11.018c5.653,3.259,11.293,6.54,16.947,9.797
		c6.049,3.485,12.111,6.947,18.16,10.432c6.568,3.785,13.125,7.591,19.691,11.379c6.525,3.764,13.054,7.521,19.584,11.274
		c2.037,1.171,4.087,2.32,6.132,3.479c0,49.455,0,98.91,0,148.364c-2.338,1.228-4.588,2.61-6.873,3.929
		c-5.715,3.298-11.439,6.582-17.153,9.883c-7.584,4.382-15.159,8.779-22.743,13.161c-5.319,3.074-10.648,6.129-15.967,9.202
		c-7.584,4.382-15.16,8.777-22.744,13.157c-6.067,3.504-12.144,6.992-18.213,10.493c-5.321,3.069-10.644,6.134-15.951,9.227
		c-2.424,1.413-4.897,2.744-7.258,4.265c-0.192,0-0.384,0-0.576,0c-1.996-1.335-4.129-2.44-6.202-3.643
		c-5.996-3.479-12.022-6.907-18.029-10.367c-7.691-4.43-15.373-8.877-23.064-13.308c-8.21-4.731-16.427-9.449-24.638-14.179
		c-8.523-4.909-17.041-9.826-25.564-14.736c-7.837-4.515-15.674-9.027-23.515-13.535C27.031,226.586,24.774,225.317,22.522,224.038z
		 M249.962,149.773c0-19.014-0.009-38.027,0.023-57.041c0.002-1.036-0.344-1.589-1.232-2.08c-4.031-2.233-8.027-4.528-12.029-6.812
		c-5.315-3.034-10.62-6.085-15.934-9.119c-6.482-3.701-12.971-7.389-19.455-11.087c-7.401-4.221-14.799-8.447-22.199-12.669
		c-4.523-2.581-9.048-5.157-13.571-7.737c-4.878-2.782-9.759-5.561-14.629-8.359c-0.497-0.286-0.876-0.281-1.379,0.016
		c-6.095,3.601-12.209,7.172-18.311,10.761c-6.144,3.614-12.278,7.245-18.421,10.86c-7.571,4.454-15.149,8.897-22.722,13.35
		c-4.51,2.652-9.014,5.313-13.522,7.967c-3.66,2.155-7.323,4.305-10.984,6.458c-4.489,2.64-8.962,5.307-13.478,7.899
		c-0.906,0.52-1.244,1.081-1.243,2.141c0.03,37.787,0.025,75.574,0.025,113.362c0,0.216,0.02,0.434-0.003,0.648
		c-0.064,0.613,0.237,0.964,0.749,1.258c3.973,2.286,7.936,4.588,11.9,6.89c8.052,4.677,16.099,9.36,24.153,14.034
		c4.857,2.819,9.726,5.618,14.583,8.437c9.3,5.396,18.594,10.802,27.892,16.2c6.559,3.808,13.124,7.605,19.676,11.423
		c0.52,0.303,0.939,0.33,1.458,0.016c1.724-1.045,3.471-2.052,5.206-3.08c6.235-3.695,12.465-7.399,18.703-11.089
		c8.737-5.169,17.483-10.324,26.22-15.494c7.911-4.68,15.813-9.376,23.723-14.057c7.89-4.669,15.78-9.339,23.687-13.979
		c0.821-0.482,1.137-1.028,1.135-2.003C249.954,187.848,249.962,168.811,249.962,149.773z"/>
	<path fill="#FC8583" d="M234.681,180.62c0,6.649-0.017,13.298,0.02,19.946c0.005,0.924-0.337,1.41-1.113,1.863
		c-5.034,2.941-10.038,5.935-15.054,8.909c-6.542,3.88-13.085,7.76-19.629,11.636c-0.789,0.468-0.939,0.384-0.939-0.537
		c-0.003-13.273,0-26.547-0.007-39.82c0-0.558,0.184-0.926,0.681-1.23c6.982-4.266,13.953-8.552,20.928-12.829
		c4.725-2.897,9.453-5.79,14.184-8.679c0.233-0.142,0.468-0.46,0.755-0.296c0.276,0.157,0.17,0.524,0.17,0.803
		C234.682,167.13,234.681,173.875,234.681,180.62z"/>
	<path fill="#FC8583" d="M101.893,200.992c0,6.408,0,12.815,0,19.223c0,0.24,0.005,0.48-0.003,0.72
		c-0.026,0.787-0.157,0.861-0.841,0.487c-8.213-4.482-16.428-8.961-24.639-13.446c-3.369-1.84-6.724-3.703-10.1-5.529
		c-0.519-0.281-0.721-0.637-0.706-1.201c0.022-0.815,0.004-1.632,0.004-2.448c0-12.719,0-25.438,0-38.158
		c0-1.421,0.015-1.444,1.214-0.75c5.232,3.029,10.457,6.072,15.683,9.112c5.164,3.004,10.327,6.009,15.49,9.015
		c1.037,0.603,2.054,1.244,3.115,1.801c0.594,0.313,0.798,0.721,0.794,1.374c-0.021,3.936-0.01,7.871-0.01,11.807
		C101.893,195.664,101.893,198.328,101.893,200.992z"/>
	<path fill="#FC8583" d="M148.152,50.543c0.35-0.006,0.55,0.135,0.755,0.256c5.663,3.34,11.326,6.679,16.988,10.02
		c5.952,3.512,11.902,7.027,17.854,10.54c0.666,0.393,0.678,0.513,0.027,0.892c-5.639,3.287-11.283,6.565-16.922,9.854
		c-5.431,3.167-10.846,6.361-16.289,9.508c-2.111,1.22-1.347,1.196-3.438-0.004c-5.183-2.973-10.338-5.994-15.501-9.002
		c-6.054-3.527-12.106-7.058-18.157-10.592c-0.814-0.475-0.814-0.517-0.014-0.99c6.319-3.74,12.641-7.475,18.96-11.214
		c4.998-2.957,9.993-5.918,14.99-8.875C147.672,50.779,147.953,50.647,148.152,50.543z"/>
	<path fill="#FC8583" d="M65.607,126.07c0-5.977,0-11.954,0-17.93c0-0.264,0.004-0.528,0.007-0.792
		c0.007-0.561,0.212-0.662,0.71-0.374c5.878,3.4,11.763,6.79,17.648,10.177c4.742,2.729,9.488,5.451,14.233,8.176
		c1.019,0.585,2.032,1.182,3.062,1.748c0.455,0.25,0.668,0.593,0.626,1.106c-0.013,0.167,0,0.336,0,0.504
		c0,11.714,0,23.427,0,35.141c0,1.432-0.064,1.455-1.289,0.783c-6.017-3.3-12.042-6.587-18.063-9.879
		c-5.053-2.763-10.107-5.522-15.154-8.295c-2.011-1.105-1.773-0.51-1.777-3.08C65.601,137.591,65.607,131.83,65.607,126.07z"/>
	<path fill="#FC8583" d="M112.962,207.762c0-6.674,0-13.347,0-20.021c0-0.216-0.004-0.432,0.002-0.648
		c0.022-0.728,0.111-0.795,0.737-0.45c1.849,1.021,3.69,2.056,5.531,3.091c7.239,4.069,14.476,8.139,21.714,12.209
		c1.297,0.729,2.587,1.47,3.892,2.184c0.453,0.248,0.627,0.571,0.626,1.096c-0.012,13.558-0.009,27.116-0.011,40.674
		c0,0.874-0.051,0.911-0.824,0.489c-5.057-2.757-10.11-5.522-15.165-8.282c-5.097-2.783-10.183-5.587-15.305-8.323
		c-0.913-0.488-1.229-1.042-1.222-2.07C112.985,221.061,112.962,214.412,112.962,207.762z"/>
	<path fill="#FC8583" d="M192.917,117.581c-0.421-0.057-0.719-0.27-1.027-0.449c-4.129-2.397-8.256-4.798-12.382-7.201
		c-6.095-3.549-12.19-7.1-18.285-10.65c-0.207-0.121-0.408-0.253-0.621-0.365c-0.542-0.285-0.427-0.536,0.021-0.798
		c1.264-0.738,2.525-1.48,3.785-2.226c10.055-5.952,20.112-11.898,30.154-17.87c0.729-0.434,1.289-0.457,2.03-0.017
		c9.076,5.391,18.17,10.751,27.26,16.118c1.198,0.707,2.404,1.402,3.599,2.114c0.927,0.552,0.93,0.62-0.025,1.181
		c-3.868,2.273-7.745,4.532-11.614,6.802c-6.331,3.715-12.659,7.437-18.99,11.154c-1.117,0.656-2.238,1.306-3.36,1.953
		C193.278,117.435,193.074,117.509,192.917,117.581z"/>
	<path fill="#FC8583" d="M197.963,147.984c0-5.831,0.013-11.662-0.015-17.493c-0.004-0.795,0.251-1.246,0.949-1.654
		c9.591-5.601,19.164-11.234,28.742-16.858c2.089-1.227,4.184-2.445,6.275-3.667c0.612-0.357,0.725-0.298,0.762,0.405
		c0.01,0.191,0.005,0.384,0.005,0.576c0,11.518-0.009,23.037,0.018,34.555c0.002,0.917-0.245,1.475-1.072,1.956
		c-4.998,2.905-9.962,5.87-14.937,8.815c-5.099,3.018-10.198,6.036-15.296,9.055c-1.445,0.856-2.883,1.723-4.334,2.568
		c-1.008,0.587-1.095,0.532-1.096-0.62c-0.002-4.535-0.001-9.071-0.001-13.606C197.963,150.672,197.963,149.328,197.963,147.984z"/>
	<path fill="#FC8583" d="M104.115,76.528c0.227,0.115,0.444,0.212,0.648,0.332c5.562,3.277,11.122,6.556,16.683,9.834
		c4.817,2.839,9.636,5.675,14.452,8.515c1.24,0.731,2.475,1.47,3.71,2.21c0.618,0.37,0.624,0.484-0.009,0.855
		c-3.313,1.941-6.631,3.874-9.947,5.81c-4.849,2.831-9.698,5.663-14.548,8.493c-2.093,1.221-4.194,2.43-6.28,3.665
		c-0.427,0.253-0.767,0.133-1.137-0.081c-2.868-1.655-5.739-3.306-8.609-4.959c-4.388-2.526-8.776-5.051-13.164-7.578
		c-4.409-2.539-8.818-5.077-13.224-7.62c-0.788-0.455-0.773-0.52,0.025-0.992c6.339-3.752,12.673-7.514,19.013-11.265
		c3.924-2.321,7.856-4.629,11.786-6.94C103.697,76.701,103.9,76.627,104.115,76.528z"/>
	<path fill="#FC8583" d="M158.024,225.622c0-6.674,0.011-13.348-0.015-20.022c-0.003-0.747,0.242-1.157,0.899-1.522
		c8.96-4.973,17.904-9.975,26.853-14.968c1.32-0.737,2.641-1.472,3.966-2.201c0.606-0.334,0.735-0.255,0.754,0.461
		c0.015,0.552,0.005,1.104,0.005,1.656c0,12.484-0.01,24.967,0.019,37.451c0.002,0.953-0.277,1.495-1.124,1.992
		c-8.362,4.907-16.694,9.866-25.036,14.807c-1.817,1.076-3.639,2.144-5.464,3.206c-0.809,0.471-0.854,0.443-0.855-0.479
		C158.023,239.21,158.024,232.416,158.024,225.622z"/>
	<path fill="#FC8583" d="M151.89,141.561c-0.105-0.053-0.278-0.13-0.441-0.224c-7.63-4.394-15.258-8.791-22.889-13.184
		c-2.869-1.652-5.747-3.288-8.614-4.943c-0.899-0.519-0.9-0.575,0.02-1.123c3.444-2.048,6.897-4.08,10.344-6.122
		c4.726-2.801,9.449-5.607,14.174-8.41c2.105-1.248,4.217-2.484,6.314-3.746c0.458-0.276,0.834-0.217,1.267,0.039
		c3.697,2.185,7.403,4.354,11.101,6.537c4.298,2.536,8.591,5.08,12.887,7.62c2.375,1.404,4.752,2.805,7.126,4.211
		c0.936,0.555,0.937,0.613-0.002,1.165c-5.049,2.963-10.099,5.923-15.15,8.883c-5.133,3.008-10.266,6.015-15.4,9.02
		C152.421,141.401,152.226,141.555,151.89,141.561z"/>
	<path fill="#FC8583" d="M112.963,153.276c0-5.954,0-11.907,0-17.861c0-0.24-0.007-0.481,0.005-0.72
		c0.035-0.681,0.173-0.758,0.786-0.409c1.294,0.736,2.58,1.484,3.87,2.226c8.218,4.725,16.436,9.45,24.653,14.176
		c0.874,0.503,1.735,1.027,2.615,1.518c0.399,0.223,0.572,0.508,0.571,0.979c-0.01,12.094-0.007,24.188-0.009,36.282
		c0,0.716-0.082,0.743-0.881,0.307c-4.38-2.394-8.759-4.792-13.139-7.187c-5.875-3.211-11.746-6.43-17.634-9.617
		c-0.613-0.332-0.852-0.71-0.85-1.401C112.972,165.471,112.963,159.373,112.963,153.276z"/>
	<path fill="#FC8583" d="M190.485,152.649c0,5.808-0.014,11.617,0.016,17.425c0.004,0.82-0.26,1.298-0.975,1.719
		c-8.644,5.085-17.269,10.202-25.9,15.31c-1.61,0.953-3.221,1.904-4.836,2.85c-0.666,0.39-0.763,0.338-0.764-0.439
		c-0.003-11.976,0.002-23.953-0.015-35.929c-0.001-0.606,0.273-0.906,0.742-1.18c4.246-2.483,8.484-4.979,12.726-7.469
		c6.042-3.547,12.084-7.093,18.128-10.636c0.217-0.127,0.428-0.401,0.703-0.238c0.264,0.156,0.169,0.478,0.169,0.732
		C190.485,140.745,190.484,146.697,190.485,152.649z"/>
</g>
</svg>
