<?xml version="1.0" encoding="utf-8"?>
<!-- Generator: Adobe Illustrator 17.0.0, SVG Export Plug-In . SVG Version: 6.00 Build 0)  -->
<!DOCTYPE svg PUBLIC "-//W3C//DTD SVG 1.1//EN" "http://www.w3.org/Graphics/SVG/1.1/DTD/svg11.dtd">
<svg version="1.1" id="Capa_1" xmlns="http://www.w3.org/2000/svg" xmlns:xlink="http://www.w3.org/1999/xlink" x="0px" y="0px"
	 width="300px" height="300px" viewBox="0 0 300 300" enable-background="new 0 0 300 300" xml:space="preserve">
<g>
	<path fill="#f9bdbc" d="M2.644,271.716c0-81.048,0-162.096,0-243.145c0.094-0.686,0.167-1.376,0.286-2.058
		c0.944-5.363,3.202-10.121,6.793-14.198c3.389-3.847,7.547-6.609,12.414-8.273c2.091-0.715,4.249-1.118,6.434-1.4
		c81.048,0,162.096,0,243.145,0c0.115,0.03,0.229,0.077,0.346,0.087c3.384,0.287,6.578,1.277,9.603,2.765
		c3.542,1.743,6.586,4.147,9.158,7.162c2.441,2.862,4.259,6.057,5.462,9.614c0.693,2.049,1.079,4.162,1.359,6.299
		c0,81.048,0,162.096,0,243.145c-0.033,0.188-0.078,0.374-0.099,0.564c-0.374,3.492-1.392,6.799-3.015,9.899
		c-1.749,3.34-4.065,6.243-6.955,8.695c-2.812,2.385-5.946,4.171-9.424,5.37c-2.089,0.72-4.249,1.119-6.434,1.4
		c-81.048,0-162.096,0-243.145,0c-0.139-0.032-0.277-0.079-0.418-0.092c-3.428-0.316-6.668-1.317-9.722-2.861
		c-3.476-1.757-6.483-4.131-9.017-7.115c-2.388-2.811-4.161-5.953-5.369-9.425C3.32,276.064,2.924,273.902,2.644,271.716z
		 M185.334,251.896c0,4.489,0.008,8.978-0.011,13.467c-0.002,0.554,0.153,0.909,0.678,1.119c0.555,0.222,1.092,0.491,1.637,0.738
		c3.921,1.781,8.024,2.99,12.226,3.883c3.441,0.731,6.911,1.263,10.414,1.62c2.262,0.231,4.527,0.427,6.792,0.501
		c2.123,0.069,4.253,0.077,6.382,0.054c3.284-0.034,6.55-0.205,9.814-0.571c3.405-0.381,6.781-0.914,10.108-1.716
		c4.655-1.123,9.099-2.791,13.249-5.229c3.574-2.1,6.712-4.705,9.321-7.909c2.671-3.28,4.68-6.939,5.842-11.034
		c0.859-3.03,1.356-6.119,1.459-9.263c0.047-1.429,0.062-2.861,0.036-4.295c-0.033-1.875-0.194-3.735-0.501-5.571
		c-1.094-6.539-3.983-12.206-8.529-17.019c-2.195-2.324-4.681-4.324-7.315-6.123c-4.926-3.363-10.245-6.013-15.713-8.351
		c-4.647-1.987-9.316-3.922-13.791-6.28c-3.297-1.738-6.426-3.712-8.994-6.479c-2.266-2.442-3.391-5.239-3.114-8.615
		c0.211-2.574,1.311-4.684,3.067-6.476c1.863-1.902,4.175-3.109,6.668-3.973c4.144-1.436,8.424-1.835,12.788-1.768
		c2.834,0.043,5.639,0.276,8.427,0.74c7.4,1.233,14.395,3.562,20.719,7.696c0.152,0.099,0.309,0.288,0.508,0.195
		c0.215-0.101,0.133-0.341,0.133-0.521c0.004-8.402,0.001-16.804,0.01-25.206c0.001-0.504-0.176-0.78-0.662-0.96
		c-4.418-1.636-8.975-2.715-13.621-3.44c-2.694-0.42-5.407-0.659-8.123-0.906c-3.227-0.294-6.462-0.269-9.686-0.313
		c-1.919-0.026-3.87,0.022-5.809,0.167c-2.818,0.21-5.624,0.501-8.406,0.955c-4.735,0.773-9.365,1.961-13.796,3.847
		c-4.171,1.776-8.085,3.995-11.458,7.041c-4.529,4.089-7.915,8.958-9.689,14.864c-0.886,2.95-1.399,5.959-1.487,9.036
		c-0.039,1.358-0.067,2.716-0.028,4.079c0.061,2.115,0.327,4.196,0.745,6.262c1.166,5.77,3.769,10.834,7.68,15.205
		c2.583,2.887,5.556,5.348,8.791,7.481c4.115,2.713,8.504,4.906,13.048,6.794c5.066,2.104,10.146,4.182,15.001,6.749
		c3.721,1.967,7.255,4.201,9.971,7.519c2.267,2.77,3.173,5.913,2.605,9.439c-0.561,3.486-2.629,5.956-5.57,7.721
		c-4.048,2.428-8.556,3.245-13.185,3.52c-1.523,0.09-3.056,0.003-4.585,0.017c-3.006,0.028-5.968-0.38-8.906-0.949
		c-3.771-0.73-7.424-1.858-10.967-3.354c-4.845-2.046-9.292-4.745-13.387-8.034c-0.204-0.164-0.419-0.484-0.644-0.388
		c-0.299,0.128-0.138,0.514-0.139,0.783C185.331,243.062,185.333,247.479,185.334,251.896z M136.705,218.975
		c0-17.067,0-34.133,0-51.2c0-0.312,0.012-0.624,0.005-0.936c-0.01-0.428,0.199-0.611,0.615-0.601
		c0.288,0.007,0.576-0.005,0.864-0.005c11.498,0,22.995,0,34.493-0.001c1.038,0,1.041-0.004,1.041-1.048
		c0.001-7.153,0.001-14.306,0-21.459c0-1.026-0.004-1.029-1.06-1.029c-33.653-0.001-67.306-0.001-100.959,0
		c-1.026,0-1.029,0.004-1.029,1.06c-0.001,7.105-0.001,14.21,0,21.315c0,1.159,0.002,1.161,1.145,1.161
		c11.402,0,22.803-0.001,34.205,0.002c1.664,0.001,1.523-0.155,1.523,1.499c0.002,34.229,0.002,68.458,0.002,102.687
		c0,1.25,0.001,1.251,1.271,1.251c8.857,0,17.715,0,26.572,0c1.311,0,1.312-0.001,1.312-1.283
		C136.705,253.252,136.705,236.114,136.705,218.975z"/>
</g>
</svg>
